<svg id="diet" xmlns="http://www.w3.org/2000/svg" width="24.039" height="23" viewBox="0 0 24.039 23">
  <g id="Group_124" data-name="Group 124" transform="translate(4.856)">
    <g id="Group_123" data-name="Group 123" transform="translate(0 0)">
      <path id="Path_107" data-name="Path 107" d="M116.341,15.009v2.43L114.4,18.493a4.325,4.325,0,0,0-1.252-1.47,2.335,2.335,0,0,0-.212-3.721l1.243-1.243-1-1-1.841,1.841h-1.512l-1.841-1.841-1,1,1.243,1.243a2.335,2.335,0,0,0-.212,3.721,4.324,4.324,0,0,0-1.252,1.47l-1.943-1.055v-2.43h-1.408v3.267l2.423,1.316h9.481l2.423-1.316V15.009Z" transform="translate(-103.421 -11.064)" fill="#fff"/>
    </g>
  </g>
  <g id="Group_126" data-name="Group 126" transform="translate(0 9.936)">
    <g id="Group_125" data-name="Group 125">
      <path id="Path_108" data-name="Path 108" d="M21.979,230.478,20.7,224.334H17.949V222.7H6.09v1.634H3.336L2.06,230.478,0,231.627l.686,1.229,2.622-1.463,1.174-5.651H6.09v3.577a5.9,5.9,0,0,0,.4,2.129l-3.07,3.367,1.04.948,2.737-3a5.925,5.925,0,0,0,9.652,0l2.737,3,1.04-.948-3.07-3.367a5.9,5.9,0,0,0,.4-2.129v-3.577h1.608l1.174,5.651,2.622,1.463.686-1.229Z" transform="translate(0 -222.7)" fill="#fff"/>
    </g>
  </g>
</svg>
