<svg id="volume" xmlns="http://www.w3.org/2000/svg" width="27" height="23.52" viewBox="0 0 27 23.52">
  <g id="Group_89" data-name="Group 89" transform="translate(21.6)" opacity="0.41">
    <path id="Path_77" data-name="Path 77" d="M395.5,23.52h-3.6a.9.9,0,0,1-.9-.9V.9a.9.9,0,0,1,.9-.9h3.6a.9.9,0,0,1,.9.9V22.62A.9.9,0,0,1,395.5,23.52Z" transform="translate(-391)" fill="#fff"/>
  </g>
  <g id="Group_90" data-name="Group 90" transform="translate(14.4 3.72)">
    <path id="Path_78" data-name="Path 78" d="M275.5,81.8h-3.6a.9.9,0,0,1-.9-.9v-18a.9.9,0,0,1,.9-.9h3.6a.9.9,0,0,1,.9.9v18A.9.9,0,0,1,275.5,81.8Z" transform="translate(-271 -62)" fill="#fff"/>
  </g>
  <g id="Group_91" data-name="Group 91" transform="translate(7.2 7.32)">
    <path id="Path_79" data-name="Path 79" d="M155.5,138.2h-3.6a.9.9,0,0,1-.9-.9V122.9a.9.9,0,0,1,.9-.9h3.6a.9.9,0,0,1,.9.9v14.4A.9.9,0,0,1,155.5,138.2Z" transform="translate(-151 -122)" fill="#fff"/>
  </g>
  <g id="Group_92" data-name="Group 92" transform="translate(0 10.92)">
    <path id="Path_80" data-name="Path 80" d="M35.5,194.6H31.9a.9.9,0,0,1-.9-.9V182.9a.9.9,0,0,1,.9-.9h3.6a.9.9,0,0,1,.9.9v10.8A.9.9,0,0,1,35.5,194.6Z" transform="translate(-31 -182)" fill="#fff"/>
  </g>
</svg>
