<svg xmlns="http://www.w3.org/2000/svg" width="23.999" height="23.999" viewBox="0 0 23.999 23.999">
  <g id="heating" transform="translate(0 -0.001)">
    <path id="Path_95" data-name="Path 95" d="M124.327,11.3h-1.093l.536-.928a.7.7,0,1,0-1.218-.7l-.942,1.631h-6.882L119.6,6.431l1.819.487a.7.7,0,1,0,.364-1.358l-1.035-.277.706-.706a.7.7,0,0,0-.994-.994l-.707.707-.277-1.035a.7.7,0,1,0-1.358.364l.487,1.819L113.734,10.3V3.421l1.631-.942a.7.7,0,1,0-.7-1.218l-.928.536V.7a.7.7,0,0,0-1.406,0V5a7.031,7.031,0,0,0,0,13.992v4.3a.7.7,0,0,0,1.406,0V22.2l.928.536a.7.7,0,1,0,.7-1.218l-1.631-.942V13.7l4.867,4.867-.487,1.819a.7.7,0,1,0,1.358.364l.277-1.035.706.706a.7.7,0,1,0,.994-.994l-.707-.707,1.035-.277a.7.7,0,1,0-.364-1.358l-1.819.487L114.728,12.7h6.882l.942,1.631a.7.7,0,1,0,1.218-.7l-.536-.928h1.093a.7.7,0,1,0,0-1.406Zm-16.921.7a5.633,5.633,0,0,1,4.922-5.581V17.581A5.633,5.633,0,0,1,107.406,12Z" transform="translate(-101.032)" fill="#fff"/>
    <path id="Path_96" data-name="Path 96" d="M3.659,241.7a.7.7,0,0,0-.7-.7H.7a.7.7,0,1,0,0,1.406H2.956A.7.7,0,0,0,3.659,241.7Z" transform="translate(0 -229.703)" fill="#fff"/>
    <path id="Path_97" data-name="Path 97" d="M72.386,73.38a.7.7,0,0,0,.994-.994l-1.593-1.593a.7.7,0,0,0-.994.994Z" transform="translate(-67.279 -67.277)" fill="#fff"/>
    <path id="Path_98" data-name="Path 98" d="M72.386,377.64l-1.593,1.593a.7.7,0,1,0,.994.994l1.593-1.593a.7.7,0,1,0-.994-.994Z" transform="translate(-67.279 -359.742)" fill="#fff"/>
    <path id="Path_99" data-name="Path 99" d="M151.569,20.616a.7.7,0,0,0,1.3-.527L152.028,18a.7.7,0,0,0-1.3.527Z" transform="translate(-143.611 -16.737)" fill="#fff"/>
    <path id="Path_100" data-name="Path 100" d="M21.005,313.748a.7.7,0,0,0-.915-.388L18,314.2a.7.7,0,1,0,.527,1.3l2.088-.844A.7.7,0,0,0,21.005,313.748Z" transform="translate(-16.739 -298.621)" fill="#fff"/>
    <path id="Path_101" data-name="Path 101" d="M151.431,419.584a.7.7,0,0,0-.917.384l-.854,2.084a.7.7,0,1,0,1.3.533l.854-2.084A.7.7,0,0,0,151.431,419.584Z" transform="translate(-142.594 -399.865)" fill="#fff"/>
    <path id="Path_102" data-name="Path 102" d="M18.433,150.962l2.084.854a.7.7,0,1,0,.533-1.3l-2.084-.854a.7.7,0,0,0-.533,1.3Z" transform="translate(-17.153 -142.594)" fill="#fff"/>
  </g>
</svg>
