<svg id="hot-spot" xmlns="http://www.w3.org/2000/svg" width="15.153" height="24.5" viewBox="0 0 15.153 24.5">
  <g id="Group_132" data-name="Group 132">
    <path id="Path_110" data-name="Path 110" d="M41.875,15.94a10.835,10.835,0,0,0-.944-3.425,13.164,13.164,0,0,0-1.795-2.863c-.205-.252-.413-.493-.521-.6l-.248-.271c-.061-.069-.111-.125-.162-.174l-.074-.075c-.081-.082-.165-.166-.234-.251l-.017-.02c-.034-.037-.07-.074-.11-.115a2.283,2.283,0,0,1-.166-.18l-.021-.025c-.378-.415-.7-.793-.971-1.153a7.7,7.7,0,0,1-.74-1.142,5.251,5.251,0,0,1-.487-1.383,8.47,8.47,0,0,1-.171-1.552A13.092,13.092,0,0,1,35.262,1.3c.023-.273.05-.514.075-.728a.506.506,0,0,0-.631-.55,5.711,5.711,0,0,0-.734.248,6.694,6.694,0,0,0-1.506.869,7.113,7.113,0,0,0-1.609,1.721,7.511,7.511,0,0,0-1.129,2.793,8.87,8.87,0,0,0,.066,3.508,10.684,10.684,0,0,0,1.359,3.31,11.959,11.959,0,0,0,.995,1.383c.1.12.363.431.366.435l.106.122c.074.084.128.148.182.213s.091.109.137.158l.008.008c.506.606.863,1.05,1.158,1.444.326.433.612.853.875,1.283a7.263,7.263,0,0,1,.63,1.262,5.927,5.927,0,0,1,.331,1.473,8.738,8.738,0,0,1,0,1.57c-.047.541-.131,1.034-.2,1.4-.05.247-.1.475-.143.672a.506.506,0,0,0,.494.618.521.521,0,0,0,.1-.009,5.329,5.329,0,0,0,.693-.184,6.757,6.757,0,0,0,1.55-.742,7.152,7.152,0,0,0,1.736-1.558,7.829,7.829,0,0,0,1.381-2.626A8.872,8.872,0,0,0,41.875,15.94Z" transform="translate(-26.768 0)" fill="#fff"/>
    <path id="Path_111" data-name="Path 111" d="M23.64,58.746a6.005,6.005,0,0,0-.819-1.307c-.084-.1-.185-.22-.234-.271l-.117-.128c-.03-.034-.052-.058-.076-.082l-.032-.032c-.037-.037-.074-.075-.105-.112l-.017-.02L22.2,56.75c-.026-.026-.051-.052-.072-.079l-.017-.02c-.167-.183-.31-.353-.437-.518a3.661,3.661,0,0,1-.34-.525,2.406,2.406,0,0,1-.222-.632,3.893,3.893,0,0,1-.078-.707,5.594,5.594,0,0,1,.016-.56.506.506,0,0,0-.723-.493,3.189,3.189,0,0,0-.548.335,3.247,3.247,0,0,0-.734.785,3.421,3.421,0,0,0-.515,1.274,4.048,4.048,0,0,0,.029,1.6,4.883,4.883,0,0,0,.621,1.514,5.5,5.5,0,0,0,.449.626c.042.052.134.158.175.206h0l.045.051c.036.04.061.07.085.1s.039.048.056.065l.008.008c.156.187.357.43.529.66.149.2.28.39.4.585a3.276,3.276,0,0,1,.287.574,2.717,2.717,0,0,1,.151.675,3.991,3.991,0,0,1,0,.713c-.014.16-.036.328-.068.515a.506.506,0,0,0,.689.554,3.178,3.178,0,0,0,.515-.268,3.262,3.262,0,0,0,.794-.712,3.575,3.575,0,0,0,.63-1.2,4.117,4.117,0,0,0,.148-1.571A4.964,4.964,0,0,0,23.64,58.746Z" transform="translate(-18.46 -39.705)" fill="#fff"/>
  </g>
</svg>
