<svg xmlns="http://www.w3.org/2000/svg" width="25" height="25" viewBox="0 0 25 25">
  <path id="humidity" d="M16.2,20.949a.977.977,0,0,1-.014,1.381A9.446,9.446,0,0,1,9.521,25a9.491,9.491,0,0,1-6.73-2.762A9.386,9.386,0,0,1,0,15.528v-.262c0-3.3,2.757-6.463,5.189-9.254C6.839,4.12,8.545,2.162,8.545.978a.977.977,0,0,1,1.953,0c0,1.262,1.73,3.23,3.4,5.133.3.346.619.7.93,1.065a.977.977,0,1,1-1.479,1.276c-.3-.354-.617-.708-.918-1.051A30.948,30.948,0,0,1,9.5,3.736,32.655,32.655,0,0,1,6.662,7.3c-2.207,2.533-4.708,5.4-4.708,7.971v.262a7.6,7.6,0,0,0,12.865,5.406.977.977,0,0,1,1.381.014Zm7.824-3.613a2.254,2.254,0,0,1-1.4-.969,2.277,2.277,0,0,0-3.446,0,2.254,2.254,0,0,1-1.4.969,2.254,2.254,0,0,1-1.4-.969,2.277,2.277,0,0,0-3.446,0,2.254,2.254,0,0,1-1.4.969,2.254,2.254,0,0,1-1.4-.969,2.277,2.277,0,0,0-3.446,0,2.254,2.254,0,0,1-1.4.969.977.977,0,1,0,0,1.953,3.892,3.892,0,0,0,2.9-1.67.33.33,0,0,1,.448,0,3.892,3.892,0,0,0,2.9,1.67,3.892,3.892,0,0,0,2.9-1.67.33.33,0,0,1,.448,0,3.892,3.892,0,0,0,2.9,1.67,3.892,3.892,0,0,0,2.9-1.67.33.33,0,0,1,.448,0,3.892,3.892,0,0,0,2.9,1.67.977.977,0,0,0,0-1.953Zm-11.1-5.852a2.254,2.254,0,0,1-1.4.969.977.977,0,0,0,0,1.953,3.892,3.892,0,0,0,2.9-1.67.33.33,0,0,1,.448,0,3.892,3.892,0,0,0,2.9,1.67,3.892,3.892,0,0,0,2.9-1.67.33.33,0,0,1,.448,0,3.892,3.892,0,0,0,2.9,1.67.977.977,0,0,0,0-1.953,2.254,2.254,0,0,1-1.4-.969,2.277,2.277,0,0,0-3.446,0,2.254,2.254,0,0,1-1.4.969,2.254,2.254,0,0,1-1.4-.969,2.277,2.277,0,0,0-3.446,0Zm0,0" transform="translate(0 -0.001)" fill="#fff"/>
</svg>
