<svg id="life-span" xmlns="http://www.w3.org/2000/svg" width="24.5" height="22.107" viewBox="0 0 24.5 22.107">
  <path id="Path_73" data-name="Path 73" d="M12.243,27.039A7.183,7.183,0,0,0,1.2,36.108H6.478l.939-1.565a.718.718,0,0,1,1.221-.016L10.62,37.64l2.889-6.1a.718.718,0,0,1,1.281-.033l2.476,4.6h6.024c4.462-6.974-4.357-14.92-11.046-9.069Z" transform="translate(0 -25.006)" fill="#fff"/>
  <path id="Path_74" data-name="Path 74" d="M62.618,204.989l-2.007-3.726-2.837,5.99a.718.718,0,0,1-1.254.078L54.464,204.1l-.551.918a.718.718,0,0,1-.615.348H48.746c.143.149-.618-.61,9.4,9.361a.718.718,0,0,0,1.012,0c9.868-9.817,9.262-9.212,9.4-9.361H63.25A.718.718,0,0,1,62.618,204.989Z" transform="translate(-46.414 -192.829)" fill="#fff"/>
</svg>
