<svg xmlns="http://www.w3.org/2000/svg" width="25.846" height="25.845" viewBox="0 0 25.846 25.845">
  <g id="lighting" transform="translate(0 -0.012)">
    <g id="Group_104" data-name="Group 104" transform="translate(12.165 3.04)">
      <g id="Group_103" data-name="Group 103">
        <path id="Path_87" data-name="Path 87" d="M241.742,59.99a.757.757,0,0,0,0,1.514,4.549,4.549,0,0,1,4.544,4.543.757.757,0,1,0,1.514,0A6.065,6.065,0,0,0,241.742,59.99Z" transform="translate(-240.985 -59.99)" fill="#fff"/>
      </g>
    </g>
    <g id="Group_106" data-name="Group 106" transform="translate(3.837 0.012)">
      <g id="Group_105" data-name="Group 105">
        <path id="Path_88" data-name="Path 88" d="M83.144.215A9.081,9.081,0,0,0,78.3,15.126,5.9,5.9,0,0,1,79.8,18.991v1.514a2.275,2.275,0,0,0,1.57,2.16,3.777,3.777,0,0,0,7.462,0,2.275,2.275,0,0,0,1.57-2.16V18.991a5.978,5.978,0,0,1,1.537-3.916A9.088,9.088,0,0,0,83.144.215ZM85.1,24.342a2.317,2.317,0,0,1-2.142-1.57h4.284A2.317,2.317,0,0,1,85.1,24.342Zm3.786-3.837a.758.758,0,0,1-.757.757H82.067a.758.758,0,0,1-.757-.757v-.757h7.572Zm1.912-6.428a7.593,7.593,0,0,0-1.871,4.157H81.268a7.483,7.483,0,0,0-1.834-4.115,7.572,7.572,0,1,1,11.36-.042Z" transform="translate(-76.01 -0.012)" fill="#fff"/>
      </g>
    </g>
    <g id="Group_108" data-name="Group 108" transform="translate(0 9.097)">
      <g id="Group_107" data-name="Group 107">
        <path id="Path_89" data-name="Path 89" d="M2.272,179.99H.757a.757.757,0,0,0,0,1.514H2.272a.757.757,0,0,0,0-1.514Z" transform="translate(0 -179.99)" fill="#fff"/>
      </g>
    </g>
    <g id="Group_110" data-name="Group 110" transform="translate(0.222 4.019)">
      <g id="Group_109" data-name="Group 109">
        <path id="Path_90" data-name="Path 90" d="M6.757,80.676,5.686,79.605a.757.757,0,0,0-1.071,1.071l1.071,1.071a.757.757,0,1,0,1.071-1.071Z" transform="translate(-4.394 -79.383)" fill="#fff"/>
      </g>
    </g>
    <g id="Group_112" data-name="Group 112" transform="translate(0.222 13.105)">
      <g id="Group_111" data-name="Group 111">
        <path id="Path_91" data-name="Path 91" d="M6.757,259.605a.757.757,0,0,0-1.071,0l-1.071,1.071a.757.757,0,0,0,1.071,1.071l1.071-1.071A.757.757,0,0,0,6.757,259.605Z" transform="translate(-4.393 -259.384)" fill="#fff"/>
      </g>
    </g>
    <g id="Group_114" data-name="Group 114" transform="translate(22.817 9.097)">
      <g id="Group_113" data-name="Group 113">
        <path id="Path_92" data-name="Path 92" d="M454.272,179.99h-1.514a.757.757,0,0,0,0,1.514h1.514a.757.757,0,0,0,0-1.514Z" transform="translate(-452 -179.99)" fill="#fff"/>
      </g>
    </g>
    <g id="Group_116" data-name="Group 116" transform="translate(23.039 4.019)">
      <g id="Group_115" data-name="Group 115">
        <path id="Path_93" data-name="Path 93" d="M458.757,79.605a.757.757,0,0,0-1.071,0l-1.071,1.071a.757.757,0,0,0,1.071,1.071l1.071-1.071A.757.757,0,0,0,458.757,79.605Z" transform="translate(-456.393 -79.383)" fill="#fff"/>
      </g>
    </g>
    <g id="Group_118" data-name="Group 118" transform="translate(23.039 13.105)">
      <g id="Group_117" data-name="Group 117">
        <path id="Path_94" data-name="Path 94" d="M458.757,260.676l-1.071-1.071a.757.757,0,1,0-1.071,1.071l1.071,1.071a.757.757,0,0,0,1.071-1.071Z" transform="translate(-456.393 -259.384)" fill="#fff"/>
      </g>
    </g>
  </g>
</svg>
