<svg xmlns="http://www.w3.org/2000/svg" width="32.563" height="27.929" viewBox="0 0 32.563 27.929">
  <g id="size" transform="translate(0 0)">
    <g id="left-arrow" transform="matrix(0.839, -0.545, 0.545, 0.839, 10.604, 9.264)">
      <g id="Group_64" data-name="Group 64" transform="translate(0 0)">
        <path id="Path_65" data-name="Path 65" d="M.956,5.73.93,5.736H12.311L8.733,2.15a.94.94,0,0,1,0-1.321L9.29.272a.931.931,0,0,1,1.315,0L16.738,6.4a.938.938,0,0,1,0,1.319L10.6,13.856a.932.932,0,0,1-1.315,0L8.733,13.3a.921.921,0,0,1-.271-.657A.894.894,0,0,1,8.733,12l3.618-3.606H.943A.964.964,0,0,1,0,7.437V6.65A.945.945,0,0,1,.956,5.73Z" transform="translate(0 0)" fill="#fff"/>
      </g>
    </g>
    <g id="left-arrow-2" data-name="left-arrow" transform="matrix(-0.839, 0.545, -0.545, -0.839, 21.959, 18.665)">
      <g id="Group_64-2" data-name="Group 64" transform="translate(0 0)">
        <path id="Path_65-2" data-name="Path 65" d="M.956,5.73.93,5.736H12.311L8.733,2.15a.94.94,0,0,1,0-1.321L9.29.272a.931.931,0,0,1,1.315,0L16.738,6.4a.938.938,0,0,1,0,1.319L10.6,13.856a.932.932,0,0,1-1.315,0L8.733,13.3a.921.921,0,0,1-.271-.657A.894.894,0,0,1,8.733,12l3.618-3.606H.943A.964.964,0,0,1,0,7.437V6.65A.945.945,0,0,1,.956,5.73Z" transform="translate(0 0)" fill="#fff"/>
      </g>
    </g>
  </g>
</svg>
