<svg xmlns="http://www.w3.org/2000/svg" width="19.416" height="24.817" viewBox="0 0 19.416 24.817">
  <path id="substrate" d="M75.107.79a.727.727,0,0,0-.619-.563,24.2,24.2,0,0,0-8.239.262,16.041,16.041,0,0,0-8,4.323,8.693,8.693,0,0,0,1.041,13.175v6.1a.727.727,0,1,0,1.454,0V18.842a8.706,8.706,0,0,0,9.79-1.745c2.561-2.561,2.031-6.089,1.856-8.069-.266-3.023-.5-5.634,2.4-7.465A.727.727,0,0,0,75.107.79ZM59.275,5.84a15.245,15.245,0,0,1,9.931-4.322,17.113,17.113,0,0,0-4.872,3.621,18.354,18.354,0,0,0-4.97,11.017A7.245,7.245,0,0,1,59.275,5.84ZM70.939,9.156c.228,2.589.444,5.034-1.436,6.913a7.245,7.245,0,0,1-8.749,1.14A16.919,16.919,0,0,1,65.389,6.139a15.718,15.718,0,0,1,4.442-3.306,12.106,12.106,0,0,1,2.332-.864,6.21,6.21,0,0,0-1.17,2.524,15.507,15.507,0,0,0-.054,4.663Z" transform="translate(-55.709 0.001)" fill="#fff"/>
</svg>
