<svg id="temp" xmlns="http://www.w3.org/2000/svg" width="13.917" height="27.833" viewBox="0 0 13.917 27.833">
  <g id="Group_94" data-name="Group 94">
    <g id="Group_93" data-name="Group 93">
      <path id="Path_81" data-name="Path 81" d="M139.6,15.689V4.639a4.639,4.639,0,0,0-9.278,0v11.05a6.958,6.958,0,1,0,9.278,0Zm-4.639,9.825a4.639,4.639,0,0,1-3.092-8.1l.773-.691V4.639a2.319,2.319,0,0,1,4.639,0V16.725l.773.691a4.639,4.639,0,0,1-3.092,8.1Z" transform="translate(-128 0)" fill="#fff"/>
    </g>
  </g>
  <g id="Group_98" data-name="Group 98" transform="translate(4 17.834)">
    <g id="Group_97" data-name="Group 97" transform="translate(0 0)">
      <circle id="Ellipse_7" data-name="Ellipse 7" cx="3" cy="3" r="3" fill="#fff"/>
    </g>
  </g>
  <line id="Line_6" data-name="Line 6" y2="16.058" transform="translate(6.958 6.958)" fill="none" stroke="#fff" stroke-width="2"/>
</svg>
