<svg xmlns="http://www.w3.org/2000/svg" width="16.933" height="23.52" viewBox="0 0 16.933 23.52">
  <g id="water" transform="translate(-41.232 0)">
    <g id="Group_100" data-name="Group 100" transform="translate(41.232 0)">
      <g id="Group_99" data-name="Group 99" transform="translate(0 0)">
        <path id="Path_85" data-name="Path 85" d="M51.871,2.593c-.543-.8-1.022-1.534-1.47-2.2a.972.972,0,0,0-.256-.256A.832.832,0,0,0,49,.389c-.415.671-.895,1.374-1.47,2.2C45,6.3,41.232,11.891,41.232,15.086a8.429,8.429,0,0,0,2.492,5.975,8.536,8.536,0,0,0,5.975,2.46,8.509,8.509,0,0,0,8.467-8.467C58.165,11.859,54.4,6.3,51.871,2.593Zm2.652,17.285A6.757,6.757,0,0,1,49.7,21.859a6.892,6.892,0,0,1-4.824-1.981,6.757,6.757,0,0,1-1.981-4.824c0-2.684,3.61-8.019,6.007-11.566.288-.415.543-.831.8-1.182.256.351.511.767.8,1.182,2.4,3.578,6.007,8.882,6.007,11.566A6.892,6.892,0,0,1,54.523,19.878Z" transform="translate(-41.232 0)" fill="#fff"/>
      </g>
    </g>
    <g id="Group_102" data-name="Group 102" transform="translate(49.29 13.477)">
      <g id="Group_101" data-name="Group 101" transform="translate(0)">
        <path id="Path_86" data-name="Path 86" d="M170.513,181.242a.819.819,0,0,0-.863.767,4.113,4.113,0,0,1-.607,1.949,3.883,3.883,0,0,1-1.47,1.406.844.844,0,0,0,.831,1.47,5.536,5.536,0,0,0,2.045-1.981,5.437,5.437,0,0,0,.831-2.748A.819.819,0,0,0,170.513,181.242Z" transform="translate(-167.152 -181.24)" fill="#fff"/>
      </g>
    </g>
  </g>
</svg>
