<svg xmlns="http://www.w3.org/2000/svg" width="77.681" height="83.98" viewBox="0 0 77.681 83.98">
  <g id="affordable" transform="translate(-986.269 -552.549)">
    <g id="Group_854" data-name="Group 854">
      <g id="Group_723" data-name="Group 723">
        <g id="Group_722" data-name="Group 722">
          <circle id="Ellipse_71" data-name="Ellipse 71" cx="30.577" cy="30.577" r="30.577" transform="translate(1000.756 552.549)" fill="#ffa44a"/>
        </g>
      </g>
      <g id="Group_763" data-name="Group 763">
        <g id="Group_729" data-name="Group 729">
          <g id="Group_725" data-name="Group 725">
            <g id="Group_724" data-name="Group 724">
              <path id="Path_324" data-name="Path 324" d="M1031.726,636.529a.5.5,0,0,1-.5-.5c0-3-2.744-5.448-6.117-5.448s-6.116,2.444-6.116,5.448a.5.5,0,0,1-1,0c0-3.555,3.192-6.448,7.116-6.448s7.117,2.893,7.117,6.448A.5.5,0,0,1,1031.726,636.529Z" fill="#37474f"/>
            </g>
          </g>
          <g id="Group_728" data-name="Group 728">
            <g id="Group_726" data-name="Group 726">
              <path id="Path_325" data-name="Path 325" d="M1018.493,636.029c0-5.912-5.331-10.7-11.907-10.7s-11.908,4.792-11.908,10.7h60.862c0-5.912-5.331-10.7-11.907-10.7s-11.907,4.792-11.907,10.7c0-3.285-2.962-5.948-6.617-5.948S1018.493,632.744,1018.493,636.029Z" fill="#f7f6fa"/>
            </g>
            <g id="Group_727" data-name="Group 727">
              <path id="Path_326" data-name="Path 326" d="M1055.54,636.529H994.679a.5.5,0,0,1-.5-.5c0-6.178,5.565-11.2,12.407-11.2,6.656,0,12.1,4.757,12.394,10.7h12.258c.291-5.947,5.739-10.7,12.4-10.7,6.841,0,12.407,5.026,12.407,11.2A.5.5,0,0,1,1055.54,636.529Zm-23.3-1h22.787c-.292-5.4-5.291-9.7-11.394-9.7S1032.532,630.134,1032.24,635.529Zm-37.048,0h22.787c-.292-5.4-5.291-9.7-11.393-9.7S995.484,630.134,995.192,635.529Z" fill="#37474f"/>
            </g>
          </g>
        </g>
        <g id="Group_746" data-name="Group 746">
          <g id="Group_731" data-name="Group 731">
            <g id="Group_730" data-name="Group 730">
              <path id="Path_327" data-name="Path 327" d="M1014.449,625.269a.5.5,0,0,1-.309-.107,16.362,16.362,0,0,0-2.1-1.406.5.5,0,1,1,.492-.871,17.342,17.342,0,0,1,2.225,1.492.5.5,0,0,1-.311.892Z" fill="#37474f"/>
            </g>
          </g>
          <g id="Group_733" data-name="Group 733">
            <g id="Group_732" data-name="Group 732">
              <path id="Path_328" data-name="Path 328" d="M1010.329,622.874a.508.508,0,0,1-.189-.037,17.358,17.358,0,0,0-2.421-.785,17.665,17.665,0,0,0-1.821-.345.5.5,0,0,1,.135-.992,18.537,18.537,0,0,1,1.924.366,18.345,18.345,0,0,1,2.561.83.5.5,0,0,1-.189.963Z" fill="#37474f"/>
            </g>
          </g>
          <g id="Group_735" data-name="Group 735">
            <g id="Group_734" data-name="Group 734">
              <path id="Path_329" data-name="Path 329" d="M994.6,623.821a.5.5,0,0,1-.246-.935,18.539,18.539,0,0,1,9.091-2.345.5.5,0,0,1,0,1,17.53,17.53,0,0,0-8.6,2.216A.5.5,0,0,1,994.6,623.821Z" fill="#37474f"/>
            </g>
          </g>
          <g id="Group_737" data-name="Group 737">
            <g id="Group_736" data-name="Group 736">
              <path id="Path_330" data-name="Path 330" d="M986.769,636.529a.5.5,0,0,1-.5-.5,14.626,14.626,0,0,1,4.166-10.114.5.5,0,1,1,.723.691,13.629,13.629,0,0,0-3.889,9.423A.5.5,0,0,1,986.769,636.529Z" fill="#37474f"/>
            </g>
          </g>
          <g id="Group_739" data-name="Group 739">
            <g id="Group_738" data-name="Group 738">
              <path id="Path_331" data-name="Path 331" d="M1035.77,625.269a.5.5,0,0,1-.311-.892,17.354,17.354,0,0,1,2.225-1.492.5.5,0,1,1,.492.871,16.354,16.354,0,0,0-2.1,1.406A.5.5,0,0,1,1035.77,625.269Z" fill="#37474f"/>
            </g>
          </g>
          <g id="Group_741" data-name="Group 741">
            <g id="Group_740" data-name="Group 740">
              <path id="Path_332" data-name="Path 332" d="M1039.89,622.874a.5.5,0,0,1-.189-.963,18.576,18.576,0,0,1,4.485-1.2.5.5,0,0,1,.135.992,17.66,17.66,0,0,0-1.821.345,17.415,17.415,0,0,0-2.422.785A.5.5,0,0,1,1039.89,622.874Z" fill="#37474f"/>
            </g>
          </g>
          <g id="Group_743" data-name="Group 743">
            <g id="Group_742" data-name="Group 742">
              <path id="Path_333" data-name="Path 333" d="M1055.621,623.821a.493.493,0,0,1-.245-.064,17.531,17.531,0,0,0-8.6-2.216.5.5,0,0,1,0-1,18.539,18.539,0,0,1,9.091,2.345.5.5,0,0,1-.246.935Z" fill="#37474f"/>
            </g>
          </g>
          <g id="Group_745" data-name="Group 745">
            <g id="Group_744" data-name="Group 744">
              <path id="Path_334" data-name="Path 334" d="M1063.45,636.529a.5.5,0,0,1-.5-.5,13.629,13.629,0,0,0-3.889-9.423.5.5,0,1,1,.723-.691,14.627,14.627,0,0,1,4.166,10.114A.5.5,0,0,1,1063.45,636.529Z" fill="#37474f"/>
            </g>
          </g>
        </g>
        <g id="Group_748" data-name="Group 748">
          <g id="Group_747" data-name="Group 747">
            <path id="Path_335" data-name="Path 335" d="M1051.881,613.381a.5.5,0,0,1-.5-.5v-4.363a.5.5,0,0,1,1,0v4.363A.5.5,0,0,1,1051.881,613.381Z" fill="#37474f"/>
          </g>
        </g>
        <g id="Group_750" data-name="Group 750">
          <g id="Group_749" data-name="Group 749">
            <path id="Path_336" data-name="Path 336" d="M1054.062,611.2H1049.7a.5.5,0,0,1,0-1h4.363a.5.5,0,0,1,0,1Z" fill="#37474f"/>
          </g>
        </g>
        <g id="Group_752" data-name="Group 752">
          <g id="Group_751" data-name="Group 751">
            <path id="Path_337" data-name="Path 337" d="M1043.5,578.326a.5.5,0,0,1-.5-.5v-4.364a.5.5,0,0,1,1,0v4.364A.5.5,0,0,1,1043.5,578.326Z" fill="#37474f"/>
          </g>
        </g>
        <g id="Group_754" data-name="Group 754">
          <g id="Group_753" data-name="Group 753">
            <path id="Path_338" data-name="Path 338" d="M1045.682,576.144h-4.363a.5.5,0,0,1,0-1h4.363a.5.5,0,0,1,0,1Z" fill="#37474f"/>
          </g>
        </g>
        <g id="Group_756" data-name="Group 756">
          <g id="Group_755" data-name="Group 755">
            <path id="Path_339" data-name="Path 339" d="M1018.636,566.145a.5.5,0,0,1-.5-.5v-4.363a.5.5,0,0,1,1,0v4.363A.5.5,0,0,1,1018.636,566.145Z" fill="#37474f"/>
          </g>
        </g>
        <g id="Group_758" data-name="Group 758">
          <g id="Group_757" data-name="Group 757">
            <path id="Path_340" data-name="Path 340" d="M1020.817,563.963h-4.363a.5.5,0,0,1,0-1h4.363a.5.5,0,0,1,0,1Z" fill="#37474f"/>
          </g>
        </g>
        <g id="Group_760" data-name="Group 760">
          <g id="Group_759" data-name="Group 759">
            <path id="Path_341" data-name="Path 341" d="M995.089,617.014a.5.5,0,0,1-.5-.5v-4.363a.5.5,0,0,1,1,0v4.363A.5.5,0,0,1,995.089,617.014Z" fill="#37474f"/>
          </g>
        </g>
        <g id="Group_762" data-name="Group 762">
          <g id="Group_761" data-name="Group 761">
            <path id="Path_342" data-name="Path 342" d="M997.27,614.833h-4.362a.5.5,0,0,1,0-1h4.362a.5.5,0,0,1,0,1Z" fill="#37474f"/>
          </g>
        </g>
      </g>
      <g id="Group_985" data-name="Group 985">
        <circle id="Ellipse_72" data-name="Ellipse 72" cx="21" cy="21" r="21" transform="translate(993.269 570.549)" fill="#fff"/>
        <g id="Group_764" data-name="Group 764">
          <path id="Path_343" data-name="Path 343" d="M1014.833,577.006a.823.823,0,0,0,.822-.789v-.034a.823.823,0,0,0-1.646,0v.034A.823.823,0,0,0,1014.833,577.006Z" fill="#37474f"/>
          <path id="Path_344" data-name="Path 344" d="M1009.586,588.7l.484,1.883h-1.492a.823.823,0,0,0,0,1.646h1.914l.407,1.582a3.969,3.969,0,0,1-1.64,4.285l-.053.035a5.744,5.744,0,0,0-.759.509l-.005,0a.823.823,0,0,0,.976,1.324l.645-.43a3.953,3.953,0,0,1,4.357.4l.021.016a5.613,5.613,0,0,0,6.994-.015.823.823,0,1,0-1.028-1.285,3.965,3.965,0,0,1-4.957,0l-.021-.016a5.6,5.6,0,0,0-3.409-1.218,5.606,5.606,0,0,0,.473-4.013l-.3-1.173h6.263a.823.823,0,0,0,0-1.646h-6.685l-.589-2.293a3.928,3.928,0,1,1,7.722-.97.823.823,0,0,0,1.646,0,5.574,5.574,0,1,0-10.962,1.38Z" fill="#37474f"/>
          <path id="Path_345" data-name="Path 345" d="M1014.833,612.476a21.068,21.068,0,1,0-21.068-21.068A21.449,21.449,0,0,0,1014.833,612.476Zm0-40.49c10.346,0,19.422,9.075,19.422,19.422s-9.076,19.422-19.422,19.422-19.422-9.076-19.422-19.422S1004.486,571.986,1014.833,571.986Z" fill="#37474f"/>
          <path id="Path_346" data-name="Path 346" d="M1014.833,607.538a16.113,16.113,0,0,0,3.468-31.852.823.823,0,0,0-.381,1.6,14.484,14.484,0,1,1-6.175,0,.823.823,0,1,0-.38-1.6,16.113,16.113,0,0,0,3.468,31.852Z" fill="#37474f"/>
        </g>
      </g>
    </g>
  </g>
</svg>
