<svg xmlns="http://www.w3.org/2000/svg" width="87.771" height="98.414" viewBox="0 0 87.771 98.414">
  <g id="brand" transform="translate(-971.211 -108.743)">
    <g id="Group_539" data-name="Group 539">
      <g id="Group_538" data-name="Group 538">
        <circle id="Ellipse_66" data-name="Ellipse 66" cx="30.577" cy="30.577" r="30.577" transform="translate(972.499 151.985) rotate(-45)" fill="#ffa44a"/>
      </g>
    </g>
    <g id="Group_542" data-name="Group 542">
      <g id="Group_540" data-name="Group 540">
        <circle id="Ellipse_67" data-name="Ellipse 67" cx="17.298" cy="17.298" r="17.298" transform="translate(998.442 134.782)" fill="#fff"/>
      </g>
      <g id="Group_541" data-name="Group 541">
        <path id="Path_245" data-name="Path 245" d="M1015.741,169.879a17.8,17.8,0,1,1,17.8-17.8A17.819,17.819,0,0,1,1015.741,169.879Zm0-34.6a16.8,16.8,0,1,0,16.8,16.8A16.818,16.818,0,0,0,1015.741,135.282Z" fill="#37474f"/>
      </g>
    </g>
    <g id="Group_545" data-name="Group 545">
      <g id="Group_544" data-name="Group 544">
        <g id="Group_543" data-name="Group 543">
          <path id="Path_246" data-name="Path 246" d="M1015.741,140.3a.5.5,0,0,1-.5-.5v-2.511a.5.5,0,0,1,1,0V139.8A.5.5,0,0,1,1015.741,140.3Z" fill="#37474f"/>
        </g>
      </g>
    </g>
    <g id="Group_550" data-name="Group 550">
      <g id="Group_547" data-name="Group 547">
        <g id="Group_546" data-name="Group 546">
          <path id="Path_247" data-name="Path 247" d="M1003.457,152.581h-2.511a.5.5,0,0,1,0-1h2.511a.5.5,0,0,1,0,1Z" fill="#37474f"/>
        </g>
      </g>
      <g id="Group_549" data-name="Group 549">
        <g id="Group_548" data-name="Group 548">
          <path id="Path_248" data-name="Path 248" d="M1030.536,152.581h-2.512a.5.5,0,0,1,0-1h2.512a.5.5,0,0,1,0,1Z" fill="#37474f"/>
        </g>
      </g>
    </g>
    <g id="Group_552" data-name="Group 552">
      <g id="Group_551" data-name="Group 551">
        <path id="Path_249" data-name="Path 249" d="M1015.741,152.581a.5.5,0,0,1-.4-.2l-5.057-6.814a.5.5,0,1,1,.8-.6l4.77,6.425,9.976-6.9a.5.5,0,0,1,.57.822l-10.375,7.178A.5.5,0,0,1,1015.741,152.581Z" fill="#37474f"/>
      </g>
    </g>
    <g id="Group_604" data-name="Group 604">
      <g id="Group_570" data-name="Group 570">
        <g id="Group_566" data-name="Group 566">
          <g id="Group_555" data-name="Group 555">
            <g id="Group_553" data-name="Group 553">
              <rect id="Rectangle_60" data-name="Rectangle 60" width="48.55" height="32.994" rx="2.955" transform="translate(971.842 151.984)" fill="#fff"/>
            </g>
            <g id="Group_554" data-name="Group 554">
              <path id="Path_250" data-name="Path 250" d="M1017.437,185.478H974.8a3.458,3.458,0,0,1-3.455-3.454V154.939a3.459,3.459,0,0,1,3.455-3.455h42.64a3.459,3.459,0,0,1,3.455,3.455v27.085A3.458,3.458,0,0,1,1017.437,185.478ZM974.8,152.484a2.457,2.457,0,0,0-2.455,2.455v27.085a2.457,2.457,0,0,0,2.455,2.454h42.64a2.458,2.458,0,0,0,2.455-2.454V154.939a2.458,2.458,0,0,0-2.455-2.455Z" fill="#37474f"/>
            </g>
          </g>
          <g id="Group_557" data-name="Group 557">
            <g id="Group_556" data-name="Group 556">
              <path id="Path_251" data-name="Path 251" d="M1020.293,180.886H971.744a.5.5,0,0,1,0-1h48.549a.5.5,0,0,1,0,1Z" fill="#37474f"/>
            </g>
          </g>
          <g id="Group_560" data-name="Group 560">
            <g id="Group_558" data-name="Group 558">
              <path id="Path_252" data-name="Path 252" d="M971.842,181.721a3.117,3.117,0,0,0,2.955,3.257h42.64a3.117,3.117,0,0,0,2.955-3.257v-1.8h-48.55Z" fill="#f7f6fa"/>
            </g>
            <g id="Group_559" data-name="Group 559">
              <path id="Path_253" data-name="Path 253" d="M1017.437,185.478H974.8a3.619,3.619,0,0,1-3.455-3.757v-1.806a.5.5,0,0,1,.5-.5h48.55a.5.5,0,0,1,.5.5v1.806A3.619,3.619,0,0,1,1017.437,185.478Zm-45.1-5.063v1.306a2.622,2.622,0,0,0,2.455,2.757h42.64a2.623,2.623,0,0,0,2.455-2.757v-1.306Z" fill="#37474f"/>
            </g>
          </g>
          <g id="Group_562" data-name="Group 562">
            <g id="Group_561" data-name="Group 561">
              <path id="Path_254" data-name="Path 254" d="M1002.765,192.063h-13.3a.5.5,0,0,1,0-1h13.3a.5.5,0,0,1,0,1Z" fill="#37474f"/>
            </g>
          </g>
          <g id="Group_565" data-name="Group 565">
            <g id="Group_563" data-name="Group 563">
              <path id="Path_255" data-name="Path 255" d="M1000.213,191.563h-8.192l.919-6.585h6.355Z" fill="#f7f6fa"/>
            </g>
            <g id="Group_564" data-name="Group 564">
              <path id="Path_256" data-name="Path 256" d="M1000.213,192.063H992.02a.5.5,0,0,1-.495-.569l.919-6.585a.5.5,0,0,1,.5-.431h6.355a.5.5,0,0,1,.495.431l.919,6.585a.5.5,0,0,1-.495.569Zm-7.618-1h7.043l-.779-5.585h-5.485Z" fill="#37474f"/>
            </g>
          </g>
        </g>
        <g id="Group_569" data-name="Group 569">
          <g id="Group_567" data-name="Group 567">
            <path id="Path_257" data-name="Path 257" d="M995.621,182.447h.894l23.779-2.061h-48.55" fill="#ebeff2"/>
          </g>
          <g id="Group_568" data-name="Group 568">
            <path id="Path_258" data-name="Path 258" d="M996.515,182.947h-.894a.5.5,0,0,1,0-1h.894a.5.5,0,0,1,0,1Z" fill="#37474f"/>
          </g>
        </g>
      </g>
      <g id="Group_586" data-name="Group 586">
        <g id="Group_572" data-name="Group 572">
          <g id="Group_571" data-name="Group 571">
            <path id="Path_259" data-name="Path 259" d="M1035.12,181.018a.5.5,0,0,1-.36-.152l-8.856-9.155a.5.5,0,1,1,.719-.695l8.441,8.726,7.761-10.7a.5.5,0,0,1,.809.587l-8.11,11.185a.5.5,0,0,1-.369.206Z" fill="#37474f"/>
          </g>
        </g>
        <g id="Group_579" data-name="Group 579">
          <g id="Group_575" data-name="Group 575">
            <g id="Group_573" data-name="Group 573">
              <rect id="Rectangle_61" data-name="Rectangle 61" width="11.54" height="1.976" transform="translate(1029.555 181.835)" fill="#ebeff2"/>
            </g>
            <g id="Group_574" data-name="Group 574">
              <path id="Path_260" data-name="Path 260" d="M1041.095,184.311h-11.54a.5.5,0,0,1-.5-.5v-1.976a.5.5,0,0,1,.5-.5h11.54a.5.5,0,0,1,.5.5v1.976A.5.5,0,0,1,1041.095,184.311Zm-11.04-1h10.54v-.976h-10.54Z" fill="#37474f"/>
            </g>
          </g>
          <g id="Group_578" data-name="Group 578">
            <g id="Group_576" data-name="Group 576">
              <path id="Path_261" data-name="Path 261" d="M1037.887,191.53h-5.124a1.265,1.265,0,0,1-1.25-1.075l-1.067-6.644h9.758l-1.068,6.644A1.264,1.264,0,0,1,1037.887,191.53Z" fill="#f7f6fa"/>
            </g>
            <g id="Group_577" data-name="Group 577">
              <path id="Path_262" data-name="Path 262" d="M1037.887,192.03h-5.124a1.755,1.755,0,0,1-1.744-1.5l-1.067-6.64a.5.5,0,0,1,.493-.58h9.76a.5.5,0,0,1,.493.579l-1.068,6.645A1.754,1.754,0,0,1,1037.887,192.03Zm-6.855-7.719.975,6.065a.761.761,0,0,0,.756.654h5.124a.762.762,0,0,0,.756-.65l.975-6.069Z" fill="#37474f"/>
            </g>
          </g>
        </g>
        <g id="Group_582" data-name="Group 582">
          <g id="Group_580" data-name="Group 580">
            <path id="Path_263" data-name="Path 263" d="M1041.239,177.45a3.213,3.213,0,1,1-5.173-3.811c1.052-1.428,7.164-4.307,7.164-4.307S1042.291,176.022,1041.239,177.45Z" fill="#fff"/>
          </g>
          <g id="Group_581" data-name="Group 581">
            <path id="Path_264" data-name="Path 264" d="M1038.644,179.258a3.713,3.713,0,0,1-2.98-5.915c1.1-1.488,6.715-4.163,7.353-4.463a.5.5,0,0,1,.708.522c-.1.7-.988,6.858-2.084,8.345h0a3.729,3.729,0,0,1-3,1.511Zm3.95-9.063c-2.007.989-5.436,2.8-6.126,3.741a2.713,2.713,0,0,0,4.368,3.218h0C1041.526,176.218,1042.244,172.4,1042.594,170.2Z" fill="#37474f"/>
          </g>
        </g>
        <g id="Group_585" data-name="Group 585">
          <g id="Group_583" data-name="Group 583">
            <path id="Path_265" data-name="Path 265" d="M1032.659,173.637a2.929,2.929,0,1,1-4.138,4.147c-1.145-1.142-2.912-7.044-2.912-7.044S1031.514,172.494,1032.659,173.637Z" fill="#fff"/>
          </g>
          <g id="Group_584" data-name="Group 584">
            <path id="Path_266" data-name="Path 266" d="M1030.591,179.14a3.41,3.41,0,0,1-2.423-1c-1.2-1.2-2.853-6.639-3.038-7.255a.5.5,0,0,1,.622-.623c.617.184,6.061,1.825,7.261,3.023h0a3.429,3.429,0,0,1-2.419,5.857Zm-4.225-7.645c.729,2.287,1.828,5.256,2.508,5.935a2.415,2.415,0,0,0,1.717.71h0a2.429,2.429,0,0,0,1.714-4.149C1031.625,173.311,1028.654,172.219,1026.366,171.495Z" fill="#37474f"/>
          </g>
        </g>
      </g>
      <g id="Group_588" data-name="Group 588">
        <g id="Group_587" data-name="Group 587">
          <path id="Path_267" data-name="Path 267" d="M1047.9,196.3H971.711a.5.5,0,0,1-.5-.5v-4.239a.5.5,0,0,1,.5-.5h12.752a.5.5,0,0,1,0,1H972.211V195.3H1047.4v-3.239h-4.644a.5.5,0,0,1,0-1h5.144a.5.5,0,0,1,.5.5V195.8A.5.5,0,0,1,1047.9,196.3Z" fill="#37474f"/>
        </g>
      </g>
      <g id="Group_590" data-name="Group 590">
        <g id="Group_589" data-name="Group 589">
          <path id="Path_268" data-name="Path 268" d="M1028.171,192.063h-22.042a.5.5,0,0,1,0-1h22.042a.5.5,0,0,1,0,1Z" fill="#37474f"/>
        </g>
      </g>
      <g id="Group_592" data-name="Group 592">
        <g id="Group_591" data-name="Group 591">
          <path id="Path_269" data-name="Path 269" d="M979.921,207.157h-4.239a.5.5,0,0,1-.5-.5V195.8a.5.5,0,0,1,.5-.5h4.239a.5.5,0,0,1,.5.5v10.855A.5.5,0,0,1,979.921,207.157Zm-3.739-1h3.239V196.3h-3.239Z" fill="#37474f"/>
        </g>
      </g>
      <g id="Group_594" data-name="Group 594">
        <g id="Group_593" data-name="Group 593">
          <path id="Path_270" data-name="Path 270" d="M1043.194,207.157h-4.239a.5.5,0,0,1-.5-.5V195.8a.5.5,0,0,1,.5-.5h4.239a.5.5,0,0,1,.5.5v10.855A.5.5,0,0,1,1043.194,207.157Zm-3.739-1h3.239V196.3h-3.239Z" fill="#37474f"/>
        </g>
      </g>
      <g id="Group_597" data-name="Group 597">
        <g id="Group_595" data-name="Group 595">
          <path id="Path_271" data-name="Path 271" d="M975.682,176.872l10.409-19.046L996.5,176.872Z" fill="#fff"/>
        </g>
        <g id="Group_596" data-name="Group 596">
          <path id="Path_272" data-name="Path 272" d="M996.5,177.372H975.682a.5.5,0,0,1-.439-.74l10.409-19.046a.521.521,0,0,1,.878,0l10.409,19.046a.5.5,0,0,1-.439.74Zm-19.975-1h19.132l-9.566-17.5Z" fill="#37474f"/>
        </g>
      </g>
      <g id="Group_600" data-name="Group 600">
        <g id="Group_598" data-name="Group 598">
          <path id="Path_273" data-name="Path 273" d="M981.874,176.872l17.355-31.755,17.355,31.755Z" fill="#f7f6fa"/>
        </g>
        <g id="Group_599" data-name="Group 599">
          <path id="Path_274" data-name="Path 274" d="M1016.584,177.372h-34.71a.5.5,0,0,1-.439-.74l17.355-31.755a.521.521,0,0,1,.878,0l17.355,31.755a.5.5,0,0,1-.439.74Zm-33.867-1h33.024l-16.512-30.213Z" fill="#37474f"/>
        </g>
      </g>
      <g id="Group_603" data-name="Group 603">
        <g id="Group_601" data-name="Group 601">
          <path id="Path_275" data-name="Path 275" d="M1005.728,157.009l-6.5-11.892-6,10.982,3.288-1.337,2.714,2.313,1.943-2.437Z" fill="#fff"/>
        </g>
        <g id="Group_602" data-name="Group 602">
          <path id="Path_276" data-name="Path 276" d="M999.229,157.575a.5.5,0,0,1-.324-.119l-2.484-2.116-3.006,1.223a.5.5,0,0,1-.627-.7l6-10.982a.5.5,0,0,1,.439-.26h0a.5.5,0,0,1,.439.26l6.5,11.892a.5.5,0,0,1-.67.683l-4.191-2.181-1.686,2.116a.5.5,0,0,1-.343.186Zm-2.714-3.312a.5.5,0,0,1,.324.119l2.321,1.977,1.62-2.033a.5.5,0,0,1,.622-.132l3.1,1.613-5.272-9.648-4.891,8.948,1.988-.808A.516.516,0,0,1,996.515,154.263Z" fill="#37474f"/>
        </g>
      </g>
    </g>
  </g>
</svg>
