<svg xmlns="http://www.w3.org/2000/svg" width="68.093" height="84.305" viewBox="0 0 68.093 84.305">
  <g id="content" transform="translate(-910.677 -293.18)">
    <g id="Group_439" data-name="Group 439">
      <g id="Group_438" data-name="Group 438">
        <circle id="Ellipse_62" data-name="Ellipse 62" cx="30.576" cy="30.576" r="30.576" transform="translate(910.677 293.18)" fill="#ffa44a"/>
      </g>
    </g>
    <g id="Group_455" data-name="Group 455">
      <g id="Group_452" data-name="Group 452">
        <g id="Group_449" data-name="Group 449">
          <g id="Group_442" data-name="Group 442">
            <g id="Group_440" data-name="Group 440">
              <path id="Path_201" data-name="Path 201" d="M929.636,361.543a.493.493,0,0,0,.421.231.484.484,0,0,0,.217-.051.489.489,0,0,0,.2-.183c.568-.919,1.167-1.9,1.732-2.845h-4.337C928.448,359.642,929.057,360.623,929.636,361.543Z" fill="#ebeff2"/>
            </g>
            <g id="Group_441" data-name="Group 441">
              <path id="Path_202" data-name="Path 202" d="M930.052,362.274a1,1,0,0,1-.838-.464h0c-.581-.923-1.192-1.907-1.77-2.855a.5.5,0,0,1,.428-.76h4.337a.5.5,0,0,1,.429.757c-.567.947-1.166,1.93-1.735,2.851a1.016,1.016,0,0,1-.405.368A.916.916,0,0,1,930.052,362.274Zm-1.288-3.079c.43.7.87,1.4,1.293,2.076.413-.669.844-1.375,1.268-2.076Z" fill="#37474f"/>
            </g>
          </g>
          <g id="Group_445" data-name="Group 445">
            <g id="Group_443" data-name="Group 443">
              <path id="Path_203" data-name="Path 203" d="M934.761,307.4a1.618,1.618,0,0,0-1.619-1.621l-6.266,0a1.653,1.653,0,0,0-1.621,1.621l.012,46.423a25.441,25.441,0,0,0,2.6,4.864h4.337a25.786,25.786,0,0,0,2.565-4.868Z" fill="#fff"/>
            </g>
            <g id="Group_444" data-name="Group 444">
              <path id="Path_204" data-name="Path 204" d="M932.209,359.2h-4.337a.5.5,0,0,1-.427-.24c-2.68-4.4-2.679-4.873-2.678-5.125l-.012-46.422a2.153,2.153,0,0,1,2.119-2.12l6.268,0a2.119,2.119,0,0,1,2.12,2.123l.012,46.42c0,.249,0,.713-2.635,5.125A.5.5,0,0,1,932.209,359.2Zm-4.056-1h3.772c2.107-3.542,2.333-4.253,2.35-4.386l-.013-46.4v0a1.1,1.1,0,0,0-.326-.789,1.116,1.116,0,0,0-.795-.33l-6.265,0a1.152,1.152,0,0,0-1.121,1.12l.012,46.423C925.784,353.948,926.014,354.663,928.153,358.2Z" fill="#37474f"/>
            </g>
          </g>
          <g id="Group_448" data-name="Group 448">
            <g id="Group_446" data-name="Group 446">
              <path id="Path_205" data-name="Path 205" d="M934.774,311.308l-.013-3.9a1.618,1.618,0,0,0-1.619-1.621l-6.266,0a1.653,1.653,0,0,0-1.621,1.621l.012,3.9Z" fill="#ebeff2"/>
            </g>
            <g id="Group_447" data-name="Group 447">
              <path id="Path_206" data-name="Path 206" d="M925.267,311.813a.5.5,0,0,1-.5-.5l-.012-3.9a2.154,2.154,0,0,1,2.119-2.122l6.268,0a2.119,2.119,0,0,1,2.12,2.124l.012,3.9a.5.5,0,0,1-.5.5l-9.507,0Zm7.874-5.529-6.265,0a1.152,1.152,0,0,0-1.121,1.12l.01,3.4,8.508,0-.011-3.4a1.1,1.1,0,0,0-.326-.793A1.116,1.116,0,0,0,933.141,306.284Z" fill="#37474f"/>
            </g>
          </g>
        </g>
        <g id="Group_451" data-name="Group 451">
          <g id="Group_450" data-name="Group 450">
            <path id="Path_207" data-name="Path 207" d="M925.984,354.472a.493.493,0,0,1-.348-.142.5.5,0,0,1-.01-.707L927.7,351.5a.5.5,0,0,1,.707-.01l1.68,1.637,1.718-1.765a.5.5,0,0,1,.707-.009l2.039,1.985a.5.5,0,1,1-.7.717l-1.681-1.637-1.719,1.765a.5.5,0,0,1-.351.151h-.007a.5.5,0,0,1-.349-.142l-1.679-1.636-1.72,1.764A.5.5,0,0,1,925.984,354.472Z" fill="#37474f"/>
          </g>
        </g>
      </g>
      <g id="Group_454" data-name="Group 454">
        <g id="Group_453" data-name="Group 453">
          <path id="Path_208" data-name="Path 208" d="M927.872,350.334a.5.5,0,0,1-.5-.5V314.229a.5.5,0,0,1,1,0v35.605A.5.5,0,0,1,927.872,350.334Z" fill="#37474f"/>
        </g>
      </g>
    </g>
    <g id="Group_457" data-name="Group 457">
      <g id="Group_456" data-name="Group 456">
        <path id="Path_209" data-name="Path 209" d="M970.711,306.5h-3a.5.5,0,0,1,0-1h3a.5.5,0,0,1,0,1Zm-6,0h-10a.5.5,0,0,1,0-1h10a.5.5,0,0,1,0,1Zm-13,0h-3a.5.5,0,0,1,0-1h3a.5.5,0,0,1,0,1Z" fill="#37474f"/>
      </g>
    </g>
    <g id="Group_459" data-name="Group 459">
      <g id="Group_458" data-name="Group 458">
        <path id="Path_210" data-name="Path 210" d="M952.18,313.19h-3.469a.5.5,0,0,1,0-1h3.469a.5.5,0,0,1,0,1Z" fill="#37474f"/>
      </g>
    </g>
    <g id="Group_461" data-name="Group 461">
      <g id="Group_460" data-name="Group 460">
        <path id="Path_211" data-name="Path 211" d="M978.27,313.19H956.336a.5.5,0,0,1,0-1H978.27a.5.5,0,0,1,0,1Z" fill="#37474f"/>
      </g>
    </g>
    <g id="Group_482" data-name="Group 482">
      <g id="Group_464" data-name="Group 464">
        <g id="Group_462" data-name="Group 462">
          <path id="Path_212" data-name="Path 212" d="M959.164,365.949h8.16c-.38-12.977,9.321-14.742,9.246-26.649a16.794,16.794,0,0,0-16.794-16.794h-.132A16.791,16.791,0,0,0,942.853,339.3c-.078,11.907,9.623,13.672,9.242,26.649h7.069Z" fill="#fff"/>
        </g>
        <g id="Group_463" data-name="Group 463">
          <path id="Path_213" data-name="Path 213" d="M967.324,366.449H952.095a.5.5,0,0,1-.5-.515c.192-6.522-2.262-10.2-4.635-13.751-2.285-3.421-4.646-6.958-4.608-12.887a17.312,17.312,0,0,1,17.292-17.291h.132A17.314,17.314,0,0,1,977.07,339.3c.037,5.926-2.325,9.463-4.609,12.884-2.373,3.554-4.829,7.229-4.637,13.751a.5.5,0,0,1-.5.515Zm-8.159-1h7.649c-.061-6.521,2.417-10.231,4.815-13.821,2.3-3.448,4.476-6.7,4.441-12.326a16.314,16.314,0,0,0-16.294-16.3h-.132A16.312,16.312,0,0,0,943.352,339.3c-.036,5.626,2.138,8.882,4.44,12.329,2.4,3.591,4.875,7.3,4.813,13.821Z" fill="#37474f"/>
        </g>
      </g>
      <g id="Group_469" data-name="Group 469">
        <g id="Group_466" data-name="Group 466">
          <g id="Group_465" data-name="Group 465">
            <path id="Path_214" data-name="Path 214" d="M957.6,363.5a.5.5,0,0,1-.5-.457c-.011-.127-1.131-12.731-4.594-17.923a.5.5,0,1,1,.832-.555c3.605,5.406,4.713,17.864,4.758,18.392a.5.5,0,0,1-.455.541Z" fill="#37474f"/>
          </g>
        </g>
        <g id="Group_468" data-name="Group 468">
          <g id="Group_467" data-name="Group 467">
            <path id="Path_215" data-name="Path 215" d="M961.821,363.5l-.044,0a.5.5,0,0,1-.455-.541c.045-.528,1.153-12.986,4.756-18.392a.5.5,0,1,1,.832.555c-3.462,5.194-4.581,17.8-4.592,17.923A.5.5,0,0,1,961.821,363.5Z" fill="#37474f"/>
          </g>
        </g>
      </g>
      <g id="Group_474" data-name="Group 474">
        <g id="Group_471" data-name="Group 471">
          <g id="Group_470" data-name="Group 470">
            <path id="Path_216" data-name="Path 216" d="M955,346.444c-1.67,0-3.169-2.116-3.341-2.367a.5.5,0,0,1,.825-.566c.367.534,1.649,2.047,2.614,1.928a1.148,1.148,0,0,0,.761-.479,6.691,6.691,0,0,1-1.231-1.414c-.948-1.456-1.317-3.231-.878-4.22a1.419,1.419,0,0,1,1.989-.647c1.383.592,2.772,2.777,1.536,5.781q-.047.114-.1.222a4.825,4.825,0,0,0,2.538.687.5.5,0,0,1,0,1,5.8,5.8,0,0,1-3.048-.823,2.117,2.117,0,0,1-1.466.888A1.993,1.993,0,0,1,955,346.444Zm0-6.929a.34.34,0,0,0-.336.216,4.245,4.245,0,0,0,.8,3.27,5.677,5.677,0,0,0,.891,1.061c.955-2.34-.038-4.046-1.013-4.463A.9.9,0,0,0,955,339.515Z" fill="#37474f"/>
          </g>
        </g>
        <g id="Group_473" data-name="Group 473">
          <g id="Group_472" data-name="Group 472">
            <path id="Path_217" data-name="Path 217" d="M964.423,346.444a1.987,1.987,0,0,1-.2-.01,2.12,2.12,0,0,1-1.466-.888,5.8,5.8,0,0,1-3.047.823.5.5,0,0,1,0-1,4.821,4.821,0,0,0,2.537-.687c-.032-.072-.065-.146-.1-.222-1.235-3,.156-5.188,1.538-5.78a1.419,1.419,0,0,1,1.99.645c.439.989.069,2.763-.879,4.219a6.65,6.65,0,0,1-1.233,1.416,1.148,1.148,0,0,0,.761.479c.97.12,2.247-1.394,2.613-1.927a.5.5,0,0,1,.825.565C967.592,344.328,966.094,346.444,964.423,346.444Zm0-6.929a.9.9,0,0,0-.346.084c-.975.417-1.968,2.123-1.015,4.463a5.73,5.73,0,0,0,.9-1.063,4.246,4.246,0,0,0,.8-3.269A.341.341,0,0,0,964.427,339.515Z" fill="#37474f"/>
          </g>
        </g>
      </g>
      <g id="Group_477" data-name="Group 477">
        <g id="Group_475" data-name="Group 475">
          <path id="Path_218" data-name="Path 218" d="M950.969,363.789v5.569c0,2.194,1.621,4.115,4.057,5.212v1.236a1.18,1.18,0,0,0,1.179,1.179h7.011a1.181,1.181,0,0,0,1.182-1.179V374.57c2.436-1.1,4.057-3.018,4.057-5.212v-5.569Z" fill="#ebeff2"/>
        </g>
        <g id="Group_476" data-name="Group 476">
          <path id="Path_219" data-name="Path 219" d="M963.215,377.485h-7.009a1.682,1.682,0,0,1-1.68-1.679v-.919c-2.547-1.244-4.057-3.292-4.057-5.529v-5.569a.5.5,0,0,1,.5-.5h17.486a.5.5,0,0,1,.5.5v5.569c0,2.237-1.51,4.285-4.057,5.529v.919A1.683,1.683,0,0,1,963.215,377.485Zm-11.746-13.2v5.069c0,1.917,1.407,3.7,3.762,4.756a.5.5,0,0,1,.295.456v1.236a.68.68,0,0,0,.68.679h7.009a.682.682,0,0,0,.683-.679V374.57a.5.5,0,0,1,.295-.456c2.355-1.061,3.762-2.839,3.762-4.756v-5.069Z" fill="#37474f"/>
        </g>
      </g>
      <g id="Group_479" data-name="Group 479">
        <g id="Group_478" data-name="Group 478">
          <path id="Path_220" data-name="Path 220" d="M965.3,367.561h-11.19a.5.5,0,0,1,0-1H965.3a.5.5,0,0,1,0,1Z" fill="#37474f"/>
        </g>
      </g>
      <g id="Group_481" data-name="Group 481">
        <g id="Group_480" data-name="Group 480">
          <path id="Path_221" data-name="Path 221" d="M965.3,370.541H956.8a.5.5,0,0,1,0-1H965.3a.5.5,0,0,1,0,1Z" fill="#37474f"/>
        </g>
      </g>
    </g>
  </g>
</svg>
