<svg xmlns="http://www.w3.org/2000/svg" width="82.253" height="93.821" viewBox="0 0 82.253 93.821">
  <g id="designed-profiles" transform="translate(-896.645 -461.3)">
    <g id="Group_607" data-name="Group 607">
      <g id="Group_606" data-name="Group 606">
        <circle id="Ellipse_68" data-name="Ellipse 68" cx="30.577" cy="30.577" r="30.577" transform="translate(896.645 527.245) rotate(-80.87)" fill="#ffa44a"/>
      </g>
    </g>
    <g id="Group_635" data-name="Group 635">
      <g id="Group_616" data-name="Group 616">
        <g id="Group_610" data-name="Group 610">
          <g id="Group_608" data-name="Group 608">
            <rect id="Rectangle_62" data-name="Rectangle 62" width="52.843" height="35.912" rx="3.216" transform="translate(925.555 512.125)" fill="#fff"/>
          </g>
          <g id="Group_609" data-name="Group 609">
            <path id="Path_277" data-name="Path 277" d="M975.182,548.537H928.77a3.72,3.72,0,0,1-3.715-3.716V515.34a3.72,3.72,0,0,1,3.715-3.715h46.412a3.72,3.72,0,0,1,3.716,3.715v29.481A3.72,3.72,0,0,1,975.182,548.537ZM928.77,512.625a2.718,2.718,0,0,0-2.715,2.715v29.481a2.719,2.719,0,0,0,2.715,2.716h46.412a2.719,2.719,0,0,0,2.716-2.716V515.34a2.718,2.718,0,0,0-2.716-2.715Z" fill="#37474f"/>
          </g>
        </g>
        <g id="Group_612" data-name="Group 612">
          <g id="Group_611" data-name="Group 611">
            <path id="Path_278" data-name="Path 278" d="M978.4,543.539H925.555a.5.5,0,0,1,0-1H978.4a.5.5,0,0,1,0,1Z" fill="#37474f"/>
          </g>
        </g>
        <g id="Group_615" data-name="Group 615">
          <g id="Group_613" data-name="Group 613">
            <path id="Path_279" data-name="Path 279" d="M925.555,544.491a3.393,3.393,0,0,0,3.216,3.545h46.411a3.393,3.393,0,0,0,3.216-3.545v-1.965H925.555Z" fill="#f7f6fa"/>
          </g>
          <g id="Group_614" data-name="Group 614">
            <path id="Path_280" data-name="Path 280" d="M975.182,548.537H928.77a3.9,3.9,0,0,1-3.715-4.046v-1.965a.5.5,0,0,1,.5-.5H978.4a.5.5,0,0,1,.5.5v1.965A3.9,3.9,0,0,1,975.182,548.537Zm-49.127-5.511v1.465a2.9,2.9,0,0,0,2.715,3.046h46.412a2.9,2.9,0,0,0,2.716-3.046v-1.465Z" fill="#37474f"/>
          </g>
        </g>
      </g>
      <g id="Group_618" data-name="Group 618">
        <g id="Group_617" data-name="Group 617">
          <path id="Path_281" data-name="Path 281" d="M952.4,546.038h-.854a.5.5,0,0,1,0-1h.854a.5.5,0,0,1,0,1Z" fill="#37474f"/>
        </g>
      </g>
      <g id="Group_620" data-name="Group 620">
        <g id="Group_619" data-name="Group 619">
          <path id="Path_282" data-name="Path 282" d="M971.976,538.531H932.019a.5.5,0,0,1,0-1h39.957a.5.5,0,0,1,0,1Z" fill="#37474f"/>
        </g>
      </g>
      <g id="Group_623" data-name="Group 623">
        <g id="Group_621" data-name="Group 621">
          <rect id="Rectangle_63" data-name="Rectangle 63" width="5.413" height="14.374" transform="translate(932.019 523.423) rotate(-90)" fill="#f7f6fa"/>
        </g>
        <g id="Group_622" data-name="Group 622">
          <path id="Path_283" data-name="Path 283" d="M946.893,518.009v5.414a.5.5,0,0,1-.5.5H932.019a.5.5,0,0,1-.5-.5v-5.414a.5.5,0,0,1,.5-.5h14.374A.5.5,0,0,1,946.893,518.009Zm-1,4.914v-4.414H932.519v4.414Z" fill="#37474f"/>
        </g>
      </g>
      <g id="Group_626" data-name="Group 626">
        <g id="Group_624" data-name="Group 624">
          <rect id="Rectangle_64" data-name="Rectangle 64" width="5.413" height="14.374" transform="translate(932.019 532.787) rotate(-90)" fill="#705ca4"/>
        </g>
        <g id="Group_625" data-name="Group 625">
          <path id="Path_284" data-name="Path 284" d="M946.893,527.374v5.413a.5.5,0,0,1-.5.5H932.019a.5.5,0,0,1-.5-.5v-5.413a.5.5,0,0,1,.5-.5h14.374A.5.5,0,0,1,946.893,527.374Zm-1,4.913v-4.413H932.519v4.413Z" fill="#705ca4"/>
        </g>
      </g>
      <g id="Group_629" data-name="Group 629">
        <g id="Group_627" data-name="Group 627">
          <rect id="Rectangle_65" data-name="Rectangle 65" width="5.413" height="14.374" transform="translate(950.915 532.787) rotate(-90)" fill="#ffa44a"/>
        </g>
        <g id="Group_628" data-name="Group 628">
          <path id="Path_285" data-name="Path 285" d="M965.789,527.374v5.413a.5.5,0,0,1-.5.5H950.915a.5.5,0,0,1-.5-.5v-5.413a.5.5,0,0,1,.5-.5h14.374A.5.5,0,0,1,965.789,527.374Zm-1,4.913v-4.413H951.415v4.413Z" fill="#ffa44a"/>
        </g>
      </g>
      <g id="Group_631" data-name="Group 631">
        <g id="Group_630" data-name="Group 630">
          <path id="Path_286" data-name="Path 286" d="M958.2,555.121H944.9a.5.5,0,0,1,0-1h13.3a.5.5,0,0,1,0,1Z" fill="#37474f"/>
        </g>
      </g>
      <g id="Group_634" data-name="Group 634">
        <g id="Group_632" data-name="Group 632">
          <path id="Path_287" data-name="Path 287" d="M955.645,554.621h-8.192l.919-6.585h6.355Z" fill="#f7f6fa"/>
        </g>
        <g id="Group_633" data-name="Group 633">
          <path id="Path_288" data-name="Path 288" d="M955.645,555.121h-8.192a.5.5,0,0,1-.495-.57l.919-6.584a.5.5,0,0,1,.495-.43h6.354a.5.5,0,0,1,.5.43l.919,6.584a.5.5,0,0,1-.5.57Zm-7.618-1h7.044l-.779-5.584h-5.484Z" fill="#37474f"/>
        </g>
      </g>
    </g>
    <g id="Group_640" data-name="Group 640">
      <g id="Group_637" data-name="Group 637">
        <g id="Group_636" data-name="Group 636">
          <path id="Path_289" data-name="Path 289" d="M948.726,488.4a.5.5,0,0,1-.5-.5v-4.363a.5.5,0,0,1,1,0V487.9A.5.5,0,0,1,948.726,488.4Z" fill="#37474f"/>
        </g>
      </g>
      <g id="Group_639" data-name="Group 639">
        <g id="Group_638" data-name="Group 638">
          <path id="Path_290" data-name="Path 290" d="M950.907,486.223h-4.362a.5.5,0,0,1,0-1h4.362a.5.5,0,0,1,0,1Z" fill="#37474f"/>
        </g>
      </g>
    </g>
    <g id="Group_645" data-name="Group 645">
      <g id="Group_642" data-name="Group 642">
        <g id="Group_641" data-name="Group 641">
          <path id="Path_291" data-name="Path 291" d="M914.9,520.716a.5.5,0,0,1-.5-.5v-4.363a.5.5,0,0,1,1,0v4.363A.5.5,0,0,1,914.9,520.716Z" fill="#37474f"/>
        </g>
      </g>
      <g id="Group_644" data-name="Group 644">
        <g id="Group_643" data-name="Group 643">
          <path id="Path_292" data-name="Path 292" d="M917.081,518.535h-4.362a.5.5,0,0,1,0-1h4.362a.5.5,0,0,1,0,1Z" fill="#37474f"/>
        </g>
      </g>
    </g>
    <g id="Group_650" data-name="Group 650">
      <g id="Group_647" data-name="Group 647">
        <g id="Group_646" data-name="Group 646">
          <path id="Path_293" data-name="Path 293" d="M910.089,535.873a.5.5,0,0,1-.5-.5v-4.364a.5.5,0,0,1,1,0v4.364A.5.5,0,0,1,910.089,535.873Z" fill="#37474f"/>
        </g>
      </g>
      <g id="Group_649" data-name="Group 649">
        <g id="Group_648" data-name="Group 648">
          <path id="Path_294" data-name="Path 294" d="M912.27,533.691h-4.363a.5.5,0,0,1,0-1h4.363a.5.5,0,0,1,0,1Z" fill="#37474f"/>
        </g>
      </g>
    </g>
    <g id="Group_671" data-name="Group 671">
      <g id="Group_653" data-name="Group 653">
        <g id="Group_651" data-name="Group 651">
          <path id="Path_295" data-name="Path 295" d="M917.022,497.282H923.7c-.311-10.626,7.632-12.071,7.571-21.821a13.752,13.752,0,0,0-13.752-13.752h-.108a13.749,13.749,0,0,0-13.748,13.752c-.064,9.75,7.879,11.2,7.568,21.821h5.788Z" fill="#fff"/>
        </g>
        <g id="Group_652" data-name="Group 652">
          <path id="Path_296" data-name="Path 296" d="M923.7,497.691H911.234a.41.41,0,0,1-.41-.421c.157-5.341-1.853-8.35-3.8-11.26-1.87-2.8-3.8-5.7-3.772-10.552A14.175,14.175,0,0,1,917.415,461.3h.108a14.176,14.176,0,0,1,14.16,14.161c.031,4.852-1.9,7.748-3.774,10.549-1.943,2.91-3.953,5.919-3.8,11.26a.41.41,0,0,1-.409.421Zm-6.681-.819h6.264c-.051-5.339,1.979-8.377,3.943-11.317,1.884-2.823,3.664-5.488,3.635-10.092a13.357,13.357,0,0,0-13.341-13.344h-.108a13.356,13.356,0,0,0-13.34,13.342c-.03,4.606,1.75,7.272,3.635,10.094,1.963,2.941,3.991,5.978,3.941,11.317Z" fill="#37474f"/>
        </g>
      </g>
      <g id="Group_658" data-name="Group 658">
        <g id="Group_655" data-name="Group 655">
          <g id="Group_654" data-name="Group 654">
            <path id="Path_297" data-name="Path 297" d="M915.742,495.275a.408.408,0,0,1-.407-.374c-.009-.1-.926-10.424-3.762-14.675a.41.41,0,0,1,.682-.455c2.951,4.427,3.859,14.628,3.9,15.06a.409.409,0,0,1-.372.443Z" fill="#37474f"/>
          </g>
        </g>
        <g id="Group_657" data-name="Group 657">
          <g id="Group_656" data-name="Group 656">
            <path id="Path_298" data-name="Path 298" d="M919.2,495.275h-.036a.41.41,0,0,1-.373-.443c.037-.432.945-10.633,3.895-15.06a.41.41,0,0,1,.681.455c-2.835,4.253-3.751,14.571-3.76,14.675A.408.408,0,0,1,919.2,495.275Z" fill="#37474f"/>
          </g>
        </g>
      </g>
      <g id="Group_663" data-name="Group 663">
        <g id="Group_660" data-name="Group 660">
          <g id="Group_659" data-name="Group 659">
            <path id="Path_299" data-name="Path 299" d="M913.609,481.311c-1.368,0-2.6-1.733-2.736-1.939a.41.41,0,0,1,.676-.463c.3.437,1.35,1.676,2.14,1.579a.942.942,0,0,0,.623-.393,5.473,5.473,0,0,1-1.008-1.157,4.153,4.153,0,0,1-.719-3.456,1.163,1.163,0,0,1,1.629-.529c1.132.484,2.27,2.273,1.258,4.733-.026.062-.052.123-.079.182a3.958,3.958,0,0,0,2.078.562.41.41,0,0,1,0,.819,4.756,4.756,0,0,1-2.5-.673,1.737,1.737,0,0,1-1.2.727C913.719,481.308,913.664,481.311,913.609,481.311Zm0-5.674a.28.28,0,0,0-.276.177,3.476,3.476,0,0,0,.658,2.677,4.556,4.556,0,0,0,.73.869c.782-1.916-.031-3.312-.829-3.654A.754.754,0,0,0,913.609,475.637Z" fill="#37474f"/>
          </g>
        </g>
        <g id="Group_662" data-name="Group 662">
          <g id="Group_661" data-name="Group 661">
            <path id="Path_300" data-name="Path 300" d="M921.328,481.311c-.054,0-.109,0-.165-.008a1.739,1.739,0,0,1-1.2-.727,4.754,4.754,0,0,1-2.495.673.41.41,0,1,1,0-.819,3.954,3.954,0,0,0,2.077-.562c-.026-.059-.053-.12-.078-.182-1.012-2.46.128-4.248,1.259-4.732a1.163,1.163,0,0,1,1.63.527,4.152,4.152,0,0,1-.72,3.455,5.46,5.46,0,0,1-1.01,1.159.941.941,0,0,0,.623.393c.794.1,1.84-1.142,2.14-1.578a.409.409,0,0,1,.676.462C923.923,479.578,922.7,481.311,921.328,481.311Zm0-5.674a.754.754,0,0,0-.284.069c-.8.342-1.611,1.738-.83,3.654a4.612,4.612,0,0,0,.732-.87,3.479,3.479,0,0,0,.657-2.677A.279.279,0,0,0,921.331,475.637Z" fill="#37474f"/>
          </g>
        </g>
      </g>
      <g id="Group_666" data-name="Group 666">
        <g id="Group_664" data-name="Group 664">
          <path id="Path_301" data-name="Path 301" d="M910.312,495.513v4.56c0,1.8,1.327,3.37,3.322,4.268v1.012a.967.967,0,0,0,.965.966h5.74a.968.968,0,0,0,.968-.966v-1.012c1.995-.9,3.322-2.472,3.322-4.268v-4.56Z" fill="#f7f6fa"/>
        </g>
        <g id="Group_665" data-name="Group 665">
          <path id="Path_302" data-name="Path 302" d="M920.339,506.728H914.6a1.377,1.377,0,0,1-1.375-1.375V504.6c-2.085-1.019-3.322-2.7-3.322-4.528v-4.56a.41.41,0,0,1,.41-.41h14.317a.41.41,0,0,1,.409.41v4.56c0,1.832-1.236,3.509-3.321,4.528v.752A1.378,1.378,0,0,1,920.339,506.728Zm-9.618-10.806v4.151c0,1.57,1.151,3.026,3.08,3.894a.412.412,0,0,1,.242.374v1.012a.557.557,0,0,0,.556.556h5.74a.559.559,0,0,0,.559-.556v-1.012a.411.411,0,0,1,.241-.374c1.929-.868,3.081-2.324,3.081-3.894v-4.151Z" fill="#37474f"/>
        </g>
      </g>
      <g id="Group_668" data-name="Group 668">
        <g id="Group_667" data-name="Group 667">
          <path id="Path_303" data-name="Path 303" d="M922.048,498.6h-9.163a.41.41,0,1,1,0-.819h9.163a.41.41,0,0,1,0,.819Z" fill="#37474f"/>
        </g>
      </g>
      <g id="Group_670" data-name="Group 670">
        <g id="Group_669" data-name="Group 669">
          <path id="Path_304" data-name="Path 304" d="M922.048,501.042h-6.966a.41.41,0,0,1,0-.819h6.966a.41.41,0,0,1,0,.819Z" fill="#37474f"/>
        </g>
      </g>
    </g>
  </g>
</svg>
