<svg xmlns="http://www.w3.org/2000/svg" width="78.047" height="84.128" viewBox="0 0 78.047 84.128">
  <g id="designed-posts" transform="translate(-189 -340.157)">
    <g id="Group_674" data-name="Group 674">
      <g id="Group_673" data-name="Group 673">
        <circle id="Ellipse_69" data-name="Ellipse 69" cx="30.577" cy="30.577" r="30.577" transform="translate(189 340.157)" fill="#ffa44a"/>
      </g>
    </g>
    <g id="Group_711" data-name="Group 711">
      <g id="Group_686" data-name="Group 686">
        <g id="Group_676" data-name="Group 676">
          <g id="Group_675" data-name="Group 675">
            <path id="Path_305" data-name="Path 305" d="M216.135,421.461l-17.519-1.143V388.269a1.046,1.046,0,0,1,1.047-1.047h45.655a1.045,1.045,0,0,1,1.047,1.047v32.049Z" fill="#fff"/>
          </g>
        </g>
        <g id="Group_678" data-name="Group 678">
          <g id="Group_677" data-name="Group 677">
            <path id="Path_306" data-name="Path 306" d="M246.365,420.818a.5.5,0,0,1-.5-.5V388.269a.547.547,0,0,0-.547-.547H199.663a.547.547,0,0,0-.547.547v32.049a.5.5,0,0,1-1,0V388.269a1.549,1.549,0,0,1,1.547-1.547h45.655a1.549,1.549,0,0,1,1.547,1.547v32.049A.5.5,0,0,1,246.365,420.818Z" fill="#37474f"/>
          </g>
        </g>
        <g id="Group_681" data-name="Group 681">
          <g id="Group_679" data-name="Group 679">
            <path id="Rectangle_66" data-name="Rectangle 66" d="M.93,0H41.482a.929.929,0,0,1,.929.929V26.687a.93.93,0,0,1-.93.93H.929A.929.929,0,0,1,0,26.687V.93A.93.93,0,0,1,.93,0Z" transform="translate(201.285 389.958)" fill="#fff"/>
          </g>
          <g id="Group_680" data-name="Group 680">
            <path id="Path_307" data-name="Path 307" d="M242.767,418.075H202.214a1.431,1.431,0,0,1-1.429-1.43V390.889a1.432,1.432,0,0,1,1.429-1.431h40.553a1.432,1.432,0,0,1,1.429,1.431v25.756A1.431,1.431,0,0,1,242.767,418.075Zm-40.553-27.617a.43.43,0,0,0-.429.431v25.756a.43.43,0,0,0,.429.43h40.553a.43.43,0,0,0,.429-.43V390.889a.431.431,0,0,0-.429-.431Z" fill="#37474f"/>
          </g>
        </g>
        <g id="Group_685" data-name="Group 685">
          <g id="Group_684" data-name="Group 684">
            <g id="Group_682" data-name="Group 682">
              <path id="Path_308" data-name="Path 308" d="M231.167,420.318a2.78,2.78,0,0,1-2.221,1.115H216.035a2.781,2.781,0,0,1-2.221-1.115H189.742l1.369,2.344a2.4,2.4,0,0,0,2.031,1.124h58.7a2.4,2.4,0,0,0,2.03-1.124l1.369-2.344Z" fill="#fff"/>
            </g>
            <g id="Group_683" data-name="Group 683">
              <path id="Path_309" data-name="Path 309" d="M251.84,424.285h-58.7a2.883,2.883,0,0,1-2.455-1.357l-1.377-2.358a.5.5,0,0,1,.432-.752h24.073a.5.5,0,0,1,.4.2,2.294,2.294,0,0,0,1.821.916h12.911a2.3,2.3,0,0,0,1.822-.916.5.5,0,0,1,.4-.2H255.24a.5.5,0,0,1,.431.752l-1.369,2.344A2.888,2.888,0,0,1,251.84,424.285Zm-61.227-3.467.929,1.592a1.881,1.881,0,0,0,1.6.875h58.7a1.884,1.884,0,0,0,1.606-.888l.923-1.579H231.4a3.3,3.3,0,0,1-2.458,1.116H216.035a3.294,3.294,0,0,1-2.457-1.116Z" fill="#37474f"/>
            </g>
          </g>
        </g>
      </g>
      <g id="Group_693" data-name="Group 693">
        <g id="Group_689" data-name="Group 689">
          <g id="Group_687" data-name="Group 687">
            <circle id="Ellipse_70" data-name="Ellipse 70" cx="6.058" cy="6.058" r="6.058" transform="translate(216.312 395.935)" fill="#f7f6fa"/>
          </g>
          <g id="Group_688" data-name="Group 688">
            <path id="Path_310" data-name="Path 310" d="M222.37,408.551a6.558,6.558,0,1,1,6.558-6.558A6.566,6.566,0,0,1,222.37,408.551Zm0-12.116a5.558,5.558,0,1,0,5.558,5.558A5.564,5.564,0,0,0,222.37,396.435Z" fill="#37474f"/>
          </g>
        </g>
        <g id="Group_692" data-name="Group 692">
          <g id="Group_690" data-name="Group 690">
            <path id="Path_311" data-name="Path 311" d="M233.027,417.5H211.714v-2.814a4.7,4.7,0,0,1,4.7-4.7h11.907a4.7,4.7,0,0,1,4.7,4.7Z" fill="#f7f6fa"/>
          </g>
          <g id="Group_691" data-name="Group 691">
            <path id="Path_312" data-name="Path 312" d="M233.027,418H211.714a.5.5,0,0,1-.5-.5V414.69a5.209,5.209,0,0,1,5.2-5.2h11.907a5.209,5.209,0,0,1,5.2,5.2V417.5A.5.5,0,0,1,233.027,418Zm-20.813-1h20.313V414.69a4.209,4.209,0,0,0-4.2-4.2H216.417a4.208,4.208,0,0,0-4.2,4.2Z" fill="#37474f"/>
          </g>
        </g>
      </g>
      <g id="Group_695" data-name="Group 695">
        <g id="Group_694" data-name="Group 694">
          <rect id="Rectangle_67" data-name="Rectangle 67" width="1" height="1.761" transform="translate(216.035 415.471)" fill="#37474f"/>
        </g>
      </g>
      <g id="Group_696" data-name="Group 696">
        <rect id="Rectangle_68" data-name="Rectangle 68" width="1" height="1.761" transform="translate(227.928 415.471)" fill="#37474f"/>
      </g>
      <g id="Group_698" data-name="Group 698">
        <g id="Group_697" data-name="Group 697">
          <path id="Path_313" data-name="Path 313" d="M249.837,395.14a.5.5,0,0,1-.26-.927,7.033,7.033,0,1,0-9.489-9.94.5.5,0,0,1-.829-.56A8.033,8.033,0,1,1,250.1,395.066.494.494,0,0,1,249.837,395.14Z" fill="#37474f"/>
        </g>
      </g>
      <g id="Group_700" data-name="Group 700">
        <g id="Group_699" data-name="Group 699">
          <path id="Path_314" data-name="Path 314" d="M255.326,398.77a.5.5,0,0,1-.342-.866,13.278,13.278,0,0,0-5.484-22.487.5.5,0,0,1,.27-.963,14.279,14.279,0,0,1,5.9,24.181A.5.5,0,0,1,255.326,398.77Z" fill="#37474f"/>
        </g>
      </g>
      <g id="Group_702" data-name="Group 702">
        <g id="Group_701" data-name="Group 701">
          <path id="Path_315" data-name="Path 315" d="M238.943,376.823a.5.5,0,0,1-.254-.93,14.256,14.256,0,0,1,7.23-1.964.5.5,0,0,1,0,1,13.269,13.269,0,0,0-6.723,1.825A.5.5,0,0,1,238.943,376.823Z" fill="#37474f"/>
        </g>
      </g>
      <g id="Group_704" data-name="Group 704">
        <g id="Group_703" data-name="Group 703">
          <path id="Path_316" data-name="Path 316" d="M233.325,383.114a.488.488,0,0,1-.2-.043.5.5,0,0,1-.254-.66,14.251,14.251,0,0,1,2.579-3.909.5.5,0,0,1,.734.68,13.236,13.236,0,0,0-2.4,3.635A.5.5,0,0,1,233.325,383.114Z" fill="#37474f"/>
        </g>
      </g>
      <g id="Group_706" data-name="Group 706">
        <g id="Group_705" data-name="Group 705">
          <path id="Path_317" data-name="Path 317" d="M249.635,409a.5.5,0,0,1-.089-.992,19.9,19.9,0,0,0,3.313-.9.5.5,0,0,1,.345.94,21.1,21.1,0,0,1-3.479.948A.557.557,0,0,1,249.635,409Z" fill="#37474f"/>
        </g>
      </g>
      <g id="Group_708" data-name="Group 708">
        <g id="Group_707" data-name="Group 707">
          <path id="Path_318" data-name="Path 318" d="M256.508,406.411a.5.5,0,0,1-.257-.929,20.136,20.136,0,0,0-14.68-36.935.5.5,0,1,1-.215-.976,21.132,21.132,0,0,1,15.409,38.769A.489.489,0,0,1,256.508,406.411Z" fill="#37474f"/>
        </g>
      </g>
      <g id="Group_710" data-name="Group 710">
        <g id="Group_709" data-name="Group 709">
          <path id="Path_319" data-name="Path 319" d="M231.85,373.619a.5.5,0,0,1-.341-.865,21.083,21.083,0,0,1,6.16-4.006.5.5,0,0,1,.391.921,20.136,20.136,0,0,0-5.87,3.815A.5.5,0,0,1,231.85,373.619Z" fill="#37474f"/>
        </g>
      </g>
    </g>
    <g id="Group_720" data-name="Group 720">
      <g id="Group_715" data-name="Group 715">
        <g id="Group_714" data-name="Group 714">
          <g id="Group_712" data-name="Group 712">
            <path id="Path_320" data-name="Path 320" d="M233.824,375.721a1.043,1.043,0,0,1-1.043,1.044H214.624l-3.041,5.2-3.161-5.2h-2.05a1.043,1.043,0,0,1-1.043-1.044V358.942a1.043,1.043,0,0,1,1.043-1.043h26.409a1.043,1.043,0,0,1,1.043,1.043Z" fill="#fff"/>
          </g>
          <g id="Group_713" data-name="Group 713">
            <path id="Path_321" data-name="Path 321" d="M211.583,382.47a.5.5,0,0,1-.427-.241l-3.015-4.964h-1.769a1.545,1.545,0,0,1-1.543-1.543V358.941a1.544,1.544,0,0,1,1.543-1.542h26.409a1.544,1.544,0,0,1,1.543,1.542v16.781a1.545,1.545,0,0,1-1.543,1.543h-17.87l-2.9,4.957a.5.5,0,0,1-.428.248ZM206.372,358.4a.543.543,0,0,0-.543.542v16.781a.544.544,0,0,0,.543.543h2.05a.5.5,0,0,1,.427.24l2.726,4.488,2.617-4.48a.5.5,0,0,1,.432-.248h18.157a.543.543,0,0,0,.543-.543V358.941a.543.543,0,0,0-.543-.542Z" fill="#37474f"/>
          </g>
        </g>
      </g>
      <g id="Group_717" data-name="Group 717">
        <g id="Group_716" data-name="Group 716">
          <path id="Path_322" data-name="Path 322" d="M226.98,365.24h-14.4a.5.5,0,0,1,0-1h14.4a.5.5,0,0,1,0,1Z" fill="#37474f"/>
        </g>
      </g>
      <g id="Group_719" data-name="Group 719">
        <g id="Group_718" data-name="Group 718">
          <path id="Path_323" data-name="Path 323" d="M226.98,370.735h-14.4a.5.5,0,0,1,0-1h14.4a.5.5,0,0,1,0,1Z" fill="#37474f"/>
        </g>
      </g>
    </g>
  </g>
</svg>
