<svg xmlns="http://www.w3.org/2000/svg" width="78.409" height="84.128" viewBox="0 0 78.409 84.128">
  <g id="reporting" transform="translate(-57.454 -340.157)">
    <g id="Group_357" data-name="Group 357">
      <g id="Group_356" data-name="Group 356">
        <circle id="Ellipse_59" data-name="Ellipse 59" cx="30.577" cy="30.577" r="30.577" transform="translate(65.298 340.157)" fill="#ffa44a"/>
      </g>
    </g>
    <g id="Group_383" data-name="Group 383">
      <g id="Group_362" data-name="Group 362">
        <g id="Group_359" data-name="Group 359">
          <g id="Group_358" data-name="Group 358">
            <path id="Path_165" data-name="Path 165" d="M117.415,377.269a.484.484,0,0,1-.135-.019.5.5,0,0,1-.347-.616,21.876,21.876,0,0,0-.366-12.755c-2.877-8.747-10.706-14.755-19.023-14.538a.473.473,0,0,1-.511-.489.5.5,0,0,1,.488-.511c8.762-.2,16.982,6.063,20,15.226A22.876,22.876,0,0,1,117.9,376.9.5.5,0,0,1,117.415,377.269Z" fill="#282828"/>
          </g>
        </g>
        <g id="Group_361" data-name="Group 361">
          <g id="Group_360" data-name="Group 360">
            <path id="Path_166" data-name="Path 166" d="M110.176,387.78a.5.5,0,0,1-.288-.909A17.224,17.224,0,0,0,112.116,385a.5.5,0,1,1,.706.707,18.075,18.075,0,0,1-2.359,1.985A.5.5,0,0,1,110.176,387.78Zm3.628-3.415a.5.5,0,0,1-.389-.813,18.681,18.681,0,0,0,1.891-2.862.5.5,0,1,1,.881.473,19.781,19.781,0,0,1-1.993,3.016A.5.5,0,0,1,113.8,384.365Z" fill="#282828"/>
          </g>
        </g>
      </g>
      <g id="Group_367" data-name="Group 367">
        <g id="Group_364" data-name="Group 364">
          <g id="Group_363" data-name="Group 363">
            <path id="Path_167" data-name="Path 167" d="M98.067,355.958a.436.436,0,0,1-.072-.005,13.3,13.3,0,0,0-2.349-.131.49.49,0,0,1-.517-.482.5.5,0,0,1,.483-.517,14,14,0,0,1,2.527.14.5.5,0,0,1-.072.995Z" fill="#282828"/>
          </g>
        </g>
        <g id="Group_366" data-name="Group 366">
          <g id="Group_365" data-name="Group 365">
            <path id="Path_168" data-name="Path 168" d="M104.8,383.693a.5.5,0,0,1-.283-.912,14.626,14.626,0,0,0,5.212-16.652,15.112,15.112,0,0,0-8.093-9.115.5.5,0,1,1,.409-.913,16.116,16.116,0,0,1,8.634,9.716,15.626,15.626,0,0,1-5.6,17.788A.489.489,0,0,1,104.8,383.693Z" fill="#282828"/>
          </g>
        </g>
      </g>
      <g id="Group_371" data-name="Group 371">
        <g id="Group_370" data-name="Group 370">
          <g id="Group_368" data-name="Group 368">
            <path id="Path_169" data-name="Path 169" d="M100,377.237A8.06,8.06,0,0,0,95.3,362.965Z" fill="#e0e1e2"/>
          </g>
          <g id="Group_369" data-name="Group 369">
            <path id="Path_170" data-name="Path 170" d="M100,377.737a.538.538,0,0,1-.158-.025.5.5,0,0,1-.318-.318l-4.693-14.272a.5.5,0,0,1,.464-.657,8.559,8.559,0,0,1,4.993,15.182A.508.508,0,0,1,100,377.737ZM96,363.49l4.246,12.91A7.648,7.648,0,0,0,96,363.49Z" fill="#282828"/>
          </g>
        </g>
      </g>
      <g id="Group_374" data-name="Group 374">
        <g id="Group_372" data-name="Group 372">
          <path id="Path_171" data-name="Path 171" d="M91.61,351.74,74.246,369.688l4.814,14.638,24.627,4.137Z" fill="#fff"/>
        </g>
        <g id="Group_373" data-name="Group 373">
          <path id="Path_172" data-name="Path 172" d="M103.688,388.963a.457.457,0,0,1-.083-.007l-24.628-4.137a.5.5,0,0,1-.392-.337L73.77,369.844a.5.5,0,0,1,.116-.5L91.25,351.392a.5.5,0,0,1,.834.192l12.079,36.723a.5.5,0,0,1-.475.656Zm-24.247-5.08,23.513,3.95-11.561-35.15L74.815,369.818Z" fill="#282828"/>
        </g>
      </g>
      <g id="Group_376" data-name="Group 376">
        <g id="Group_375" data-name="Group 375">
          <path id="Path_173" data-name="Path 173" d="M77.768,371.243a.5.5,0,0,1-.36-.847l12.625-13.051a.5.5,0,0,1,.719.7L78.127,371.091A.5.5,0,0,1,77.768,371.243Z" fill="#282828"/>
        </g>
      </g>
      <g id="Group_379" data-name="Group 379">
        <g id="Group_377" data-name="Group 377">
          <path id="Path_174" data-name="Path 174" d="M65.991,387.87,70.607,401.9a1.238,1.238,0,0,0,1.589.736l5.33-1.82a1.33,1.33,0,0,0,.843-1.535L76.25,384.537Z" fill="#fff"/>
        </g>
        <g id="Group_378" data-name="Group 378">
          <path id="Path_175" data-name="Path 175" d="M71.767,403.21a1.786,1.786,0,0,1-.75-.165,1.641,1.641,0,0,1-.885-.984l-4.616-14.035a.5.5,0,0,1,.029-.382.493.493,0,0,1,.292-.249L76.1,384.061a.5.5,0,0,1,.65.4l2.118,14.749a1.824,1.824,0,0,1-1.182,2.081l-5.325,1.818A1.883,1.883,0,0,1,71.767,403.21Zm-5.144-15.02,4.459,13.559a.653.653,0,0,0,.355.389.816.816,0,0,0,.6.028l5.325-1.818c.146-.048.573-.189.507-1.022L75.84,385.2Z" fill="#282828"/>
        </g>
      </g>
      <g id="Group_382" data-name="Group 382">
        <g id="Group_380" data-name="Group 380">
          <path id="Path_176" data-name="Path 176" d="M74.278,369.935,58.882,375a1.345,1.345,0,0,0-.859,1.7l3.834,11.66a1.347,1.347,0,0,0,1.7.86L79,384.142Z" fill="#f7f6fa"/>
        </g>
        <g id="Group_381" data-name="Group 381">
          <path id="Path_177" data-name="Path 177" d="M63.141,389.789a1.853,1.853,0,0,1-1.759-1.271l-3.835-11.661a1.851,1.851,0,0,1,1.179-2.333l15.4-5.064a.5.5,0,0,1,.631.317l4.722,14.207a.5.5,0,0,1-.318.632L63.715,389.7A1.824,1.824,0,0,1,63.141,389.789ZM73.96,370.565l-14.922,4.909a.849.849,0,0,0-.54,1.071l3.835,11.66a.852.852,0,0,0,1.07.542l14.964-4.924Z" fill="#282828"/>
        </g>
      </g>
    </g>
    <g id="Group_385" data-name="Group 385">
      <g id="Group_384" data-name="Group 384">
        <path id="Path_178" data-name="Path 178" d="M87.932,424.285a.5.5,0,0,1-.372-.834L98.943,410.79a.5.5,0,0,1,.695-.048l9.062,7.671,6.47-10.3a.5.5,0,0,1,.318-.223.517.517,0,0,1,.383.073l5.781,3.85,10.621-15.663a.5.5,0,0,1,.828.56L122.2,412.78a.5.5,0,0,1-.692.136l-5.766-3.84-6.5,10.357a.5.5,0,0,1-.747.116l-9.131-7.73L88.3,424.119A.5.5,0,0,1,87.932,424.285Z" fill="#282828"/>
      </g>
    </g>
    <g id="Group_387" data-name="Group 387">
      <g id="Group_386" data-name="Group 386">
        <path id="Path_179" data-name="Path 179" d="M135.363,424.285H87.382a.5.5,0,0,1-.5-.5V403.333a.5.5,0,0,1,1,0v19.952h47.481a.5.5,0,0,1,0,1Z" fill="#282828"/>
      </g>
    </g>
    <g id="Group_390" data-name="Group 390">
      <g id="Group_388" data-name="Group 388">
        <path id="Path_180" data-name="Path 180" d="M101.814,411.124a2.5,2.5,0,1,1-2.5-2.5A2.5,2.5,0,0,1,101.814,411.124Z" fill="#e0e1e2"/>
      </g>
      <g id="Group_389" data-name="Group 389">
        <path id="Path_181" data-name="Path 181" d="M99.315,414.123a3,3,0,1,1,3-3A3,3,0,0,1,99.315,414.123Zm0-5a2,2,0,1,0,2,2A2,2,0,0,0,99.315,409.125Z" fill="#282828"/>
      </g>
    </g>
    <g id="Group_393" data-name="Group 393">
      <g id="Group_391" data-name="Group 391">
        <circle id="Ellipse_60" data-name="Ellipse 60" cx="2.499" cy="2.499" r="2.499" transform="translate(113.094 405.876)" fill="#e0e1e2"/>
      </g>
      <g id="Group_392" data-name="Group 392">
        <path id="Path_182" data-name="Path 182" d="M115.593,411.374a3,3,0,1,1,3-3A3,3,0,0,1,115.593,411.374Zm0-5a2,2,0,1,0,2,2A2,2,0,0,0,115.593,406.376Z" fill="#282828"/>
      </g>
    </g>
  </g>
</svg>
