<svg xmlns="http://www.w3.org/2000/svg" width="86.484" height="96.578" viewBox="0 0 86.484 96.578">
  <g id="results" transform="translate(-447.144 -147.83)">
    <g id="Group_485" data-name="Group 485">
      <g id="Group_484" data-name="Group 484">
        <circle id="Ellipse_63" data-name="Ellipse 63" cx="30.577" cy="30.577" r="30.577" transform="translate(447.144 191.072) rotate(-45)" fill="#ffa44a"/>
      </g>
    </g>
    <g id="Group_487" data-name="Group 487">
      <g id="Group_486" data-name="Group 486">
        <path id="Path_222" data-name="Path 222" d="M490.386,228.765a.5.5,0,0,1,0-1,35.9,35.9,0,0,0,23.391-8.663.5.5,0,0,1,.653.759A36.916,36.916,0,0,1,490.386,228.765Z" fill="#37474f"/>
      </g>
    </g>
    <g id="Group_489" data-name="Group 489">
      <g id="Group_488" data-name="Group 488">
        <path id="Path_223" data-name="Path 223" d="M490.386,235.1a.5.5,0,0,1,0-1,42.224,42.224,0,0,0,21.244-5.721.5.5,0,0,1,.5.864A43.227,43.227,0,0,1,490.386,235.1Z" fill="#37474f"/>
      </g>
    </g>
    <g id="Group_491" data-name="Group 491">
      <g id="Group_490" data-name="Group 490">
        <path id="Path_224" data-name="Path 224" d="M518.232,224.792a.5.5,0,0,1-.326-.879,42.524,42.524,0,0,0,6.37-6.823.5.5,0,1,1,.8.6,43.594,43.594,0,0,1-6.518,6.984A.5.5,0,0,1,518.232,224.792Z" fill="#37474f"/>
      </g>
    </g>
    <g id="Group_507" data-name="Group 507">
      <g id="Group_494" data-name="Group 494">
        <g id="Group_492" data-name="Group 492">
          <path id="Path_225" data-name="Path 225" d="M477.917,232.6v-2.427l-5.109-1.774s.449-5.79.729-9.525c11.016-9.149,9.875-25.95,9.875-25.95H458.178s-1.141,16.8,9.875,25.95c.28,3.735.729,9.525.729,9.525l-5.109,1.774V232.6Z" fill="#f7f6fa"/>
        </g>
        <g id="Group_493" data-name="Group 493">
          <path id="Path_226" data-name="Path 226" d="M477.917,233.1H463.673a.5.5,0,0,1-.5-.5v-2.427a.5.5,0,0,1,.336-.472l4.745-1.647c-.1-1.324-.447-5.782-.684-8.932-10.911-9.236-9.9-26.062-9.891-26.232a.5.5,0,0,1,.5-.466h25.234a.5.5,0,0,1,.5.466c.012.17,1.02,17-9.892,26.232-.236,3.15-.581,7.608-.683,8.932l4.745,1.647a.5.5,0,0,1,.336.472V232.6A.5.5,0,0,1,477.917,233.1Zm-13.744-1h13.244v-1.571l-4.773-1.657a.5.5,0,0,1-.334-.511s.448-5.79.728-9.524a.5.5,0,0,1,.18-.347c9.674-8.035,9.787-22.311,9.714-25.066H458.658c-.073,2.755.04,17.031,9.714,25.066a.5.5,0,0,1,.18.347c.28,3.734.728,9.524.728,9.524a.5.5,0,0,1-.334.511l-4.773,1.657Z" fill="#37474f"/>
        </g>
      </g>
      <g id="Group_496" data-name="Group 496">
        <g id="Group_495" data-name="Group 495">
          <path id="Path_227" data-name="Path 227" d="M483.31,241.5H458.279a.5.5,0,0,1-.5-.5v-8.4a.5.5,0,0,1,.5-.5H483.31a.5.5,0,0,1,.5.5V241A.5.5,0,0,1,483.31,241.5Zm-24.531-1H482.81v-7.4H458.779Z" fill="#37474f"/>
        </g>
      </g>
      <g id="Group_498" data-name="Group 498">
        <g id="Group_497" data-name="Group 497">
          <path id="Path_228" data-name="Path 228" d="M486.2,244.408H455.392a.5.5,0,0,1-.5-.5V241a.5.5,0,0,1,.5-.5H486.2a.5.5,0,0,1,.5.5v2.906A.5.5,0,0,1,486.2,244.408Zm-30.306-1H485.7V241.5H455.892Z" fill="#37474f"/>
        </g>
      </g>
      <g id="Group_503" data-name="Group 503">
        <g id="Group_500" data-name="Group 500">
          <g id="Group_499" data-name="Group 499">
            <path id="Path_229" data-name="Path 229" d="M461.47,210.576a.506.506,0,0,1-.148-.022c-12.08-3.728-11.309-14.506-11.3-14.615a.5.5,0,0,1,.5-.458h7.4a.5.5,0,0,1,0,1H451c-.017,2.025.575,10.019,10.615,13.118a.5.5,0,0,1-.147.977Z" fill="#37474f"/>
          </g>
        </g>
        <g id="Group_502" data-name="Group 502">
          <g id="Group_501" data-name="Group 501">
            <path id="Path_230" data-name="Path 230" d="M480.12,210.576a.5.5,0,0,1-.147-.977c9.921-3.063,10.6-11.11,10.61-13.118h-6.916a.5.5,0,0,1,0-1h7.4a.5.5,0,0,1,.5.459c.01.108.78,10.886-11.3,14.614A.506.506,0,0,1,480.12,210.576Z" fill="#37474f"/>
          </g>
        </g>
      </g>
      <g id="Group_506" data-name="Group 506">
        <g id="Group_504" data-name="Group 504">
          <path id="Path_231" data-name="Path 231" d="M470.8,206.821l-3.743,1.968.715-4.168-3.028-2.951,4.184-.608,1.871-3.792,1.871,3.792,4.184.608-3.028,2.951.715,4.168Z" fill="#fff"/>
        </g>
        <g id="Group_505" data-name="Group 505">
          <path id="Path_232" data-name="Path 232" d="M474.538,209.289a.49.49,0,0,1-.232-.058l-3.511-1.845-3.51,1.845a.5.5,0,0,1-.725-.527l.67-3.909-2.839-2.768a.5.5,0,0,1,.276-.852l3.925-.57,1.755-3.557a.52.52,0,0,1,.9,0L473,200.6l3.925.57a.5.5,0,0,1,.276.852l-2.839,2.768.671,3.909a.5.5,0,0,1-.493.585Zm-3.743-2.968a.5.5,0,0,1,.232.057l2.847,1.5-.544-3.169a.5.5,0,0,1,.145-.442l2.3-2.244-3.182-.463a.5.5,0,0,1-.376-.273L470.8,198.4l-1.423,2.884a.5.5,0,0,1-.376.273l-3.183.463,2.3,2.244a.5.5,0,0,1,.145.442l-.544,3.169,2.845-1.5A.5.5,0,0,1,470.8,206.321Z" fill="#37474f"/>
        </g>
      </g>
    </g>
    <g id="Group_512" data-name="Group 512">
      <g id="Group_509" data-name="Group 509">
        <g id="Group_508" data-name="Group 508">
          <path id="Path_233" data-name="Path 233" d="M474.388,188.782a.5.5,0,0,1-.5-.5v-4.363a.5.5,0,0,1,1,0v4.363A.5.5,0,0,1,474.388,188.782Z" fill="#37474f"/>
        </g>
      </g>
      <g id="Group_511" data-name="Group 511">
        <g id="Group_510" data-name="Group 510">
          <path id="Path_234" data-name="Path 234" d="M476.568,186.6h-4.362a.5.5,0,0,1,0-1h4.362a.5.5,0,0,1,0,1Z" fill="#37474f"/>
        </g>
      </g>
    </g>
    <g id="Group_517" data-name="Group 517">
      <g id="Group_514" data-name="Group 514">
        <g id="Group_513" data-name="Group 513">
          <path id="Path_235" data-name="Path 235" d="M493.394,176.083a.5.5,0,0,1-.5-.5V171.22a.5.5,0,0,1,1,0v4.363A.5.5,0,0,1,493.394,176.083Z" fill="#37474f"/>
        </g>
      </g>
      <g id="Group_516" data-name="Group 516">
        <g id="Group_515" data-name="Group 515">
          <path id="Path_236" data-name="Path 236" d="M495.575,173.9h-4.362a.5.5,0,0,1,0-1h4.362a.5.5,0,0,1,0,1Z" fill="#37474f"/>
        </g>
      </g>
    </g>
    <g id="Group_522" data-name="Group 522">
      <g id="Group_519" data-name="Group 519">
        <g id="Group_518" data-name="Group 518">
          <path id="Path_237" data-name="Path 237" d="M530.627,196.885a.5.5,0,0,1-.5-.5v-4.363a.5.5,0,0,1,1,0v4.363A.5.5,0,0,1,530.627,196.885Z" fill="#37474f"/>
        </g>
      </g>
      <g id="Group_521" data-name="Group 521">
        <g id="Group_520" data-name="Group 520">
          <path id="Path_238" data-name="Path 238" d="M532.808,194.7h-4.363a.5.5,0,0,1,0-1h4.363a.5.5,0,0,1,0,1Z" fill="#37474f"/>
        </g>
      </g>
    </g>
    <g id="Group_536" data-name="Group 536">
      <path id="Path_239" data-name="Path 239" d="M502.561,194.7l6.171,3.3,2.849,5.194-6.346,11.568L502,208.184l-7.284.807,7.843-14.3,6.171,3.3,9.2,16.763,3.233-6.576,7.284.807L520.6,194.7Z" fill="#fff"/>
      <g id="Group_527" data-name="Group 527">
        <g id="Group_524" data-name="Group 524">
          <g id="Group_523" data-name="Group 523">
            <path id="Path_240" data-name="Path 240" d="M517.928,215.261a.5.5,0,0,1-.439-.26l-9.2-16.762a.5.5,0,1,1,.877-.481l8.732,15.919,2.81-5.713a.5.5,0,0,1,.5-.276l6.328.7-7.379-13.452a.5.5,0,0,1,.877-.48l7.842,14.3a.5.5,0,0,1-.493.737l-6.936-.768-3.079,6.261a.5.5,0,0,1-.438.28Z" fill="#37474f"/>
          </g>
        </g>
        <g id="Group_526" data-name="Group 526">
          <g id="Group_525" data-name="Group 525">
            <path id="Path_241" data-name="Path 241" d="M505.235,215.261h-.01a.5.5,0,0,1-.438-.28l-3.079-6.261-6.936.768a.507.507,0,0,1-.47-.219.5.5,0,0,1-.023-.518l7.843-14.3a.5.5,0,0,1,.675-.2l6.172,3.3a.5.5,0,0,1,.2.2l2.848,5.194a.5.5,0,0,1,0,.481L505.674,215A.5.5,0,0,1,505.235,215.261ZM502,207.685a.5.5,0,0,1,.448.279l2.81,5.713,5.751-10.485-2.646-4.823-5.6-3-7.142,13.018,6.328-.7A.338.338,0,0,1,502,207.685Z" fill="#37474f"/>
          </g>
        </g>
      </g>
      <g id="Group_530" data-name="Group 530">
        <g id="Group_528" data-name="Group 528">
          <circle id="Ellipse_64" data-name="Ellipse 64" cx="13.094" cy="13.094" r="13.094" transform="translate(498.487 172.118)" fill="#fff"/>
        </g>
        <g id="Group_529" data-name="Group 529">
          <path id="Path_242" data-name="Path 242" d="M511.581,198.807a13.595,13.595,0,1,1,13.6-13.6A13.61,13.61,0,0,1,511.581,198.807Zm0-26.189a12.595,12.595,0,1,0,12.6,12.594A12.609,12.609,0,0,0,511.581,172.618Z" fill="#37474f"/>
        </g>
      </g>
      <g id="Group_533" data-name="Group 533">
        <g id="Group_531" data-name="Group 531">
          <circle id="Ellipse_65" data-name="Ellipse 65" cx="9.036" cy="9.036" r="9.036" transform="translate(501.219 192.689) rotate(-80.809)" fill="#f7f6fa"/>
        </g>
        <g id="Group_532" data-name="Group 532">
          <path id="Path_243" data-name="Path 243" d="M511.581,194.748a9.535,9.535,0,1,1,9.536-9.536A9.546,9.546,0,0,1,511.581,194.748Zm0-18.071a8.535,8.535,0,1,0,8.536,8.535A8.544,8.544,0,0,0,511.581,176.677Z" fill="#37474f"/>
        </g>
      </g>
      <g id="Group_535" data-name="Group 535">
        <g id="Group_534" data-name="Group 534">
          <path id="Path_244" data-name="Path 244" d="M515.218,172.855a.5.5,0,0,1-.5-.5V171.3a1.984,1.984,0,0,0-1.982-1.982h-2.309a1.984,1.984,0,0,0-1.982,1.982v1.058a.5.5,0,1,1-1,0V171.3a2.986,2.986,0,0,1,2.982-2.982h2.309a2.986,2.986,0,0,1,2.982,2.982v1.058A.5.5,0,0,1,515.218,172.855Z" fill="#37474f"/>
        </g>
      </g>
    </g>
  </g>
</svg>
