<svg xmlns="http://www.w3.org/2000/svg" width="83.521" height="89.632" viewBox="0 0 83.521 89.632">
  <g id="stress-free" transform="translate(-182.979 -504.474)">
    <g id="Group_396" data-name="Group 396">
      <g id="Group_395" data-name="Group 395">
        <circle id="Ellipse_61" data-name="Ellipse 61" cx="30.577" cy="30.577" r="30.577" transform="translate(182.979 564.103) rotate(-77.183)" fill="#ffa44a"/>
      </g>
    </g>
    <g id="Group_419" data-name="Group 419">
      <g id="Group_413" data-name="Group 413">
        <g id="Group_399" data-name="Group 399">
          <g id="Group_397" data-name="Group 397">
            <path id="Path_183" data-name="Path 183" d="M260.207,582.767V555.1a5.515,5.515,0,0,0-5.515-5.515H229.746a5.515,5.515,0,0,0-5.515,5.515v27.663Z" fill="#fff"/>
          </g>
          <g id="Group_398" data-name="Group 398">
            <path id="Path_184" data-name="Path 184" d="M260.206,583.267H224.231a.5.5,0,0,1-.5-.5V555.1a6.022,6.022,0,0,1,6.015-6.014h24.946a6.02,6.02,0,0,1,6.014,6.014v27.664A.5.5,0,0,1,260.206,583.267Zm-35.475-1h34.975V555.1a5.02,5.02,0,0,0-5.014-5.014H229.746a5.021,5.021,0,0,0-5.015,5.014Z" fill="#37474f"/>
          </g>
        </g>
        <g id="Group_402" data-name="Group 402">
          <g id="Group_400" data-name="Group 400">
            <path id="Path_185" data-name="Path 185" d="M228.9,581.5v-4.7a5.712,5.712,0,0,1,5.695-5.694h15.254a5.712,5.712,0,0,1,5.7,5.694v4.7Z" fill="#f7f6fa"/>
          </g>
          <g id="Group_401" data-name="Group 401">
            <path id="Path_186" data-name="Path 186" d="M255.54,582H228.9a.5.5,0,0,1-.5-.5V576.8a6.2,6.2,0,0,1,6.195-6.2h15.254a6.2,6.2,0,0,1,6.194,6.2V581.5A.5.5,0,0,1,255.54,582ZM229.4,581H255.04V576.8a5.2,5.2,0,0,0-5.194-5.2H234.592a5.2,5.2,0,0,0-5.195,5.2Z" fill="#37474f"/>
          </g>
        </g>
        <g id="Group_405" data-name="Group 405">
          <g id="Group_403" data-name="Group 403">
            <path id="Path_187" data-name="Path 187" d="M255.56,580.688v-9.5a5.235,5.235,0,0,1,5.22-5.22h0a5.235,5.235,0,0,1,5.22,5.22v19.337H218.438V571.185a5.235,5.235,0,0,1,5.22-5.22h0a5.235,5.235,0,0,1,5.22,5.22v9.5Z" fill="#fff"/>
          </g>
          <g id="Group_404" data-name="Group 404">
            <path id="Path_188" data-name="Path 188" d="M266,591.022H218.438a.5.5,0,0,1-.5-.5V571.185a5.72,5.72,0,0,1,11.44,0v9H255.06v-9a5.72,5.72,0,0,1,11.44,0v19.337A.5.5,0,0,1,266,591.022Zm-47.062-1H265.5V571.185a4.72,4.72,0,0,0-9.44,0v9.5a.5.5,0,0,1-.5.5H228.878a.5.5,0,0,1-.5-.5v-9.5a4.72,4.72,0,0,0-9.44,0Z" fill="#37474f"/>
          </g>
        </g>
        <g id="Group_407" data-name="Group 407">
          <g id="Group_406" data-name="Group 406">
            <path id="Path_189" data-name="Path 189" d="M262.666,587.125H226.02a.5.5,0,0,1,0-1h36.646a.5.5,0,0,1,0,1Z" fill="#37474f"/>
          </g>
        </g>
        <g id="Group_412" data-name="Group 412">
          <g id="Group_409" data-name="Group 409">
            <g id="Group_408" data-name="Group 408">
              <path id="Path_190" data-name="Path 190" d="M224.231,594.106a.5.5,0,0,1-.5-.5v-3.084a.5.5,0,0,1,1,0v3.084A.5.5,0,0,1,224.231,594.106Z" fill="#37474f"/>
            </g>
          </g>
          <g id="Group_411" data-name="Group 411">
            <g id="Group_410" data-name="Group 410">
              <path id="Path_191" data-name="Path 191" d="M260.206,594.106a.5.5,0,0,1-.5-.5v-3.084a.5.5,0,0,1,1,0v3.084A.5.5,0,0,1,260.206,594.106Z" fill="#37474f"/>
            </g>
          </g>
        </g>
      </g>
      <g id="Group_418" data-name="Group 418">
        <g id="Group_415" data-name="Group 415">
          <g id="Group_414" data-name="Group 414">
            <path id="Path_192" data-name="Path 192" d="M242.219,562.614a.5.5,0,0,1-.5-.5v-4.057a.5.5,0,0,1,1,0v4.057A.5.5,0,0,1,242.219,562.614Z" fill="#37474f"/>
          </g>
        </g>
        <g id="Group_417" data-name="Group 417">
          <g id="Group_416" data-name="Group 416">
            <path id="Path_193" data-name="Path 193" d="M244.248,560.586H240.19a.5.5,0,1,1,0-1h4.058a.5.5,0,0,1,0,1Z" fill="#37474f"/>
          </g>
        </g>
      </g>
    </g>
    <g id="Group_430" data-name="Group 430">
      <g id="Group_421" data-name="Group 421">
        <g id="Group_420" data-name="Group 420">
          <path id="Path_194" data-name="Path 194" d="M217.448,551.944a.5.5,0,0,1-.183-.965l4.184-1.648c1.474-.659,3.866-1.727,3.866-5.271V539.6a3.421,3.421,0,0,0-4.761-3.149l-2.91,1.238a.5.5,0,1,1-.392-.919l2.911-1.239a4.421,4.421,0,0,1,6.152,4.069v4.458c0,4.194-2.981,5.524-4.414,6.164l-4.27,1.685A.472.472,0,0,1,217.448,551.944Z" fill="#37474f"/>
        </g>
      </g>
      <g id="Group_424" data-name="Group 424">
        <g id="Group_422" data-name="Group 422">
          <path id="Rectangle_58" data-name="Rectangle 58" d="M0,0H22.8a0,0,0,0,1,0,0V18.053A10.058,10.058,0,0,1,12.741,28.111H10.058A10.058,10.058,0,0,1,0,18.053V0A0,0,0,0,1,0,0Z" transform="translate(195.136 532.459)" fill="#fff"/>
        </g>
        <g id="Group_423" data-name="Group 423">
          <path id="Path_195" data-name="Path 195" d="M207.877,561.07h-2.683a10.57,10.57,0,0,1-10.558-10.557V532.46a.5.5,0,0,1,.5-.5h22.8a.5.5,0,0,1,.5.5v18.053A10.57,10.57,0,0,1,207.877,561.07Zm-12.241-28.11v17.553a9.568,9.568,0,0,0,9.558,9.557h2.683a9.568,9.568,0,0,0,9.558-9.557V532.96Z" fill="#37474f"/>
        </g>
      </g>
      <g id="Group_427" data-name="Group 427">
        <g id="Group_425" data-name="Group 425">
          <rect id="Rectangle_59" data-name="Rectangle 59" width="22.799" height="4.439" transform="translate(195.136 537.234)" fill="#ebeff2"/>
        </g>
        <g id="Group_426" data-name="Group 426">
          <path id="Path_196" data-name="Path 196" d="M217.935,542.173h-22.8a.5.5,0,0,1-.5-.5v-4.44a.5.5,0,0,1,.5-.5h22.8a.5.5,0,0,1,.5.5v4.44A.5.5,0,0,1,217.935,542.173Zm-22.3-1h21.8v-3.44h-21.8Z" fill="#37474f"/>
        </g>
      </g>
      <g id="Group_429" data-name="Group 429">
        <g id="Group_428" data-name="Group 428">
          <path id="Path_197" data-name="Path 197" d="M202.391,558.643a.5.5,0,0,1-.279-.086c-.962-.65-4.1-3.081-4.1-7.113V535.2a.5.5,0,0,1,1,0v16.244a7.945,7.945,0,0,0,3.657,6.284.5.5,0,0,1-.28.915Z" fill="#37474f"/>
        </g>
      </g>
    </g>
    <g id="Group_432" data-name="Group 432">
      <g id="Group_431" data-name="Group 431">
        <path id="Path_198" data-name="Path 198" d="M228.939,531.06a6.834,6.834,0,0,1-5.265-2.75,5.549,5.549,0,0,0-4.176-2.3c-2.542,0-4.505,2.277-4.525,2.3a.5.5,0,0,1-.763-.646c.093-.108,2.288-2.653,5.288-2.653a6.491,6.491,0,0,1,4.938,2.653,5.848,5.848,0,0,0,4.777,2.39,7.5,7.5,0,0,0,4.716-2.319.487.487,0,0,1,.663-.209.513.513,0,0,1,.215.685,8.236,8.236,0,0,1-5.1,2.8A6.419,6.419,0,0,1,228.939,531.06Z" fill="#37474f"/>
      </g>
    </g>
    <g id="Group_434" data-name="Group 434">
      <g id="Group_433" data-name="Group 433">
        <path id="Path_199" data-name="Path 199" d="M229.146,525.453a7.139,7.139,0,0,1-4.433-1.645.5.5,0,0,1,.615-.789,5.957,5.957,0,0,0,4.712,1.362,6.988,6.988,0,0,0,3.887-2.074.487.487,0,0,1,.664-.21.511.511,0,0,1,.216.683,7.49,7.49,0,0,1-4.154,2.5A6.749,6.749,0,0,1,229.146,525.453Z" fill="#37474f"/>
      </g>
    </g>
    <g id="Group_436" data-name="Group 436">
      <g id="Group_435" data-name="Group 435">
        <path id="Path_200" data-name="Path 200" d="M206.166,528.535a.49.49,0,0,1-.275-.083.5.5,0,0,1-.142-.692,25.109,25.109,0,0,1,1.892-2.426.5.5,0,1,1,.753.658,24.527,24.527,0,0,0-1.81,2.318A.5.5,0,0,1,206.166,528.535Zm3.223-3.833a.5.5,0,0,1-.351-.855c2.112-2.086,5.388-4.573,9-4.573a.52.52,0,0,1,.523.5.48.48,0,0,1-.477.5c-3.316,0-6.362,2.329-8.341,4.284A.5.5,0,0,1,209.389,524.7Zm12.909-3.1a.5.5,0,0,1-.275-.082,8.212,8.212,0,0,0-1.228-.669.5.5,0,0,1,.4-.917,9.178,9.178,0,0,1,1.38.751.5.5,0,0,1-.275.917Z" fill="#37474f"/>
      </g>
    </g>
  </g>
</svg>
