<svg xmlns="http://www.w3.org/2000/svg" width="72.037" height="71.959" viewBox="0 0 72.037 71.959">
  <g id="Awareness" transform="translate(-1102.296 -176.844)">
    <g id="Group_1220" data-name="Group 1220">
      <g id="Group_1219" data-name="Group 1219">
        <circle id="Ellipse_96" data-name="Ellipse 96" cx="30.577" cy="30.577" r="30.577" transform="matrix(0.196, -0.981, 0.981, 0.196, 1102.296, 236.81)" fill="#ffa44a"/>
      </g>
    </g>
    <g id="Group_1241" data-name="Group 1241">
      <g id="Group_1222" data-name="Group 1222">
        <g id="Group_1221" data-name="Group 1221">
          <path id="Path_545" data-name="Path 545" d="M1132.1,228.42l-17.52-1.143v-32.05a1.047,1.047,0,0,1,1.047-1.047h45.656a1.046,1.046,0,0,1,1.046,1.047v32.05Z" fill="#fff"/>
        </g>
      </g>
      <g id="Group_1224" data-name="Group 1224">
        <g id="Group_1223" data-name="Group 1223">
          <path id="Path_546" data-name="Path 546" d="M1162.331,227.777a.5.5,0,0,1-.5-.5v-32.05a.547.547,0,0,0-.546-.547h-45.656a.548.548,0,0,0-.547.547v32.05a.5.5,0,0,1-1,0v-32.05a1.549,1.549,0,0,1,1.547-1.547h45.656a1.548,1.548,0,0,1,1.546,1.547v32.05A.5.5,0,0,1,1162.331,227.777Z" fill="#3a3a3a"/>
        </g>
      </g>
      <g id="Group_1227" data-name="Group 1227">
        <g id="Group_1225" data-name="Group 1225">
          <path id="Rectangle_109" data-name="Rectangle 109" d="M.93,0H41.482a.929.929,0,0,1,.929.929V26.687a.93.93,0,0,1-.93.93H.929A.929.929,0,0,1,0,26.687V.93A.93.93,0,0,1,.93,0Z" transform="translate(1117.251 196.916)" fill="#fff"/>
        </g>
        <g id="Group_1226" data-name="Group 1226">
          <path id="Path_547" data-name="Path 547" d="M1158.733,225.033h-40.552a1.432,1.432,0,0,1-1.43-1.43V197.847a1.432,1.432,0,0,1,1.43-1.431h40.552a1.432,1.432,0,0,1,1.43,1.431V223.6A1.432,1.432,0,0,1,1158.733,225.033Zm-40.552-27.617a.431.431,0,0,0-.43.431V223.6a.431.431,0,0,0,.43.43h40.552a.431.431,0,0,0,.43-.43V197.847a.431.431,0,0,0-.43-.431Z" fill="#3a3a3a"/>
        </g>
      </g>
      <g id="Group_1231" data-name="Group 1231">
        <g id="Group_1230" data-name="Group 1230">
          <g id="Group_1228" data-name="Group 1228">
            <path id="Path_548" data-name="Path 548" d="M1147.133,227.277a2.778,2.778,0,0,1-2.22,1.115H1132a2.778,2.778,0,0,1-2.22-1.115h-24.073l1.369,2.344a2.4,2.4,0,0,0,2.031,1.123h58.7a2.4,2.4,0,0,0,2.031-1.123l1.369-2.344Z" fill="#fff"/>
          </g>
          <g id="Group_1229" data-name="Group 1229">
            <path id="Path_549" data-name="Path 549" d="M1167.806,231.243h-58.7a2.881,2.881,0,0,1-2.455-1.357l-1.377-2.357a.5.5,0,0,1,.432-.752h24.073a.5.5,0,0,1,.4.2,2.3,2.3,0,0,0,1.821.916h12.912a2.3,2.3,0,0,0,1.821-.916.5.5,0,0,1,.4-.2h24.073a.5.5,0,0,1,.432.752l-1.37,2.343A2.884,2.884,0,0,1,1167.806,231.243Zm-61.227-3.466.93,1.591a1.881,1.881,0,0,0,1.6.875h58.7a1.887,1.887,0,0,0,1.607-.888l.922-1.578H1147.37a3.3,3.3,0,0,1-2.457,1.115H1132a3.3,3.3,0,0,1-2.457-1.115Z" fill="#3a3a3a"/>
          </g>
        </g>
      </g>
      <g id="Group_1234" data-name="Group 1234">
        <g id="Group_1232" data-name="Group 1232">
          <path id="Path_550" data-name="Path 550" d="M1124.992,221.153l6.853-12.539,6.853,12.539Z" fill="#fff"/>
        </g>
        <g id="Group_1233" data-name="Group 1233">
          <path id="Path_551" data-name="Path 551" d="M1138.7,221.482h-13.706a.331.331,0,0,1-.284-.162.328.328,0,0,1-.005-.325l6.853-12.54a.343.343,0,0,1,.578,0l6.853,12.54a.33.33,0,0,1-.289.487Zm-13.151-.659h12.6l-6.3-11.523Z" fill="#3a3a3a"/>
        </g>
      </g>
      <g id="Group_1237" data-name="Group 1237">
        <g id="Group_1235" data-name="Group 1235">
          <path id="Path_552" data-name="Path 552" d="M1129.069,221.153l11.426-20.906,11.426,20.906Z" fill="#ebeff2"/>
        </g>
        <g id="Group_1236" data-name="Group 1236">
          <path id="Path_553" data-name="Path 553" d="M1151.921,221.482h-22.852a.33.33,0,0,1-.289-.487l11.426-20.907a.343.343,0,0,1,.578,0l11.426,20.907a.33.33,0,0,1-.289.487Zm-22.3-.659h21.742l-10.871-19.891Z" fill="#3a3a3a"/>
        </g>
      </g>
      <g id="Group_1240" data-name="Group 1240">
        <g id="Group_1238" data-name="Group 1238">
          <path id="Path_554" data-name="Path 554" d="M1144.774,208.076l-4.279-7.829-3.952,7.23,2.165-.88,1.787,1.522,1.279-1.6Z" fill="#fff"/>
        </g>
        <g id="Group_1239" data-name="Group 1239">
          <path id="Path_555" data-name="Path 555" d="M1140.495,208.448a.325.325,0,0,1-.213-.078l-1.635-1.393-1.98.8a.33.33,0,0,1-.413-.463l3.952-7.231a.329.329,0,0,1,.289-.171h0a.329.329,0,0,1,.289.171l4.279,7.83a.329.329,0,0,1-.441.449l-2.76-1.435-1.109,1.392a.334.334,0,0,1-.226.123Zm-1.787-2.18a.334.334,0,0,1,.214.078l1.528,1.3,1.066-1.339a.33.33,0,0,1,.41-.086l2.04,1.061-3.471-6.352-3.22,5.892,1.309-.532A.334.334,0,0,1,1138.708,206.268Z" fill="#3a3a3a"/>
        </g>
      </g>
    </g>
    <g id="Group_1243" data-name="Group 1243">
      <g id="Group_1242" data-name="Group 1242">
        <path id="Path_556" data-name="Path 556" d="M1103.055,195.262a.5.5,0,0,1,.005-.473,36.833,36.833,0,0,1,9.018-10.827.5.5,0,1,1,.632.775,35.835,35.835,0,0,0-8.774,10.534.5.5,0,0,1-.881-.009Z" fill="#3a3a3a"/>
      </g>
    </g>
    <g id="Group_1245" data-name="Group 1245">
      <g id="Group_1244" data-name="Group 1244">
        <path id="Path_557" data-name="Path 557" d="M1173.833,200.027a.5.5,0,0,1-.471-.333,36.382,36.382,0,0,0-8.747-13.681.5.5,0,0,1,.7-.714,37.392,37.392,0,0,1,8.989,14.06.5.5,0,0,1-.471.668Z" fill="#3a3a3a"/>
      </g>
    </g>
    <g id="Group_1283" data-name="Group 1283">
      <g id="Group_1270" data-name="Group 1270">
        <g id="Group_1257" data-name="Group 1257">
          <g id="Group_1248" data-name="Group 1248">
            <g id="Group_1246" data-name="Group 1246">
              <path id="Path_558" data-name="Path 558" d="M1121.905,228.054a4.9,4.9,0,1,1-4.9-4.9A4.9,4.9,0,0,1,1121.905,228.054Z" fill="#fff"/>
            </g>
            <g id="Group_1247" data-name="Group 1247">
              <path id="Path_559" data-name="Path 559" d="M1117.007,233.341a5.286,5.286,0,1,1,5.286-5.287A5.293,5.293,0,0,1,1117.007,233.341Zm0-9.8a4.51,4.51,0,1,0,4.51,4.51A4.515,4.515,0,0,0,1117.007,223.544Z" fill="#3a3a3a"/>
            </g>
          </g>
          <g id="Group_1251" data-name="Group 1251">
            <g id="Group_1249" data-name="Group 1249">
              <path id="Path_560" data-name="Path 560" d="M1125.623,243.492H1108.39V238.32a3.8,3.8,0,0,1,3.8-3.8h9.627a3.8,3.8,0,0,1,3.8,3.8Z" fill="#fff"/>
            </g>
            <g id="Group_1250" data-name="Group 1250">
              <path id="Path_561" data-name="Path 561" d="M1125.623,243.881H1108.39a.389.389,0,0,1-.388-.389V238.32a4.2,4.2,0,0,1,4.191-4.191h9.627a4.2,4.2,0,0,1,4.191,4.191v5.172A.389.389,0,0,1,1125.623,243.881Zm-16.844-.777h16.455V238.32a3.417,3.417,0,0,0-3.414-3.414h-9.627a3.417,3.417,0,0,0-3.414,3.414Z" fill="#3a3a3a"/>
            </g>
          </g>
          <g id="Group_1256" data-name="Group 1256">
            <g id="Group_1253" data-name="Group 1253">
              <g id="Group_1252" data-name="Group 1252">
                <path id="Path_562" data-name="Path 562" d="M1122.047,243.881a.389.389,0,0,1-.388-.389v-3.311a.388.388,0,0,1,.777,0v3.311A.389.389,0,0,1,1122.047,243.881Z" fill="#3a3a3a"/>
              </g>
            </g>
            <g id="Group_1255" data-name="Group 1255">
              <g id="Group_1254" data-name="Group 1254">
                <path id="Path_563" data-name="Path 563" d="M1111.965,243.881a.389.389,0,0,1-.388-.389v-3.311a.388.388,0,0,1,.777,0v3.311A.389.389,0,0,1,1111.965,243.881Z" fill="#3a3a3a"/>
              </g>
            </g>
          </g>
        </g>
        <g id="Group_1269" data-name="Group 1269">
          <g id="Group_1260" data-name="Group 1260">
            <g id="Group_1258" data-name="Group 1258">
              <circle id="Ellipse_97" data-name="Ellipse 97" cx="4.898" cy="4.898" r="4.898" transform="translate(1155.255 223.156)" fill="#fff"/>
            </g>
            <g id="Group_1259" data-name="Group 1259">
              <path id="Path_564" data-name="Path 564" d="M1160.153,233.341a5.286,5.286,0,1,1,5.286-5.287A5.293,5.293,0,0,1,1160.153,233.341Zm0-9.8a4.51,4.51,0,1,0,4.51,4.51A4.515,4.515,0,0,0,1160.153,223.544Z" fill="#3a3a3a"/>
            </g>
          </g>
          <g id="Group_1263" data-name="Group 1263">
            <g id="Group_1261" data-name="Group 1261">
              <path id="Path_565" data-name="Path 565" d="M1168.769,243.492h-17.232V238.32a3.8,3.8,0,0,1,3.8-3.8h9.628a3.8,3.8,0,0,1,3.8,3.8Z" fill="#fff"/>
            </g>
            <g id="Group_1262" data-name="Group 1262">
              <path id="Path_566" data-name="Path 566" d="M1168.769,243.881h-17.232a.389.389,0,0,1-.389-.389V238.32a4.2,4.2,0,0,1,4.191-4.191h9.628a4.2,4.2,0,0,1,4.19,4.191v5.172A.388.388,0,0,1,1168.769,243.881Zm-16.844-.777h16.456V238.32a3.418,3.418,0,0,0-3.414-3.414h-9.628a3.417,3.417,0,0,0-3.414,3.414Z" fill="#3a3a3a"/>
            </g>
          </g>
          <g id="Group_1268" data-name="Group 1268">
            <g id="Group_1265" data-name="Group 1265">
              <g id="Group_1264" data-name="Group 1264">
                <path id="Path_567" data-name="Path 567" d="M1165.194,243.881a.388.388,0,0,1-.388-.389v-3.311a.388.388,0,1,1,.776,0v3.311A.388.388,0,0,1,1165.194,243.881Z" fill="#3a3a3a"/>
              </g>
            </g>
            <g id="Group_1267" data-name="Group 1267">
              <g id="Group_1266" data-name="Group 1266">
                <path id="Path_568" data-name="Path 568" d="M1155.112,243.881a.389.389,0,0,1-.389-.389v-3.311a.388.388,0,0,1,.777,0v3.311A.389.389,0,0,1,1155.112,243.881Z" fill="#3a3a3a"/>
              </g>
            </g>
          </g>
        </g>
      </g>
      <g id="Group_1282" data-name="Group 1282">
        <g id="Group_1273" data-name="Group 1273">
          <g id="Group_1271" data-name="Group 1271">
            <path id="Path_569" data-name="Path 569" d="M1143.478,228.054a4.9,4.9,0,1,1-4.9-4.9A4.9,4.9,0,0,1,1143.478,228.054Z" fill="#e0e1e2"/>
          </g>
          <g id="Group_1272" data-name="Group 1272">
            <path id="Path_570" data-name="Path 570" d="M1138.58,233.341a5.286,5.286,0,1,1,5.286-5.287A5.293,5.293,0,0,1,1138.58,233.341Zm0-9.8a4.51,4.51,0,1,0,4.51,4.51A4.515,4.515,0,0,0,1138.58,223.544Z" fill="#3a3a3a"/>
          </g>
        </g>
        <g id="Group_1276" data-name="Group 1276">
          <g id="Group_1274" data-name="Group 1274">
            <path id="Path_571" data-name="Path 571" d="M1147.2,243.492h-17.233V238.32a3.8,3.8,0,0,1,3.8-3.8h9.627a3.8,3.8,0,0,1,3.8,3.8Z" fill="#e0e1e2"/>
          </g>
          <g id="Group_1275" data-name="Group 1275">
            <path id="Path_572" data-name="Path 572" d="M1147.2,243.881h-17.233a.389.389,0,0,1-.388-.389V238.32a4.2,4.2,0,0,1,4.191-4.191h9.627a4.2,4.2,0,0,1,4.191,4.191v5.172A.388.388,0,0,1,1147.2,243.881Zm-16.844-.777h16.456V238.32a3.418,3.418,0,0,0-3.415-3.414h-9.627a3.417,3.417,0,0,0-3.414,3.414Z" fill="#3a3a3a"/>
          </g>
        </g>
        <g id="Group_1281" data-name="Group 1281">
          <g id="Group_1278" data-name="Group 1278">
            <g id="Group_1277" data-name="Group 1277">
              <path id="Path_573" data-name="Path 573" d="M1143.621,243.881a.388.388,0,0,1-.388-.389v-3.311a.388.388,0,1,1,.776,0v3.311A.388.388,0,0,1,1143.621,243.881Z" fill="#3a3a3a"/>
            </g>
          </g>
          <g id="Group_1280" data-name="Group 1280">
            <g id="Group_1279" data-name="Group 1279">
              <path id="Path_574" data-name="Path 574" d="M1133.538,243.881a.389.389,0,0,1-.388-.389v-3.311a.388.388,0,0,1,.777,0v3.311A.389.389,0,0,1,1133.538,243.881Z" fill="#3a3a3a"/>
            </g>
          </g>
        </g>
      </g>
    </g>
  </g>
</svg>
