<svg xmlns="http://www.w3.org/2000/svg" width="80.318" height="66.542" viewBox="0 0 80.318 66.542">
  <g id="Content" transform="translate(-1223.611 -68.885)">
    <g id="Group_1077" data-name="Group 1077">
      <g id="Group_1076" data-name="Group 1076">
        <circle id="Ellipse_93" data-name="Ellipse 93" cx="30.577" cy="30.577" r="30.577" transform="translate(1226.241 74.273)" fill="#ffa44a"/>
      </g>
    </g>
    <g id="Group_1084" data-name="Group 1084">
      <g id="Group_1081" data-name="Group 1081">
        <g id="Group_1080" data-name="Group 1080">
          <g id="Group_1078" data-name="Group 1078">
            <path id="Path_476" data-name="Path 476" d="M1303.027,96.106a21.934,21.934,0,0,0,.4-2.739l-3.071-1.235a19.116,19.116,0,0,0-.271-3.886l2.931-1.372a21.547,21.547,0,0,0-.789-2.792l0-.012-3.322.12a19.135,19.135,0,0,0-1.691-3.175l2.12-2.448a21.687,21.687,0,0,0-1.955-2.35l-2.982,1.461a19.381,19.381,0,0,0-2.607-2.05l.946-3.116a22.6,22.6,0,0,0-2.841-1.43l-2.13,2.547a18.9,18.9,0,0,0-2.989-.8l-.405-3.245a21.609,21.609,0,0,0-3.262-.2l-.9,3.176a19.146,19.146,0,0,0-2.95.422l-1.693-2.813c-.529.146-1.056.3-1.575.49s-1.036.4-1.535.615l.461,3.256a19.077,19.077,0,0,0-2.551,1.531l-2.707-1.892a21.887,21.887,0,0,0-2.4,2.215l1.735,2.769a19.355,19.355,0,0,0-1.813,2.508l-3.258-.628a22.142,22.142,0,0,0-1.3,2.9l2.7,1.817a19.2,19.2,0,0,0-.723,3.235l6.211,14.586,8.654,6.47a18.894,18.894,0,0,0,4.316.411l1.076,3.1a22.237,22.237,0,0,0,2.57-.319l.222-3.258a18.432,18.432,0,0,0,4.141-1.475l2.231,2.386a21.969,21.969,0,0,0,2.2-1.38l-1.124-3.076a18.955,18.955,0,0,0,3.09-3.046l2.992,1.264a22.348,22.348,0,0,0,1.445-2.23l-2.293-2.366a19.3,19.3,0,0,0,1.463-3.89Zm-18.254,4.7a9.987,9.987,0,0,1-4.252.545l-9.592-1.753.576-9.878a10.037,10.037,0,1,1,13.268,11.086Z" fill="#ebeff2"/>
          </g>
          <g id="Group_1079" data-name="Group 1079">
            <path id="Path_477" data-name="Path 477" d="M1282.852,114.057a.5.5,0,0,1-.473-.336l-.958-2.755h-.013a19.514,19.514,0,0,1-4.052-.425.524.524,0,0,1-.195-.089l-8.655-6.47a.5.5,0,0,1-.16-.2l-6.211-14.586a.494.494,0,0,1-.035-.263,19.769,19.769,0,0,1,.632-2.962l-2.394-1.608a.5.5,0,0,1-.19-.586,22.582,22.582,0,0,1,1.33-2.972.5.5,0,0,1,.535-.255l2.92.563a19.837,19.837,0,0,1,1.441-1.993l-1.542-2.461a.5.5,0,0,1,.057-.607,22.425,22.425,0,0,1,2.456-2.265.5.5,0,0,1,.6-.02l2.421,1.693a19.53,19.53,0,0,1,2.006-1.2l-.411-2.9a.5.5,0,0,1,.3-.528c.51-.223,1.03-.436,1.568-.628s1.068-.352,1.609-.5a.5.5,0,0,1,.562.225l1.508,2.506a20.181,20.181,0,0,1,2.32-.332l.806-2.839a.5.5,0,0,1,.474-.364,21.994,21.994,0,0,1,3.338.2.5.5,0,0,1,.429.434l.359,2.883a19.469,19.469,0,0,1,2.376.635l1.908-2.283a.5.5,0,0,1,.576-.14,23.072,23.072,0,0,1,2.9,1.462.5.5,0,0,1,.223.575l-.839,2.761a19.979,19.979,0,0,1,2.109,1.66l2.675-1.311a.5.5,0,0,1,.58.1,22.24,22.24,0,0,1,2,2.4.5.5,0,0,1-.029.619l-1.874,2.165a19.681,19.681,0,0,1,1.393,2.619l2.979-.108a.509.509,0,0,1,.511.418,20.958,20.958,0,0,1,.787,2.781.5.5,0,0,1-.277.558l-2.588,1.212a19.773,19.773,0,0,1,.224,3.258l2.75,1.106a.5.5,0,0,1,.311.5,22.475,22.475,0,0,1-.411,2.8.5.5,0,0,1-.479.4l-2.866.055a19.738,19.738,0,0,1-1.245,3.3l2.048,2.114a.5.5,0,0,1,.075.594,22.509,22.509,0,0,1-1.477,2.28.5.5,0,0,1-.6.164L1296.328,104a19.525,19.525,0,0,1-2.647,2.606l1,2.738a.5.5,0,0,1-.18.58,22.568,22.568,0,0,1-2.246,1.41.5.5,0,0,1-.6-.1l-1.981-2.116c-.588.276-1.173.518-1.746.721a18.384,18.384,0,0,1-1.806.543l-.2,2.892a.5.5,0,0,1-.408.457,22.207,22.207,0,0,1-2.629.326Zm-1.076-4.094a.5.5,0,0,1,.473.335l.95,2.733c.586-.049,1.173-.121,1.751-.217l.2-2.867a.5.5,0,0,1,.387-.453,18.491,18.491,0,0,0,2.057-.6,18.728,18.728,0,0,0,1.975-.839.5.5,0,0,1,.586.107l1.964,2.1c.507-.29,1.008-.6,1.5-.94l-.992-2.715a.5.5,0,0,1,.161-.565,18.481,18.481,0,0,0,3.009-2.967.5.5,0,0,1,.584-.148l2.625,1.111c.347-.49.68-1,.995-1.537l-2.031-2.1a.5.5,0,0,1-.087-.572,18.79,18.79,0,0,0,1.425-3.789.5.5,0,0,1,.475-.377l2.841-.054c.125-.652.219-1.3.282-1.922l-2.727-1.1a.5.5,0,0,1-.313-.479,18.663,18.663,0,0,0-.263-3.785.5.5,0,0,1,.28-.539l2.568-1.2c-.159-.687-.35-1.36-.569-2.007l-2.952.107a.518.518,0,0,1-.479-.308,18.46,18.46,0,0,0-1.647-3.091.5.5,0,0,1,.039-.6l1.86-2.147a21.243,21.243,0,0,0-1.428-1.712l-2.65,1.3a.5.5,0,0,1-.561-.084,18.829,18.829,0,0,0-2.541-2,.5.5,0,0,1-.2-.564l.831-2.736a22.334,22.334,0,0,0-2.1-1.058l-1.891,2.262a.507.507,0,0,1-.552.149,18.479,18.479,0,0,0-2.911-.775.5.5,0,0,1-.406-.431l-.357-2.858a21.172,21.172,0,0,0-2.435-.15l-.8,2.816a.5.5,0,0,1-.449.362,18.853,18.853,0,0,0-2.872.412.5.5,0,0,1-.538-.23l-1.5-2.486c-.394.115-.787.238-1.174.375s-.778.294-1.155.454l.407,2.876a.5.5,0,0,1-.272.518,18.716,18.716,0,0,0-2.484,1.491.5.5,0,0,1-.576,0l-2.4-1.677a21.571,21.571,0,0,0-1.795,1.653l1.53,2.44a.5.5,0,0,1-.043.589,19.008,19.008,0,0,0-1.766,2.443.5.5,0,0,1-.523.233l-2.894-.558a21.812,21.812,0,0,0-.964,2.151l2.373,1.594a.5.5,0,0,1,.2.566,18.881,18.881,0,0,0-.684,3.017l6.1,14.335,8.458,6.323a18.958,18.958,0,0,0,4.095.378Zm-.36-8.07c-.312,0-.626-.014-.94-.042l-9.637-1.76a.5.5,0,0,1-.409-.521l.576-9.878a10.536,10.536,0,1,1,13.935,11.587h0A10.452,10.452,0,0,1,1281.416,101.893Zm-9.962-2.706,9.157,1.674a9.428,9.428,0,0,0,3.994-.523h0A9.535,9.535,0,1,0,1272,89.8Z" fill="#3a3a3a"/>
          </g>
        </g>
      </g>
      <g id="Group_1083" data-name="Group 1083">
        <g id="Group_1082" data-name="Group 1082">
          <path id="Path_478" data-name="Path 478" d="M1281.266,105.612a13.992,13.992,0,0,1-2.748-.272.494.494,0,0,1-.281-.164l-11.015-12.765a.5.5,0,0,1-.12-.3,14.177,14.177,0,1,1,14.164,13.5Zm-2.386-1.22a13.195,13.195,0,1,0-.267-25.9,13.282,13.282,0,0,0-10.52,13.394Z" fill="#3a3a3a"/>
        </g>
      </g>
    </g>
    <g id="Group_1105" data-name="Group 1105">
      <g id="Group_1096" data-name="Group 1096">
        <g id="Group_1086" data-name="Group 1086">
          <g id="Group_1085" data-name="Group 1085">
            <path id="Path_479" data-name="Path 479" d="M1250.505,122.974l-17.519-1.143V89.782a1.046,1.046,0,0,1,1.046-1.047h45.656a1.045,1.045,0,0,1,1.046,1.047v32.049Z" fill="#fff"/>
          </g>
        </g>
        <g id="Group_1088" data-name="Group 1088">
          <g id="Group_1087" data-name="Group 1087">
            <path id="Path_480" data-name="Path 480" d="M1280.735,122.331a.5.5,0,0,1-.5-.5V89.782a.548.548,0,0,0-.547-.547h-45.656a.547.547,0,0,0-.546.547v32.049a.5.5,0,0,1-1,0V89.782a1.548,1.548,0,0,1,1.546-1.547h45.656a1.549,1.549,0,0,1,1.547,1.547v32.049A.5.5,0,0,1,1280.735,122.331Z" fill="#3a3a3a"/>
          </g>
        </g>
        <g id="Group_1091" data-name="Group 1091">
          <g id="Group_1089" data-name="Group 1089">
            <path id="Rectangle_108" data-name="Rectangle 108" d="M.93,0H41.482a.929.929,0,0,1,.929.929V26.687a.93.93,0,0,1-.93.93H.929A.929.929,0,0,1,0,26.687V.93A.93.93,0,0,1,.93,0Z" transform="translate(1235.654 91.471)" fill="#fff"/>
          </g>
          <g id="Group_1090" data-name="Group 1090">
            <path id="Path_481" data-name="Path 481" d="M1277.136,119.588h-40.552a1.431,1.431,0,0,1-1.429-1.431V92.4a1.432,1.432,0,0,1,1.429-1.431h40.552a1.432,1.432,0,0,1,1.43,1.431v25.755A1.431,1.431,0,0,1,1277.136,119.588Zm-40.552-27.617a.43.43,0,0,0-.429.431v25.755a.43.43,0,0,0,.429.431h40.552a.431.431,0,0,0,.43-.431V92.4a.431.431,0,0,0-.43-.431Z" fill="#3a3a3a"/>
          </g>
        </g>
        <g id="Group_1095" data-name="Group 1095">
          <g id="Group_1094" data-name="Group 1094">
            <g id="Group_1092" data-name="Group 1092">
              <path id="Path_482" data-name="Path 482" d="M1265.536,121.831a2.778,2.778,0,0,1-2.22,1.115H1250.4a2.778,2.778,0,0,1-2.22-1.115h-24.073l1.369,2.344a2.4,2.4,0,0,0,2.031,1.124h58.7a2.4,2.4,0,0,0,2.031-1.124l1.369-2.344Z" fill="#fff"/>
            </g>
            <g id="Group_1093" data-name="Group 1093">
              <path id="Path_483" data-name="Path 483" d="M1286.209,125.8h-58.7a2.885,2.885,0,0,1-2.455-1.357l-1.377-2.358a.5.5,0,0,1,.432-.752h24.073a.5.5,0,0,1,.4.2,2.3,2.3,0,0,0,1.821.916h12.912a2.3,2.3,0,0,0,1.821-.916.5.5,0,0,1,.4-.2h24.073a.5.5,0,0,1,.432.752l-1.37,2.344A2.887,2.887,0,0,1,1286.209,125.8Zm-61.227-3.467.93,1.592a1.881,1.881,0,0,0,1.6.875h58.7a1.886,1.886,0,0,0,1.607-.889l.922-1.578h-22.965a3.3,3.3,0,0,1-2.457,1.116H1250.4a3.3,3.3,0,0,1-2.457-1.116Z" fill="#3a3a3a"/>
            </g>
          </g>
        </g>
      </g>
      <g id="Group_1098" data-name="Group 1098">
        <g id="Group_1097" data-name="Group 1097">
          <path id="Path_484" data-name="Path 484" d="M1265.968,99.123h-18.215a.5.5,0,0,1,0-1h18.215a.5.5,0,0,1,0,1Z" fill="#3a3a3a"/>
        </g>
      </g>
      <g id="Group_1100" data-name="Group 1100">
        <g id="Group_1099" data-name="Group 1099">
          <path id="Path_485" data-name="Path 485" d="M1265.968,105.323h-18.215a.5.5,0,0,1,0-1h18.215a.5.5,0,0,1,0,1Z" fill="#3a3a3a"/>
        </g>
      </g>
      <g id="Group_1102" data-name="Group 1102">
        <g id="Group_1101" data-name="Group 1101">
          <path id="Path_486" data-name="Path 486" d="M1265.968,111.524h-18.215a.5.5,0,0,1,0-1h18.215a.5.5,0,0,1,0,1Z" fill="#3a3a3a"/>
        </g>
      </g>
      <g id="Group_1104" data-name="Group 1104">
        <g id="Group_1103" data-name="Group 1103">
          <path id="Path_487" data-name="Path 487" d="M1265.968,117.725h-18.215a.5.5,0,0,1,0-1h18.215a.5.5,0,0,1,0,1Z" fill="#3a3a3a"/>
        </g>
      </g>
    </g>
    <g id="Group_1110" data-name="Group 1110">
      <g id="Group_1107" data-name="Group 1107">
        <g id="Group_1106" data-name="Group 1106">
          <path id="Path_488" data-name="Path 488" d="M1250.818,82.5a.5.5,0,0,0,.5-.5V77.635a.5.5,0,0,0-1,0V82A.5.5,0,0,0,1250.818,82.5Z" fill="#3a3a3a"/>
        </g>
      </g>
      <g id="Group_1109" data-name="Group 1109">
        <g id="Group_1108" data-name="Group 1108">
          <path id="Path_489" data-name="Path 489" d="M1248.637,80.317H1253a.5.5,0,0,0,0-1h-4.362a.5.5,0,0,0,0,1Z" fill="#3a3a3a"/>
        </g>
      </g>
    </g>
    <g id="Group_1115" data-name="Group 1115">
      <g id="Group_1112" data-name="Group 1112">
        <g id="Group_1111" data-name="Group 1111">
          <path id="Path_490" data-name="Path 490" d="M1241.195,135.406a.5.5,0,0,0,.5-.5v-4.363a.5.5,0,0,0-1,0v4.363A.5.5,0,0,0,1241.195,135.406Z" fill="#3a3a3a"/>
        </g>
      </g>
      <g id="Group_1114" data-name="Group 1114">
        <g id="Group_1113" data-name="Group 1113">
          <path id="Path_491" data-name="Path 491" d="M1239.014,133.224h4.362a.5.5,0,0,0,0-1h-4.362a.5.5,0,0,0,0,1Z" fill="#3a3a3a"/>
        </g>
      </g>
    </g>
    <g id="Group_1120" data-name="Group 1120">
      <g id="Group_1117" data-name="Group 1117">
        <g id="Group_1116" data-name="Group 1116">
          <path id="Path_492" data-name="Path 492" d="M1291.448,133.38a.5.5,0,0,0,.5-.5v-4.363a.5.5,0,0,0-1,0v4.363A.5.5,0,0,0,1291.448,133.38Z" fill="#3a3a3a"/>
        </g>
      </g>
      <g id="Group_1119" data-name="Group 1119">
        <g id="Group_1118" data-name="Group 1118">
          <path id="Path_493" data-name="Path 493" d="M1289.266,131.2h4.364a.5.5,0,0,0,0-1h-4.364a.5.5,0,0,0,0,1Z" fill="#3a3a3a"/>
        </g>
      </g>
    </g>
  </g>
</svg>
