<svg xmlns="http://www.w3.org/2000/svg" width="73.896" height="78.979" viewBox="0 0 73.896 78.979">
  <g id="Experts" transform="translate(-1222.043 -183.262)">
    <g id="Group_1286" data-name="Group 1286">
      <g id="Group_1285" data-name="Group 1285">
        <circle id="Ellipse_98" data-name="Ellipse 98" cx="30.577" cy="30.577" r="30.577" transform="translate(1222.043 243.64) rotate(-80.87)" fill="#ffa44a"/>
      </g>
    </g>
    <g id="Group_1291" data-name="Group 1291">
      <g id="Group_1288" data-name="Group 1288">
        <g id="Group_1287" data-name="Group 1287">
          <path id="Path_575" data-name="Path 575" d="M1230.754,216.275a.5.5,0,0,1-.5-.5v-4.363a.5.5,0,1,1,1,0v4.363A.5.5,0,0,1,1230.754,216.275Z" fill="#3a3a3a"/>
        </g>
      </g>
      <g id="Group_1290" data-name="Group 1290">
        <g id="Group_1289" data-name="Group 1289">
          <path id="Path_576" data-name="Path 576" d="M1232.935,214.093h-4.363a.5.5,0,0,1,0-1h4.363a.5.5,0,0,1,0,1Z" fill="#3a3a3a"/>
        </g>
      </g>
    </g>
    <g id="Group_1296" data-name="Group 1296">
      <g id="Group_1293" data-name="Group 1293">
        <g id="Group_1292" data-name="Group 1292">
          <path id="Path_577" data-name="Path 577" d="M1293.259,232.173a.5.5,0,0,1-.5-.5V227.31a.5.5,0,1,1,1,0v4.363A.5.5,0,0,1,1293.259,232.173Z" fill="#3a3a3a"/>
        </g>
      </g>
      <g id="Group_1295" data-name="Group 1295">
        <g id="Group_1294" data-name="Group 1294">
          <path id="Path_578" data-name="Path 578" d="M1295.44,229.992h-4.363a.5.5,0,0,1,0-1h4.363a.5.5,0,0,1,0,1Z" fill="#3a3a3a"/>
        </g>
      </g>
    </g>
    <g id="Group_1298" data-name="Group 1298">
      <g id="Group_1297" data-name="Group 1297">
        <path id="Path_579" data-name="Path 579" d="M1257.6,255.9a.5.5,0,0,1,0-1A35.905,35.905,0,0,0,1281,246.24a.5.5,0,1,1,.652.757A36.9,36.9,0,0,1,1257.6,255.9Z" fill="#3a3a3a"/>
      </g>
    </g>
    <g id="Group_1300" data-name="Group 1300">
      <g id="Group_1299" data-name="Group 1299">
        <path id="Path_580" data-name="Path 580" d="M1257.6,262.241a.5.5,0,0,1,0-1,42.232,42.232,0,0,0,21.245-5.721.5.5,0,1,1,.5.863A43.229,43.229,0,0,1,1257.6,262.241Z" fill="#3a3a3a"/>
      </g>
    </g>
    <g id="Group_1302" data-name="Group 1302">
      <g id="Group_1301" data-name="Group 1301">
        <path id="Path_581" data-name="Path 581" d="M1285.452,251.929a.5.5,0,0,1-.326-.879,42.563,42.563,0,0,0,6.369-6.823.5.5,0,1,1,.8.6,43.549,43.549,0,0,1-6.518,6.983A.5.5,0,0,1,1285.452,251.929Z" fill="#3a3a3a"/>
      </g>
    </g>
    <g id="Group_1318" data-name="Group 1318">
      <path id="Path_582" data-name="Path 582" d="M1240.866,236.935h37.1c-1.912,0-3.476-2.005-3.476-4.457h0c0-2.452,1.564-4.458,3.476-4.458h-37.1c-1.909,0-3.475,2.006-3.475,4.458h0c0,2.452,1.564,4.457,3.475,4.457Zm17.1-5.859h16.454m-7.544,2.8h7.685" fill="#fff" stroke="#3a3a3a" stroke-linecap="round" stroke-linejoin="round" stroke-width="1"/>
      <g id="Group_1317" data-name="Group 1317">
        <g id="Group_1305" data-name="Group 1305">
          <g id="Group_1303" data-name="Group 1303">
            <path id="Path_583" data-name="Path 583" d="M1278.761,212.682c0,3.608-8.59,6.533-19.185,6.533s-19.185-2.925-19.185-6.533v-9.907h38.37Z" fill="#ebeff2"/>
          </g>
          <g id="Group_1304" data-name="Group 1304">
            <path id="Path_584" data-name="Path 584" d="M1259.576,219.81c-9.723,0-19.78-2.666-19.78-7.128v-9.907a.594.594,0,0,1,.594-.594h38.371a.593.593,0,0,1,.594.594v9.907C1279.355,217.144,1269.3,219.81,1259.576,219.81Zm-18.591-16.44v9.312c0,2.868,7.47,5.939,18.591,5.939s18.591-3.071,18.591-5.939V203.37Z" fill="#3a3a3a"/>
          </g>
        </g>
        <g id="Group_1308" data-name="Group 1308">
          <g id="Group_1306" data-name="Group 1306">
            <path id="Path_585" data-name="Path 585" d="M1287.778,202.4l-28.881,6.47-28.88-6.47v-2.582h57.761Z" fill="#fff"/>
          </g>
          <g id="Group_1307" data-name="Group 1307">
            <path id="Path_586" data-name="Path 586" d="M1258.9,209.467a.632.632,0,0,1-.13-.014l-28.881-6.47a.6.6,0,0,1-.464-.58v-2.582a.594.594,0,0,1,.594-.594h57.761a.594.594,0,0,1,.594.594V202.4a.6.6,0,0,1-.464.58l-28.88,6.47A.63.63,0,0,1,1258.9,209.467Zm-28.286-7.54,28.286,6.336,28.285-6.336v-1.512h-56.571Z" fill="#3a3a3a"/>
          </g>
        </g>
        <g id="Group_1311" data-name="Group 1311">
          <g id="Group_1309" data-name="Group 1309">
            <path id="Path_587" data-name="Path 587" d="M1287.778,199.821l-28.881,6.47-28.88-6.47,28.88-6.471Z" fill="#fff"/>
          </g>
          <g id="Group_1310" data-name="Group 1310">
            <path id="Path_588" data-name="Path 588" d="M1258.9,206.885a.57.57,0,0,1-.13-.014l-28.881-6.469a.6.6,0,0,1,0-1.161l28.881-6.471a.6.6,0,0,1,.26,0l28.88,6.471a.6.6,0,0,1,0,1.161l-28.88,6.469A.569.569,0,0,1,1258.9,206.885Zm-26.162-7.064,26.162,5.861,26.161-5.861L1258.9,193.96Z" fill="#3a3a3a"/>
          </g>
        </g>
        <g id="Group_1314" data-name="Group 1314">
          <g id="Group_1312" data-name="Group 1312">
            <path id="Path_589" data-name="Path 589" d="M1290.753,216.752c0,.821-1.332,1.487-2.975,1.487s-2.974-.666-2.974-1.487l2.974-8.541Z" fill="#ebeff2"/>
          </g>
          <g id="Group_1313" data-name="Group 1313">
            <path id="Path_590" data-name="Path 590" d="M1287.778,218.834c-2.034,0-3.568-.9-3.568-2.082a.618.618,0,0,1,.032-.195l2.974-8.54a.619.619,0,0,1,1.123,0l2.975,8.54a.619.619,0,0,1,.033.195C1291.347,217.939,1289.812,218.834,1287.778,218.834Zm-2.368-2.015c.111.322.99.826,2.368.826s2.257-.5,2.369-.826l-2.369-6.8Z" fill="#3a3a3a"/>
          </g>
        </g>
        <g id="Group_1316" data-name="Group 1316">
          <g id="Group_1315" data-name="Group 1315">
            <path id="Path_591" data-name="Path 591" d="M1287.778,208.806a.594.594,0,0,1-.595-.594v-7.8H1258.9a.594.594,0,0,1,0-1.188h28.88a.594.594,0,0,1,.594.594v8.391A.594.594,0,0,1,1287.778,208.806Z" fill="#3a3a3a"/>
          </g>
        </g>
      </g>
    </g>
  </g>
</svg>
