<svg xmlns="http://www.w3.org/2000/svg" width="86.484" height="86.484" viewBox="0 0 86.484 86.484">
  <g id="Responsive" transform="translate(-1335.313 -54.1)">
    <g id="Group_1123" data-name="Group 1123">
      <g id="Group_1122" data-name="Group 1122">
        <circle id="Ellipse_94" data-name="Ellipse 94" cx="30.577" cy="30.577" r="30.577" transform="translate(1335.313 97.342) rotate(-45)" fill="#ffa44a"/>
      </g>
    </g>
    <path id="Path_494" data-name="Path 494" d="M1374.585,105.23h22.158V78.869h-41.232v21" fill="#fff" stroke="#3a3a3a" stroke-linecap="round" stroke-linejoin="round" stroke-width="1"/>
    <line id="Line_12" data-name="Line 12" x2="11.968" transform="translate(1374.35 112.485)" fill="none" stroke="#3a3a3a" stroke-linecap="round" stroke-linejoin="round" stroke-width="1"/>
    <path id="Path_495" data-name="Path 495" d="M1391.207,110.432h11.072a1.492,1.492,0,0,1,1.487,1.487v19.318a1.493,1.493,0,0,1-1.487,1.487h-11.072a1.492,1.492,0,0,1-1.487-1.487V111.919a1.491,1.491,0,0,1,1.487-1.487Z" fill="#fff" stroke="#3a3a3a" stroke-linecap="round" stroke-linejoin="round" stroke-width="1"/>
    <line id="Line_13" data-name="Line 13" y1="5.841" transform="translate(1378.834 105.68)" fill="none" stroke="#3a3a3a" stroke-linecap="round" stroke-linejoin="round" stroke-width="1"/>
    <g id="Group_1126" data-name="Group 1126">
      <g id="Group_1124" data-name="Group 1124">
        <path id="Path_496" data-name="Path 496" d="M1362.663,101.808l6.853-12.539,6.853,12.539Z" fill="#fff"/>
      </g>
      <g id="Group_1125" data-name="Group 1125">
        <path id="Path_497" data-name="Path 497" d="M1376.369,102.137h-13.706a.329.329,0,0,1-.289-.487l6.853-12.539a.342.342,0,0,1,.578,0l6.853,12.539a.329.329,0,0,1-.289.487Zm-13.151-.658h12.6l-6.3-11.524Z" fill="#3a3a3a"/>
      </g>
    </g>
    <g id="Group_1129" data-name="Group 1129">
      <g id="Group_1127" data-name="Group 1127">
        <path id="Path_498" data-name="Path 498" d="M1366.739,101.808,1378.165,80.9l11.426,20.906Z" fill="#ebeff2"/>
      </g>
      <g id="Group_1128" data-name="Group 1128">
        <path id="Path_499" data-name="Path 499" d="M1389.591,102.137h-22.852a.329.329,0,0,1-.289-.487l11.426-20.907a.343.343,0,0,1,.578,0l11.426,20.907a.328.328,0,0,1-.289.487Zm-22.3-.658h21.741l-10.871-19.891Z" fill="#3a3a3a"/>
      </g>
    </g>
    <g id="Group_1132" data-name="Group 1132">
      <g id="Group_1130" data-name="Group 1130">
        <path id="Path_500" data-name="Path 500" d="M1382.444,88.731l-4.279-7.829-3.952,7.23,2.165-.88,1.787,1.522,1.279-1.6Z" fill="#fff"/>
      </g>
      <g id="Group_1131" data-name="Group 1131">
        <path id="Path_501" data-name="Path 501" d="M1378.165,89.1a.33.33,0,0,1-.213-.079l-1.635-1.393-1.979.8a.332.332,0,0,1-.37-.086.328.328,0,0,1-.043-.377l3.951-7.231a.331.331,0,0,1,.289-.171h0a.329.329,0,0,1,.289.171l4.279,7.83a.33.33,0,0,1-.441.45l-2.759-1.436-1.11,1.392a.327.327,0,0,1-.226.123Zm-1.787-2.181a.334.334,0,0,1,.214.078l1.528,1.3,1.067-1.339a.328.328,0,0,1,.409-.086l2.041,1.061-3.472-6.351-3.219,5.891,1.308-.532A.337.337,0,0,1,1376.378,86.923Z" fill="#3a3a3a"/>
      </g>
    </g>
    <path id="Path_502" data-name="Path 502" d="M1373.61,96.741h-28.555v18.177h28.555V96.741Z" fill="#fff" stroke="#3a3a3a" stroke-linecap="round" stroke-linejoin="round" stroke-width="1"/>
    <g id="Group_1135" data-name="Group 1135">
      <g id="Group_1133" data-name="Group 1133">
        <path id="Path_503" data-name="Path 503" d="M1352.106,112.134l3.487-6.38,3.487,6.38Z" fill="#fff"/>
      </g>
      <g id="Group_1134" data-name="Group 1134">
        <path id="Path_504" data-name="Path 504" d="M1359.079,112.3h-6.973a.168.168,0,0,1-.147-.248l3.486-6.379a.174.174,0,0,1,.294,0l3.487,6.379a.169.169,0,0,1,0,.166A.167.167,0,0,1,1359.079,112.3Zm-6.691-.335h6.409l-3.2-5.863Z" fill="#3a3a3a"/>
      </g>
    </g>
    <g id="Group_1138" data-name="Group 1138">
      <g id="Group_1136" data-name="Group 1136">
        <path id="Path_505" data-name="Path 505" d="M1354.18,112.134l5.813-10.637,5.813,10.637Z" fill="#ebeff2"/>
      </g>
      <g id="Group_1137" data-name="Group 1137">
        <path id="Path_506" data-name="Path 506" d="M1365.806,112.3H1354.18a.168.168,0,0,1-.147-.248l5.813-10.636a.174.174,0,0,1,.294,0l5.813,10.636a.168.168,0,0,1-.147.248Zm-11.344-.335h11.062l-5.531-10.12Z" fill="#3a3a3a"/>
      </g>
    </g>
    <g id="Group_1141" data-name="Group 1141">
      <g id="Group_1139" data-name="Group 1139">
        <path id="Path_507" data-name="Path 507" d="M1362.17,105.481l-2.177-3.983-2.01,3.679,1.1-.448.909.775.651-.816Z" fill="#fff"/>
      </g>
      <g id="Group_1140" data-name="Group 1140">
        <path id="Path_508" data-name="Path 508" d="M1359.993,105.671a.168.168,0,0,1-.109-.04l-.831-.709-1.007.41a.168.168,0,0,1-.211-.236l2.011-3.678a.168.168,0,0,1,.147-.088h0a.168.168,0,0,1,.147.088l2.177,3.983a.168.168,0,0,1-.224.229l-1.4-.731-.565.709a.168.168,0,0,1-.115.062Zm-.909-1.11a.166.166,0,0,1,.108.04l.778.663.543-.681a.167.167,0,0,1,.208-.045l1.038.541-1.766-3.232-1.638,3,.666-.27A.155.155,0,0,1,1359.084,104.561Z" fill="#3a3a3a"/>
      </g>
    </g>
    <g id="Group_1143" data-name="Group 1143">
      <g id="Group_1142" data-name="Group 1142">
        <path id="Path_509" data-name="Path 509" d="M1409.127,76.023H1406.7a.5.5,0,0,1,0-1h2.422a.5.5,0,0,1,0,1Zm-5.422,0h-10a.5.5,0,0,1,0-1h10a.5.5,0,0,1,0,1Zm-13,0h-3a.5.5,0,0,1,0-1h3a.5.5,0,0,1,0,1Z" fill="#3a3a3a"/>
      </g>
    </g>
    <g id="Group_1145" data-name="Group 1145">
      <g id="Group_1144" data-name="Group 1144">
        <path id="Path_510" data-name="Path 510" d="M1410.254,82.716h-15.831a.5.5,0,0,1,0-1h15.831a.5.5,0,0,1,0,1Z" fill="#3a3a3a"/>
      </g>
    </g>
    <g id="Group_1147" data-name="Group 1147">
      <g id="Group_1146" data-name="Group 1146">
        <path id="Path_511" data-name="Path 511" d="M1390.387,82.716H1387.7a.5.5,0,0,1,0-1h2.682a.5.5,0,0,1,0,1Z" fill="#37474f"/>
      </g>
    </g>
    <g id="Group_1152" data-name="Group 1152">
      <g id="Group_1149" data-name="Group 1149">
        <g id="Group_1148" data-name="Group 1148">
          <path id="Path_512" data-name="Path 512" d="M1374.937,134.588a.5.5,0,0,0,.037-1,33.654,33.654,0,0,1-14.45-4.506.5.5,0,1,0-.5.863,34.625,34.625,0,0,0,14.878,4.639A.243.243,0,0,0,1374.937,134.588Z" fill="#3a3a3a"/>
        </g>
      </g>
      <g id="Group_1151" data-name="Group 1151">
        <g id="Group_1150" data-name="Group 1150">
          <path id="Path_513" data-name="Path 513" d="M1355.141,126.361a.5.5,0,0,0,.326-.879,34.355,34.355,0,0,1-5.132-5.5.5.5,0,1,0-.8.6,35.287,35.287,0,0,0,5.281,5.657A.5.5,0,0,0,1355.141,126.361Z" fill="#3a3a3a"/>
        </g>
      </g>
    </g>
    <g id="Group_1155" data-name="Group 1155">
      <g id="Group_1153" data-name="Group 1153">
        <path id="Path_514" data-name="Path 514" d="M1391.694,124.538l5.049-9.238,5.049,9.238Z" fill="#ebeff2"/>
      </g>
      <g id="Group_1154" data-name="Group 1154">
        <path id="Path_515" data-name="Path 515" d="M1401.792,124.684h-10.1a.146.146,0,0,1-.127-.216l5.049-9.238a.151.151,0,0,1,.255,0l5.049,9.238a.146.146,0,0,1-.128.216Zm-9.852-.291h9.607l-4.8-8.79Z" fill="#3a3a3a"/>
      </g>
    </g>
    <g id="Group_1158" data-name="Group 1158">
      <g id="Group_1156" data-name="Group 1156">
        <path id="Path_516" data-name="Path 516" d="M1393.268,128.808l3.581-6.392,3.446,6.466Z" fill="#fff"/>
      </g>
      <g id="Group_1157" data-name="Group 1157">
        <path id="Path_517" data-name="Path 517" d="M1400.329,129.014H1393.3a.166.166,0,0,1-.145-.083.168.168,0,0,1,0-.167l3.514-6.428a.175.175,0,0,1,.3,0l3.513,6.428a.168.168,0,0,1-.148.25Zm-6.742-.337h6.458l-3.229-5.909Z" fill="#3a3a3a"/>
      </g>
    </g>
    <g id="Group_1161" data-name="Group 1161">
      <g id="Group_1159" data-name="Group 1159">
        <path id="Path_518" data-name="Path 518" d="M1398.634,118.76l-1.891-3.46-1.746,3.2.957-.389.79.673.565-.709Z" fill="#fff"/>
      </g>
      <g id="Group_1160" data-name="Group 1160">
        <path id="Path_519" data-name="Path 519" d="M1396.743,118.924a.149.149,0,0,1-.094-.034l-.722-.616-.875.356a.146.146,0,0,1-.183-.2l1.747-3.195a.144.144,0,0,1,.127-.076h0a.144.144,0,0,1,.128.076l1.891,3.46a.144.144,0,0,1-.024.171.146.146,0,0,1-.171.028l-1.219-.635-.491.615a.145.145,0,0,1-.1.055Zm-.789-.963a.149.149,0,0,1,.094.034l.675.576.472-.592a.146.146,0,0,1,.181-.038l.9.469-1.534-2.807-1.422,2.6.578-.235A.148.148,0,0,1,1395.954,117.961Z" fill="#3a3a3a"/>
      </g>
    </g>
  </g>
</svg>
