<svg xmlns="http://www.w3.org/2000/svg" width="80.52" height="62.493" viewBox="0 0 80.52 62.493">
  <g id="Sales" transform="translate(-1342.353 -187.948)">
    <g id="Group_1334" data-name="Group 1334">
      <g id="Group_1321" data-name="Group 1321">
        <g id="Group_1320" data-name="Group 1320">
          <circle id="Ellipse_99" data-name="Ellipse 99" cx="30.577" cy="30.577" r="30.577" transform="translate(1350.592 187.949)" fill="#ffa44a"/>
        </g>
      </g>
      <g id="Group_1333" data-name="Group 1333">
        <g id="Group_1323" data-name="Group 1323">
          <g id="Group_1322" data-name="Group 1322">
            <path id="Path_592" data-name="Path 592" d="M1363.764,250.442a.5.5,0,0,1-.372-.834l11.384-12.661a.5.5,0,0,1,.694-.048l9.062,7.671,6.47-10.3a.5.5,0,0,1,.319-.223.515.515,0,0,1,.382.073l5.781,3.849L1408.1,222.3a.5.5,0,0,1,.828.561l-10.9,16.074a.5.5,0,0,1-.691.136l-5.767-3.84-6.5,10.356a.5.5,0,0,1-.347.229.512.512,0,0,1-.4-.112l-9.13-7.73-11.059,12.3A.5.5,0,0,1,1363.764,250.442Z" fill="#3a3a3a"/>
          </g>
        </g>
        <g id="Group_1326" data-name="Group 1326">
          <g id="Group_1324" data-name="Group 1324">
            <path id="Path_593" data-name="Path 593" d="M1377.646,237.281a2.5,2.5,0,1,1-2.5-2.5A2.5,2.5,0,0,1,1377.646,237.281Z" fill="#e0e1e2"/>
          </g>
          <g id="Group_1325" data-name="Group 1325">
            <path id="Path_594" data-name="Path 594" d="M1375.147,240.28a3,3,0,1,1,3-3A3,3,0,0,1,1375.147,240.28Zm0-5a2,2,0,1,0,2,2A2,2,0,0,0,1375.147,235.282Z" fill="#3a3a3a"/>
          </g>
        </g>
        <g id="Group_1329" data-name="Group 1329">
          <g id="Group_1327" data-name="Group 1327">
            <circle id="Ellipse_100" data-name="Ellipse 100" cx="2.499" cy="2.499" r="2.499" transform="translate(1388.927 232.033)" fill="#e0e1e2"/>
          </g>
          <g id="Group_1328" data-name="Group 1328">
            <path id="Path_595" data-name="Path 595" d="M1391.426,237.531a3,3,0,1,1,3-3A3,3,0,0,1,1391.426,237.531Zm0-5a2,2,0,1,0,2,2A2,2,0,0,0,1391.426,232.533Z" fill="#3a3a3a"/>
          </g>
        </g>
        <g id="Group_1332" data-name="Group 1332">
          <g id="Group_1330" data-name="Group 1330">
            <path id="Path_596" data-name="Path 596" d="M1401.783,224.533l7.889-3.751-.7,8.707Z" fill="#e0e1e2"/>
          </g>
          <g id="Group_1331" data-name="Group 1331">
            <path id="Path_597" data-name="Path 597" d="M1408.975,229.99a.5.5,0,0,1-.283-.088l-7.193-4.956a.5.5,0,0,1,.069-.863l7.888-3.751a.5.5,0,0,1,.714.491l-.7,8.707a.5.5,0,0,1-.284.411A.49.49,0,0,1,1408.975,229.99Zm-6.2-5.376,5.767,3.973.558-6.981Z" fill="#3a3a3a"/>
          </g>
        </g>
      </g>
      <g id="Group_985" data-name="Group 985">
        <circle id="Ellipse_72" data-name="Ellipse 72" cx="20.57" cy="20.57" r="20.57" transform="translate(1342.717 190.203)" fill="#fff"/>
        <g id="Group_764" data-name="Group 764">
          <path id="Path_343" data-name="Path 343" d="M1363.421,196.659a.822.822,0,0,0,.822-.789v-.034a.823.823,0,0,0-1.646,0v.034A.823.823,0,0,0,1363.421,196.659Z" fill="#3a3a3a"/>
          <path id="Path_344" data-name="Path 344" d="M1358.174,208.354l.484,1.883h-1.492a.823.823,0,0,0,0,1.646h1.914l.407,1.581a3.967,3.967,0,0,1-1.64,4.285l-.053.035a5.949,5.949,0,0,0-.759.509h-.005a.823.823,0,0,0,.976,1.324l.645-.43a3.955,3.955,0,0,1,4.357.4l.021.016a5.611,5.611,0,0,0,6.994-.015.823.823,0,1,0-1-1.307l-.029.022a3.961,3.961,0,0,1-4.956,0l-.021-.016a5.609,5.609,0,0,0-3.409-1.218,5.61,5.61,0,0,0,.473-4.013l-.3-1.173h6.263a.823.823,0,0,0,0-1.646h-6.685l-.589-2.293a3.928,3.928,0,1,1,7.722-.97.823.823,0,0,0,1.646,0,5.574,5.574,0,1,0-10.962,1.38Z" fill="#3a3a3a"/>
          <path id="Path_345" data-name="Path 345" d="M1363.421,232.13a21.068,21.068,0,1,0-21.068-21.068h0A21.45,21.45,0,0,0,1363.421,232.13Zm0-40.49c10.346,0,19.422,9.075,19.422,19.422s-9.076,19.422-19.422,19.422S1344,221.408,1344,211.062,1353.074,191.64,1363.421,191.64Z" fill="#3a3a3a"/>
          <path id="Path_346" data-name="Path 346" d="M1363.421,227.192a16.113,16.113,0,0,0,3.468-31.852.823.823,0,0,0-.381,1.6,14.483,14.483,0,1,1-6.175,0,.823.823,0,0,0-.311-1.617c-.023.005-.046.01-.069.017a16.113,16.113,0,0,0,3.469,31.852Z" fill="#3a3a3a"/>
        </g>
      </g>
    </g>
    <g id="Group_1336" data-name="Group 1336">
      <g id="Group_1335" data-name="Group 1335">
        <path id="Path_598" data-name="Path 598" d="M1414.814,203.273h-3a.5.5,0,0,1,0-1h3a.5.5,0,0,1,0,1Zm-6,0h-10a.5.5,0,0,1,0-1h10a.5.5,0,0,1,0,1Zm-13,0h-3a.5.5,0,0,1,0-1h3a.5.5,0,0,1,0,1Z" fill="#3a3a3a"/>
      </g>
    </g>
    <g id="Group_1338" data-name="Group 1338">
      <g id="Group_1337" data-name="Group 1337">
        <path id="Path_599" data-name="Path 599" d="M1396.717,209.958h-3.412a.492.492,0,0,1,0-.984h3.412a.492.492,0,0,1,0,.984Z" fill="#3a3a3a"/>
      </g>
    </g>
    <g id="Group_1340" data-name="Group 1340">
      <g id="Group_1339" data-name="Group 1339">
        <path id="Path_600" data-name="Path 600" d="M1422.381,209.958h-21.575a.492.492,0,1,1,0-.984h21.575a.492.492,0,1,1,0,.984Z" fill="#3a3a3a"/>
      </g>
    </g>
  </g>
</svg>
