<svg xmlns="http://www.w3.org/2000/svg" width="77.967" height="69.173" viewBox="0 0 77.967 69.173">
  <g id="SearchResults" transform="translate(-980.019 -60.382)">
    <g id="Group_1001" data-name="Group 1001">
      <g id="Group_987" data-name="Group 987">
        <g id="Group_986" data-name="Group 986">
          <circle id="Ellipse_90" data-name="Ellipse 90" cx="30.577" cy="30.577" r="30.577" transform="translate(981.306 68.402)" fill="#ffa44a"/>
        </g>
      </g>
      <g id="Group_1000" data-name="Group 1000">
        <g id="Group_999" data-name="Group 999">
          <g id="Group_989" data-name="Group 989">
            <g id="Group_988" data-name="Group 988">
              <path id="Path_437" data-name="Path 437" d="M1006.912,115.583l-17.519-1.144V82.39a1.046,1.046,0,0,1,1.047-1.047h45.655a1.045,1.045,0,0,1,1.047,1.047v32.049Z" fill="#fff"/>
            </g>
          </g>
          <g id="Group_991" data-name="Group 991">
            <g id="Group_990" data-name="Group 990">
              <path id="Path_438" data-name="Path 438" d="M1037.142,114.939a.5.5,0,0,1-.5-.5V82.39a.547.547,0,0,0-.547-.547H990.44a.547.547,0,0,0-.547.547v32.049a.5.5,0,0,1-1,0V82.39a1.549,1.549,0,0,1,1.547-1.547h45.655a1.549,1.549,0,0,1,1.547,1.547v32.049A.5.5,0,0,1,1037.142,114.939Z" fill="#3a3a3a"/>
            </g>
          </g>
          <g id="Group_994" data-name="Group 994">
            <g id="Group_992" data-name="Group 992">
              <path id="Rectangle_107" data-name="Rectangle 107" d="M.93,0H41.482a.929.929,0,0,1,.929.929V26.687a.93.93,0,0,1-.93.93H.929A.929.929,0,0,1,0,26.687V.93A.93.93,0,0,1,.93,0Z" transform="translate(992.062 84.079)" fill="#fff"/>
            </g>
            <g id="Group_993" data-name="Group 993">
              <path id="Path_439" data-name="Path 439" d="M1033.544,112.2H992.991a1.431,1.431,0,0,1-1.429-1.43V85.01a1.432,1.432,0,0,1,1.429-1.431h40.553a1.432,1.432,0,0,1,1.429,1.431v25.756A1.431,1.431,0,0,1,1033.544,112.2ZM992.991,84.579a.43.43,0,0,0-.429.431v25.756a.43.43,0,0,0,.429.43h40.553a.43.43,0,0,0,.429-.43V85.01a.431.431,0,0,0-.429-.431Z" fill="#3a3a3a"/>
            </g>
          </g>
          <g id="Group_998" data-name="Group 998">
            <g id="Group_997" data-name="Group 997">
              <g id="Group_995" data-name="Group 995">
                <path id="Path_440" data-name="Path 440" d="M1021.944,114.439a2.781,2.781,0,0,1-2.221,1.116h-12.911a2.781,2.781,0,0,1-2.221-1.116H980.519l1.369,2.344a2.4,2.4,0,0,0,2.031,1.124h58.7a2.4,2.4,0,0,0,2.03-1.124l1.369-2.344Z" fill="#fff"/>
              </g>
              <g id="Group_996" data-name="Group 996">
                <path id="Path_441" data-name="Path 441" d="M1042.617,118.406h-58.7a2.884,2.884,0,0,1-2.455-1.357l-1.377-2.358a.5.5,0,0,1,.432-.752h24.072a.5.5,0,0,1,.4.2,2.294,2.294,0,0,0,1.821.916h12.911a2.3,2.3,0,0,0,1.822-.916.5.5,0,0,1,.4-.2h24.073a.5.5,0,0,1,.431.752l-1.369,2.344A2.888,2.888,0,0,1,1042.617,118.406Zm-61.227-3.467.929,1.592a1.882,1.882,0,0,0,1.6.875h58.7a1.884,1.884,0,0,0,1.606-.888l.923-1.579h-22.965a3.3,3.3,0,0,1-2.458,1.116h-12.911a3.294,3.294,0,0,1-2.457-1.116Z" fill="#3a3a3a"/>
              </g>
            </g>
          </g>
        </g>
      </g>
    </g>
    <g id="Group_1003" data-name="Group 1003">
      <g id="Group_1002" data-name="Group 1002">
        <path id="Path_442" data-name="Path 442" d="M1022.26,92.085H996.421c-.584,0-1.057-.224-1.057-.5s.473-.5,1.057-.5h25.839c.585,0,1.058.224,1.058.5S1022.845,92.085,1022.26,92.085Z" fill="#f7941e"/>
      </g>
    </g>
    <g id="Group_1005" data-name="Group 1005">
      <g id="Group_1004" data-name="Group 1004">
        <path id="Path_443" data-name="Path 443" d="M1022.26,97.091H996.421c-.584,0-1.057-.224-1.057-.5s.473-.5,1.057-.5h25.839c.585,0,1.058.223,1.058.5S1022.845,97.091,1022.26,97.091Z" fill="#3a3a3a"/>
      </g>
    </g>
    <g id="Group_1007" data-name="Group 1007">
      <g id="Group_1006" data-name="Group 1006">
        <path id="Path_444" data-name="Path 444" d="M1022.26,102.1H996.421c-.584,0-1.057-.223-1.057-.5s.473-.5,1.057-.5h25.839c.585,0,1.058.224,1.058.5S1022.845,102.1,1022.26,102.1Z" fill="#3a3a3a"/>
      </g>
    </g>
    <g id="Group_1009" data-name="Group 1009">
      <g id="Group_1008" data-name="Group 1008">
        <path id="Path_445" data-name="Path 445" d="M1022.26,107.1H996.421c-.584,0-1.057-.224-1.057-.5s.473-.5,1.057-.5h25.839c.585,0,1.058.224,1.058.5S1022.845,107.1,1022.26,107.1Z" fill="#3a3a3a"/>
      </g>
    </g>
    <g id="Group_1024" data-name="Group 1024">
      <g id="Group_1011" data-name="Group 1011">
        <g id="Group_1010" data-name="Group 1010">
          <path id="Path_446" data-name="Path 446" d="M1039.647,90.285a.533.533,0,0,1-.278-.987,7.495,7.495,0,1,0-10.111-10.592.533.533,0,1,1-.883-.6,8.56,8.56,0,1,1,11.549,12.1A.526.526,0,0,1,1039.647,90.285Z" fill="#3a3a3a"/>
        </g>
      </g>
      <g id="Group_1013" data-name="Group 1013">
        <g id="Group_1012" data-name="Group 1012">
          <path id="Path_447" data-name="Path 447" d="M1045.495,94.153a.532.532,0,0,1-.363-.922,14.15,14.15,0,0,0-5.844-23.962.533.533,0,0,1,.287-1.026,15.215,15.215,0,0,1,6.284,25.767A.533.533,0,0,1,1045.495,94.153Z" fill="#3a3a3a"/>
        </g>
      </g>
      <g id="Group_1015" data-name="Group 1015">
        <g id="Group_1014" data-name="Group 1014">
          <path id="Path_448" data-name="Path 448" d="M1028.968,70.128a.5.5,0,0,1-.254-.93,14.25,14.25,0,0,1,7.23-1.964.5.5,0,0,1,0,1,13.267,13.267,0,0,0-6.723,1.825A.5.5,0,0,1,1028.968,70.128Z" fill="#3a3a3a"/>
        </g>
      </g>
      <g id="Group_1017" data-name="Group 1017">
        <g id="Group_1016" data-name="Group 1016">
          <path id="Path_449" data-name="Path 449" d="M1023.349,76.419a.487.487,0,0,1-.2-.043.5.5,0,0,1-.254-.66,14.227,14.227,0,0,1,2.579-3.909.5.5,0,0,1,.733.68,13.213,13.213,0,0,0-2.4,3.635A.5.5,0,0,1,1023.349,76.419Z" fill="#3a3a3a"/>
        </g>
      </g>
      <g id="Group_1019" data-name="Group 1019">
        <g id="Group_1018" data-name="Group 1018">
          <path id="Path_450" data-name="Path 450" d="M1039.659,103.3a.5.5,0,0,1-.089-.992,19.878,19.878,0,0,0,3.314-.9.5.5,0,0,1,.345.94,21.138,21.138,0,0,1-3.48.948A.548.548,0,0,1,1039.659,103.3Z" fill="#3a3a3a"/>
        </g>
      </g>
      <g id="Group_1021" data-name="Group 1021">
        <g id="Group_1020" data-name="Group 1020">
          <path id="Path_451" data-name="Path 451" d="M1046.756,102.3a.533.533,0,0,1-.275-.99,21.455,21.455,0,0,0-15.643-39.357.533.533,0,0,1-.229-1.041,22.518,22.518,0,0,1,16.42,41.312A.525.525,0,0,1,1046.756,102.3Z" fill="#3a3a3a"/>
        </g>
      </g>
      <g id="Group_1023" data-name="Group 1023">
        <g id="Group_1022" data-name="Group 1022">
          <path id="Path_452" data-name="Path 452" d="M1021.874,66.924a.5.5,0,0,1-.341-.865,21.088,21.088,0,0,1,6.161-4.006.5.5,0,1,1,.391.921,20.11,20.11,0,0,0-5.87,3.815A.5.5,0,0,1,1021.874,66.924Z" fill="#3a3a3a"/>
        </g>
      </g>
    </g>
  </g>
</svg>
