<svg xmlns="http://www.w3.org/2000/svg" width="69.502" height="71.721" viewBox="0 0 69.502 71.721">
  <g id="Speed" transform="translate(-1100.141 -67.946)">
    <g id="Group_1027" data-name="Group 1027">
      <g id="Group_1026" data-name="Group 1026">
        <circle id="Ellipse_91" data-name="Ellipse 91" cx="30.577" cy="30.577" r="30.577" transform="translate(1108.49 67.946)" fill="#ffa44a"/>
      </g>
    </g>
    <g id="Group_1074" data-name="Group 1074">
      <g id="Group_1037" data-name="Group 1037">
        <g id="Group_1030" data-name="Group 1030">
          <g id="Group_1028" data-name="Group 1028">
            <path id="Path_453" data-name="Path 453" d="M1141.408,96.259c0-4.733-8.57-12.178-8.57-12.178s-8.57,7.445-8.57,12.178v28.067h17.14Z" fill="#fff"/>
          </g>
          <g id="Group_1029" data-name="Group 1029">
            <path id="Path_454" data-name="Path 454" d="M1141.408,124.826h-17.14a.5.5,0,0,1-.5-.5V96.259c0-4.9,8.385-12.245,8.742-12.555a.5.5,0,0,1,.656,0c.357.31,8.742,7.651,8.742,12.555v28.067A.5.5,0,0,1,1141.408,124.826Zm-16.64-1h16.14V96.259c0-3.943-6.518-10.1-8.07-11.507-1.552,1.41-8.07,7.566-8.07,11.507Z" fill="#3a3a3a"/>
          </g>
        </g>
        <g id="Group_1033" data-name="Group 1033">
          <g id="Group_1031" data-name="Group 1031">
            <path id="Path_455" data-name="Path 455" d="M1124.268,124.15l-7.758,5.642V118.859l7.758-5.642Z" fill="#ebeff2"/>
          </g>
          <g id="Group_1032" data-name="Group 1032">
            <path id="Path_456" data-name="Path 456" d="M1116.51,130.293a.509.509,0,0,1-.227-.054.5.5,0,0,1-.273-.446V118.859a.5.5,0,0,1,.206-.4l7.758-5.643a.5.5,0,0,1,.794.405V124.15a.5.5,0,0,1-.206.4L1116.8,130.2A.494.494,0,0,1,1116.51,130.293Zm.5-11.18v9.7l6.758-4.915v-9.7Z" fill="#3a3a3a"/>
          </g>
        </g>
        <g id="Group_1036" data-name="Group 1036">
          <g id="Group_1034" data-name="Group 1034">
            <path id="Path_457" data-name="Path 457" d="M1141.417,124.15l7.758,5.642V118.859l-7.758-5.642Z" fill="#ebeff2"/>
          </g>
          <g id="Group_1035" data-name="Group 1035">
            <path id="Path_458" data-name="Path 458" d="M1149.175,130.293a.5.5,0,0,1-.294-.1l-7.758-5.642a.5.5,0,0,1-.206-.4V113.217a.5.5,0,0,1,.794-.405l7.758,5.643a.5.5,0,0,1,.206.4v10.934a.5.5,0,0,1-.273.446A.508.508,0,0,1,1149.175,130.293Zm-7.258-6.4,6.758,4.915v-9.7l-6.758-4.914Z" fill="#3a3a3a"/>
          </g>
        </g>
      </g>
      <g id="Group_1050" data-name="Group 1050">
        <g id="Group_1039" data-name="Group 1039">
          <g id="Group_1038" data-name="Group 1038">
            <path id="Path_459" data-name="Path 459" d="M1127.606,134.495a.5.5,0,0,1-.5-.5V127.4a.5.5,0,0,1,1,0v6.593A.5.5,0,0,1,1127.606,134.495Z" fill="#3a3a3a"/>
          </g>
        </g>
        <g id="Group_1041" data-name="Group 1041">
          <g id="Group_1040" data-name="Group 1040">
            <path id="Path_460" data-name="Path 460" d="M1132.842,134.495a.5.5,0,0,1-.5-.5V127.4a.5.5,0,0,1,1,0v6.593A.5.5,0,0,1,1132.842,134.495Z" fill="#3a3a3a"/>
          </g>
        </g>
        <g id="Group_1043" data-name="Group 1043">
          <g id="Group_1042" data-name="Group 1042">
            <path id="Path_461" data-name="Path 461" d="M1138.08,134.495a.5.5,0,0,1-.5-.5V127.4a.5.5,0,0,1,1,0v6.593A.5.5,0,0,1,1138.08,134.495Z" fill="#3a3a3a"/>
          </g>
        </g>
        <g id="Group_1045" data-name="Group 1045">
          <g id="Group_1044" data-name="Group 1044">
            <path id="Path_462" data-name="Path 462" d="M1127.606,139.667a.5.5,0,0,1-.5-.5v-2.124a.5.5,0,0,1,1,0v2.124A.5.5,0,0,1,1127.606,139.667Z" fill="#3a3a3a"/>
          </g>
        </g>
        <g id="Group_1047" data-name="Group 1047">
          <g id="Group_1046" data-name="Group 1046">
            <path id="Path_463" data-name="Path 463" d="M1132.842,139.667a.5.5,0,0,1-.5-.5v-2.124a.5.5,0,0,1,1,0v2.124A.5.5,0,0,1,1132.842,139.667Z" fill="#3a3a3a"/>
          </g>
        </g>
        <g id="Group_1049" data-name="Group 1049">
          <g id="Group_1048" data-name="Group 1048">
            <path id="Path_464" data-name="Path 464" d="M1138.08,139.667a.5.5,0,0,1-.5-.5v-2.124a.5.5,0,0,1,1,0v2.124A.5.5,0,0,1,1138.08,139.667Z" fill="#3a3a3a"/>
          </g>
        </g>
      </g>
      <g id="Group_1053" data-name="Group 1053">
        <g id="Group_1051" data-name="Group 1051">
          <circle id="Ellipse_92" data-name="Ellipse 92" cx="4.38" cy="4.38" r="4.38" transform="translate(1128.463 95.468)" fill="#ebeff2"/>
        </g>
        <g id="Group_1052" data-name="Group 1052">
          <path id="Path_465" data-name="Path 465" d="M1132.842,104.727a4.879,4.879,0,1,1,4.88-4.879A4.885,4.885,0,0,1,1132.842,104.727Zm0-8.759a3.879,3.879,0,1,0,3.88,3.88A3.883,3.883,0,0,0,1132.842,95.968Z" fill="#3a3a3a"/>
        </g>
      </g>
      <g id="Group_1055" data-name="Group 1055">
        <g id="Group_1054" data-name="Group 1054">
          <path id="Path_466" data-name="Path 466" d="M1159.614,128.778a.5.5,0,0,1-.5-.5v-4.363a.5.5,0,0,1,1,0v4.363A.5.5,0,0,1,1159.614,128.778Z" fill="#3a3a3a"/>
        </g>
      </g>
      <g id="Group_1057" data-name="Group 1057">
        <g id="Group_1056" data-name="Group 1056">
          <path id="Path_467" data-name="Path 467" d="M1161.8,126.6h-4.363a.5.5,0,0,1,0-1h4.363a.5.5,0,0,1,0,1Z" fill="#3a3a3a"/>
        </g>
      </g>
      <g id="Group_1059" data-name="Group 1059">
        <g id="Group_1058" data-name="Group 1058">
          <path id="Path_468" data-name="Path 468" d="M1151.234,93.723a.5.5,0,0,1-.5-.5V88.859a.5.5,0,0,1,1,0v4.364A.5.5,0,0,1,1151.234,93.723Z" fill="#3a3a3a"/>
        </g>
      </g>
      <g id="Group_1061" data-name="Group 1061">
        <g id="Group_1060" data-name="Group 1060">
          <path id="Path_469" data-name="Path 469" d="M1153.415,91.541h-4.363a.5.5,0,0,1,0-1h4.363a.5.5,0,0,1,0,1Z" fill="#3a3a3a"/>
        </g>
      </g>
      <g id="Group_1063" data-name="Group 1063">
        <g id="Group_1062" data-name="Group 1062">
          <path id="Path_470" data-name="Path 470" d="M1116.369,108.541a.5.5,0,0,1-.5-.5v-4.362a.5.5,0,1,1,1,0v4.362A.5.5,0,0,1,1116.369,108.541Z" fill="#3a3a3a"/>
        </g>
      </g>
      <g id="Group_1065" data-name="Group 1065">
        <g id="Group_1064" data-name="Group 1064">
          <path id="Path_471" data-name="Path 471" d="M1118.55,106.36h-4.362a.5.5,0,0,1,0-1h4.362a.5.5,0,0,1,0,1Z" fill="#3a3a3a"/>
        </g>
      </g>
      <g id="Group_1067" data-name="Group 1067">
        <g id="Group_1066" data-name="Group 1066">
          <path id="Path_472" data-name="Path 472" d="M1126.369,81.541a.5.5,0,0,1-.5-.5V76.679a.5.5,0,0,1,1,0v4.362A.5.5,0,0,1,1126.369,81.541Z" fill="#3a3a3a"/>
        </g>
      </g>
      <g id="Group_1069" data-name="Group 1069">
        <g id="Group_1068" data-name="Group 1068">
          <path id="Path_473" data-name="Path 473" d="M1128.55,79.36h-4.362a.5.5,0,0,1,0-1h4.362a.5.5,0,0,1,0,1Z" fill="#3a3a3a"/>
        </g>
      </g>
      <g id="Group_1071" data-name="Group 1071">
        <g id="Group_1070" data-name="Group 1070">
          <path id="Path_474" data-name="Path 474" d="M1102.822,132.411a.5.5,0,0,1-.5-.5v-4.363a.5.5,0,0,1,1,0v4.363A.5.5,0,0,1,1102.822,132.411Z" fill="#3a3a3a"/>
        </g>
      </g>
      <g id="Group_1073" data-name="Group 1073">
        <g id="Group_1072" data-name="Group 1072">
          <path id="Path_475" data-name="Path 475" d="M1105,130.229h-4.362a.5.5,0,0,1,0-1H1105a.5.5,0,0,1,0,1Z" fill="#3a3a3a"/>
        </g>
      </g>
    </g>
  </g>
</svg>
