<svg xmlns="http://www.w3.org/2000/svg" width="73.897" height="78.979" viewBox="0 0 73.897 78.979">
  <g id="Unique" transform="translate(-972.346 -178.687)">
    <g id="Group_1164" data-name="Group 1164">
      <g id="Group_1163" data-name="Group 1163">
        <circle id="Ellipse_95" data-name="Ellipse 95" cx="30.577" cy="30.577" r="30.577" transform="translate(972.346 239.065) rotate(-80.87)" fill="#ffa44a"/>
      </g>
    </g>
    <g id="Group_1185" data-name="Group 1185">
      <g id="Group_1167" data-name="Group 1167">
        <g id="Group_1165" data-name="Group 1165">
          <path id="Path_520" data-name="Path 520" d="M994.865,234.6h7.445c-.347-11.841,8.505-13.451,8.437-24.316a15.325,15.325,0,0,0-15.325-15.325h-.12a15.322,15.322,0,0,0-15.321,15.325c-.071,10.865,8.781,12.475,8.433,24.316h6.451Z" fill="#fff"/>
        </g>
        <g id="Group_1166" data-name="Group 1166">
          <path id="Path_521" data-name="Path 521" d="M1002.31,235.051h-13.9a.456.456,0,0,1-.456-.469c.175-5.952-2.064-9.305-4.23-12.548-2.084-3.121-4.239-6.349-4.2-11.758A15.8,15.8,0,0,1,995.3,194.5h.121a15.8,15.8,0,0,1,15.78,15.78c.034,5.407-2.122,8.635-4.206,11.756-2.165,3.243-4.405,6.6-4.231,12.548a.456.456,0,0,1-.456.469Zm-7.445-.912h6.98c-.056-5.95,2.205-9.335,4.394-12.612,2.1-3.145,4.084-6.115,4.052-11.246a14.885,14.885,0,0,0-14.868-14.87H995.3a14.882,14.882,0,0,0-14.865,14.867c-.033,5.134,1.95,8.1,4.05,11.249,2.188,3.278,4.449,6.662,4.393,12.612Z" fill="#3a3a3a"/>
        </g>
      </g>
      <g id="Group_1172" data-name="Group 1172">
        <g id="Group_1169" data-name="Group 1169">
          <g id="Group_1168" data-name="Group 1168">
            <path id="Path_522" data-name="Path 522" d="M993.436,232.359a.457.457,0,0,1-.454-.417c-.01-.115-1.032-11.616-4.192-16.354a.457.457,0,0,1,.76-.506c3.289,4.933,4.3,16.3,4.341,16.782a.457.457,0,0,1-.415.494Z" fill="#3a3a3a"/>
          </g>
        </g>
        <g id="Group_1171" data-name="Group 1171">
          <g id="Group_1170" data-name="Group 1170">
            <path id="Path_523" data-name="Path 523" d="M997.286,232.359h-.04a.456.456,0,0,1-.415-.494c.041-.481,1.052-11.849,4.339-16.782a.456.456,0,0,1,.759.506c-3.158,4.74-4.18,16.239-4.189,16.354A.456.456,0,0,1,997.286,232.359Z" fill="#3a3a3a"/>
          </g>
        </g>
      </g>
      <g id="Group_1177" data-name="Group 1177">
        <g id="Group_1174" data-name="Group 1174">
          <g id="Group_1173" data-name="Group 1173">
            <path id="Path_524" data-name="Path 524" d="M991.061,216.8c-1.524,0-2.892-1.93-3.049-2.16a.456.456,0,0,1,.753-.515c.336.486,1.505,1.867,2.386,1.759a1.052,1.052,0,0,0,.694-.438,6.125,6.125,0,0,1-1.124-1.289,4.632,4.632,0,0,1-.8-3.852,1.3,1.3,0,0,1,1.815-.589c1.262.54,2.53,2.533,1.4,5.274-.028.069-.058.137-.087.2a4.4,4.4,0,0,0,2.315.626.457.457,0,0,1,0,.913,5.3,5.3,0,0,1-2.781-.75,1.941,1.941,0,0,1-1.338.81C991.184,216.795,991.122,216.8,991.061,216.8Zm0-6.322a.311.311,0,0,0-.307.2,3.876,3.876,0,0,0,.733,2.983,5.149,5.149,0,0,0,.813.969c.872-2.135-.034-3.692-.924-4.072A.824.824,0,0,0,991.061,210.475Z" fill="#3a3a3a"/>
          </g>
        </g>
        <g id="Group_1176" data-name="Group 1176">
          <g id="Group_1175" data-name="Group 1175">
            <path id="Path_525" data-name="Path 525" d="M999.663,216.8c-.06,0-.122,0-.184-.008a1.941,1.941,0,0,1-1.338-.81,5.3,5.3,0,0,1-2.781.75.457.457,0,0,1,0-.913,4.4,4.4,0,0,0,2.315-.626c-.029-.066-.058-.134-.087-.2-1.127-2.741.143-4.734,1.4-5.274a1.3,1.3,0,0,1,1.816.589,4.627,4.627,0,0,1-.8,3.849,6.091,6.091,0,0,1-1.126,1.292,1.052,1.052,0,0,0,.694.438c.885.109,2.051-1.273,2.385-1.759a.456.456,0,0,1,.753.515C1002.555,214.867,1001.188,216.8,999.663,216.8Zm0-6.322a.824.824,0,0,0-.316.077c-.89.38-1.8,1.937-.926,4.072a5.182,5.182,0,0,0,.816-.97,3.876,3.876,0,0,0,.733-2.983A.312.312,0,0,0,999.667,210.475Z" fill="#3a3a3a"/>
          </g>
        </g>
      </g>
      <g id="Group_1180" data-name="Group 1180">
        <g id="Group_1178" data-name="Group 1178">
          <path id="Path_526" data-name="Path 526" d="M987.387,232.624v5.082c0,2,1.479,3.755,3.7,4.756v1.128a1.077,1.077,0,0,0,1.076,1.076h6.4a1.078,1.078,0,0,0,1.079-1.076v-1.128c2.223-1,3.7-2.755,3.7-4.756v-5.082Z" fill="#ebeff2"/>
        </g>
        <g id="Group_1179" data-name="Group 1179">
          <path id="Path_527" data-name="Path 527" d="M998.561,245.121h-6.4a1.534,1.534,0,0,1-1.533-1.531v-.839c-2.324-1.135-3.7-3-3.7-5.045v-5.082a.456.456,0,0,1,.456-.456h15.955a.456.456,0,0,1,.456.456v5.082c0,2.041-1.378,3.91-3.7,5.045v.839A1.535,1.535,0,0,1,998.561,245.121ZM987.843,233.08v4.626c0,1.749,1.283,3.372,3.433,4.339a.457.457,0,0,1,.269.417v1.128a.62.62,0,0,0,.62.619h6.4a.622.622,0,0,0,.623-.619v-1.128a.457.457,0,0,1,.269-.417c2.149-.967,3.433-2.59,3.433-4.339V233.08Z" fill="#3a3a3a"/>
        </g>
      </g>
      <g id="Group_1182" data-name="Group 1182">
        <g id="Group_1181" data-name="Group 1181">
          <path id="Path_528" data-name="Path 528" d="M1000.465,236.066h-10.21a.456.456,0,1,1,0-.912h10.21a.456.456,0,1,1,0,.912Z" fill="#3a3a3a"/>
        </g>
      </g>
      <g id="Group_1184" data-name="Group 1184">
        <g id="Group_1183" data-name="Group 1183">
          <path id="Path_529" data-name="Path 529" d="M1000.465,238.785H992.7a.456.456,0,0,1,0-.912h7.762a.456.456,0,1,1,0,.912Z" fill="#3a3a3a"/>
        </g>
      </g>
    </g>
    <g id="Group_1190" data-name="Group 1190">
      <g id="Group_1187" data-name="Group 1187">
        <g id="Group_1186" data-name="Group 1186">
          <path id="Path_530" data-name="Path 530" d="M976.31,196.138a.5.5,0,0,1-.5-.5v-4.362a.5.5,0,0,1,1,0v4.362A.5.5,0,0,1,976.31,196.138Z" fill="#3a3a3a"/>
        </g>
      </g>
      <g id="Group_1189" data-name="Group 1189">
        <g id="Group_1188" data-name="Group 1188">
          <path id="Path_531" data-name="Path 531" d="M978.492,193.956h-4.363a.5.5,0,0,1,0-1h4.363a.5.5,0,0,1,0,1Z" fill="#3a3a3a"/>
        </g>
      </g>
    </g>
    <g id="Group_1195" data-name="Group 1195">
      <g id="Group_1192" data-name="Group 1192">
        <g id="Group_1191" data-name="Group 1191">
          <path id="Path_532" data-name="Path 532" d="M1043.561,227.6a.5.5,0,0,1-.5-.5v-4.363a.5.5,0,1,1,1,0V227.1A.5.5,0,0,1,1043.561,227.6Z" fill="#3a3a3a"/>
        </g>
      </g>
      <g id="Group_1194" data-name="Group 1194">
        <g id="Group_1193" data-name="Group 1193">
          <path id="Path_533" data-name="Path 533" d="M1045.743,225.417h-4.364a.5.5,0,0,1,0-1h4.364a.5.5,0,0,1,0,1Z" fill="#3a3a3a"/>
        </g>
      </g>
    </g>
    <g id="Group_1197" data-name="Group 1197">
      <g id="Group_1196" data-name="Group 1196">
        <path id="Path_534" data-name="Path 534" d="M1007.907,251.327a.5.5,0,0,1,0-1,35.9,35.9,0,0,0,23.391-8.662.5.5,0,1,1,.653.757A36.907,36.907,0,0,1,1007.907,251.327Z" fill="#3a3a3a"/>
      </g>
    </g>
    <g id="Group_1199" data-name="Group 1199">
      <g id="Group_1198" data-name="Group 1198">
        <path id="Path_535" data-name="Path 535" d="M1007.907,257.666a.5.5,0,0,1,0-1,42.238,42.238,0,0,0,21.245-5.721.5.5,0,1,1,.5.863A43.231,43.231,0,0,1,1007.907,257.666Z" fill="#3a3a3a"/>
      </g>
    </g>
    <g id="Group_1201" data-name="Group 1201">
      <g id="Group_1200" data-name="Group 1200">
        <path id="Path_536" data-name="Path 536" d="M1035.754,247.354a.5.5,0,0,1-.326-.879,42.519,42.519,0,0,0,6.369-6.823.5.5,0,1,1,.8.6,43.5,43.5,0,0,1-6.517,6.983A.5.5,0,0,1,1035.754,247.354Z" fill="#3a3a3a"/>
      </g>
    </g>
    <g id="Group_1217" data-name="Group 1217">
      <g id="Group_1214" data-name="Group 1214">
        <g id="Group_1211" data-name="Group 1211">
          <g id="Group_1204" data-name="Group 1204">
            <g id="Group_1202" data-name="Group 1202">
              <path id="Path_537" data-name="Path 537" d="M1019.408,236.871a.437.437,0,0,0,.734,0c.5-.787,1.018-1.626,1.511-2.435h-3.785C1018.371,235.243,1018.9,236.083,1019.408,236.871Z" fill="#ebeff2"/>
            </g>
            <g id="Group_1203" data-name="Group 1203">
              <path id="Path_538" data-name="Path 538" d="M1019.771,237.5a.873.873,0,0,1-.731-.4h0c-.508-.79-1.041-1.632-1.545-2.443a.421.421,0,0,1-.007-.432.439.439,0,0,1,.381-.219h3.784a.44.44,0,0,1,.38.217.422.422,0,0,1-.005.431c-.495.811-1.018,1.651-1.514,2.44a.894.894,0,0,1-.354.315A.813.813,0,0,1,1019.771,237.5Zm-1.124-2.635c.375.6.759,1.2,1.128,1.777.361-.573.737-1.178,1.107-1.777Z" fill="#3a3a3a"/>
            </g>
          </g>
          <g id="Group_1207" data-name="Group 1207">
            <g id="Group_1205" data-name="Group 1205">
              <path id="Path_539" data-name="Path 539" d="M1023.881,190.54a1.352,1.352,0,0,0-.413-.981,1.415,1.415,0,0,0-1-.407l-5.469,0a1.428,1.428,0,0,0-1.414,1.387l.01,39.728a21.635,21.635,0,0,0,2.273,4.163h3.785a21.926,21.926,0,0,0,2.239-4.166Z" fill="#fff"/>
            </g>
            <g id="Group_1206" data-name="Group 1206">
              <path id="Path_540" data-name="Path 540" d="M1021.653,234.861h-3.784a.439.439,0,0,1-.373-.2c-2.339-3.77-2.339-4.171-2.338-4.386l-.01-39.728a1.862,1.862,0,0,1,1.849-1.815l5.47,0a1.857,1.857,0,0,1,1.31.533,1.769,1.769,0,0,1,.541,1.284l.011,39.726c0,.213,0,.61-2.3,4.386A.439.439,0,0,1,1021.653,234.861Zm-3.539-.856h3.291c1.84-3.031,2.037-3.639,2.052-3.754l-.012-39.711v0a.932.932,0,0,0-.285-.676.981.981,0,0,0-.693-.282l-5.468,0a1,1,0,0,0-.978.959l.01,39.728A19.95,19.95,0,0,0,1018.114,234.005Z" fill="#3a3a3a"/>
            </g>
          </g>
          <g id="Group_1210" data-name="Group 1210">
            <g id="Group_1208" data-name="Group 1208">
              <path id="Path_541" data-name="Path 541" d="M1023.892,193.88l-.011-3.34a1.352,1.352,0,0,0-.413-.981,1.415,1.415,0,0,0-1-.407l-5.469,0a1.428,1.428,0,0,0-1.414,1.387l.01,3.341Z" fill="#ebeff2"/>
            </g>
            <g id="Group_1209" data-name="Group 1209">
              <path id="Path_542" data-name="Path 542" d="M1015.595,194.311a.433.433,0,0,1-.437-.426l-.01-3.342a1.862,1.862,0,0,1,1.849-1.816l5.47,0a1.857,1.857,0,0,1,1.31.533,1.769,1.769,0,0,1,.541,1.285l.011,3.337a.425.425,0,0,1-.127.3.446.446,0,0,1-.31.126l-8.3,0Zm6.872-4.731-5.468,0a1,1,0,0,0-.978.959l.008,2.914,7.425,0-.009-2.911a.934.934,0,0,0-.285-.679A.981.981,0,0,0,1022.467,189.58Z" fill="#3a3a3a"/>
            </g>
          </g>
        </g>
        <g id="Group_1213" data-name="Group 1213">
          <g id="Group_1212" data-name="Group 1212">
            <path id="Path_543" data-name="Path 543" d="M1016.221,231.652a.431.431,0,0,1-.3-.124.436.436,0,0,1-.009-.617l1.806-1.853a.438.438,0,0,1,.617-.008l1.466,1.428,1.5-1.54a.436.436,0,0,1,.617-.008l1.78,1.732a.437.437,0,1,1-.609.626l-1.466-1.428-1.5,1.54a.438.438,0,0,1-.307.132h-.006a.438.438,0,0,1-.3-.124l-1.466-1.428-1.5,1.54A.437.437,0,0,1,1016.221,231.652Z" fill="#3a3a3a"/>
          </g>
        </g>
      </g>
      <g id="Group_1216" data-name="Group 1216">
        <g id="Group_1215" data-name="Group 1215">
          <path id="Path_544" data-name="Path 544" d="M1017.869,228.041a.436.436,0,0,1-.437-.437V196.531a.436.436,0,0,1,.873,0V227.6A.436.436,0,0,1,1017.869,228.041Z" fill="#3a3a3a"/>
        </g>
      </g>
    </g>
  </g>
</svg>
