<svg xmlns="http://www.w3.org/2000/svg" width="86.484" height="87.274" viewBox="0 0 86.484 87.274">
  <g id="Affordable" transform="translate(-1475 -2817)">
    <g id="Group_837" data-name="Group 837" transform="translate(1075 356)">
      <g id="Group_537" data-name="Group 537" transform="translate(-47.144 2313.17)">
        <g id="Group_485" data-name="Group 485">
          <g id="Group_484" data-name="Group 484">
            <circle id="Ellipse_63" data-name="Ellipse 63" cx="30.577" cy="30.577" r="30.577" transform="translate(447.144 191.072) rotate(-45)" fill="#ffa44a"/>
          </g>
        </g>
        <g id="Group_487" data-name="Group 487">
          <g id="Group_486" data-name="Group 486">
            <path id="Path_222" data-name="Path 222" d="M490.386,228.765a.5.5,0,0,1,0-1,35.9,35.9,0,0,0,23.391-8.663.5.5,0,0,1,.653.759A36.916,36.916,0,0,1,490.386,228.765Z" fill="#37474f"/>
          </g>
        </g>
        <g id="Group_489" data-name="Group 489">
          <g id="Group_488" data-name="Group 488">
            <path id="Path_223" data-name="Path 223" d="M490.386,235.1a.5.5,0,0,1,0-1,42.224,42.224,0,0,0,21.244-5.721.5.5,0,0,1,.5.864A43.227,43.227,0,0,1,490.386,235.1Z" fill="#37474f"/>
          </g>
        </g>
        <g id="Group_491" data-name="Group 491">
          <g id="Group_490" data-name="Group 490">
            <path id="Path_224" data-name="Path 224" d="M518.232,224.792a.5.5,0,0,1-.326-.879,42.524,42.524,0,0,0,6.37-6.823.5.5,0,1,1,.8.6,43.594,43.594,0,0,1-6.518,6.984A.5.5,0,0,1,518.232,224.792Z" fill="#37474f"/>
          </g>
        </g>
        <g id="Group_517" data-name="Group 517" transform="translate(-38 -13)">
          <g id="Group_514" data-name="Group 514">
            <g id="Group_513" data-name="Group 513">
              <path id="Path_235" data-name="Path 235" d="M493.394,176.083a.5.5,0,0,1-.5-.5V171.22a.5.5,0,0,1,1,0v4.363A.5.5,0,0,1,493.394,176.083Z" fill="#37474f"/>
            </g>
          </g>
          <g id="Group_516" data-name="Group 516">
            <g id="Group_515" data-name="Group 515">
              <path id="Path_236" data-name="Path 236" d="M495.575,173.9h-4.362a.5.5,0,0,1,0-1h4.362a.5.5,0,0,1,0,1Z" fill="#37474f"/>
            </g>
          </g>
        </g>
        <g id="Group_522" data-name="Group 522">
          <g id="Group_519" data-name="Group 519">
            <g id="Group_518" data-name="Group 518">
              <path id="Path_237" data-name="Path 237" d="M530.627,196.885a.5.5,0,0,1-.5-.5v-4.363a.5.5,0,0,1,1,0v4.363A.5.5,0,0,1,530.627,196.885Z" fill="#37474f"/>
            </g>
          </g>
          <g id="Group_521" data-name="Group 521">
            <g id="Group_520" data-name="Group 520">
              <path id="Path_238" data-name="Path 238" d="M532.808,194.7h-4.363a.5.5,0,0,1,0-1h4.363a.5.5,0,0,1,0,1Z" fill="#37474f"/>
            </g>
          </g>
        </g>
      </g>
    </g>
    <g id="Group_764" data-name="Group 764" transform="translate(503.73 2269.451)">
      <path id="Path_343" data-name="Path 343" d="M1014.833,577.006a.823.823,0,0,0,.822-.789v-.034a.823.823,0,0,0-1.646,0v.034A.823.823,0,0,0,1014.833,577.006Z" fill="#fff"/>
      <path id="Path_344" data-name="Path 344" d="M1009.586,588.7l.484,1.883h-1.492a.823.823,0,0,0,0,1.646h1.914l.407,1.582a3.969,3.969,0,0,1-1.64,4.285l-.053.035a5.744,5.744,0,0,0-.759.509l-.005,0a.823.823,0,0,0,.976,1.324l.645-.43a3.953,3.953,0,0,1,4.357.4l.021.016a5.613,5.613,0,0,0,6.994-.015.823.823,0,1,0-1.028-1.285,3.965,3.965,0,0,1-4.957,0l-.021-.016a5.6,5.6,0,0,0-3.409-1.218,5.606,5.606,0,0,0,.473-4.013l-.3-1.173h6.263a.823.823,0,0,0,0-1.646h-6.685l-.589-2.293a3.928,3.928,0,1,1,7.722-.97.823.823,0,0,0,1.646,0,5.574,5.574,0,1,0-10.962,1.38Z" fill="#fff"/>
      <path id="Path_345" data-name="Path 345" d="M1014.833,612.476a21.068,21.068,0,1,0-21.068-21.068A21.449,21.449,0,0,0,1014.833,612.476Zm0-40.49c10.346,0,19.422,9.075,19.422,19.422s-9.076,19.422-19.422,19.422-19.422-9.076-19.422-19.422S1004.486,571.986,1014.833,571.986Z" fill="#fff"/>
      <path id="Path_346" data-name="Path 346" d="M1014.833,607.538a16.113,16.113,0,0,0,3.468-31.852.823.823,0,0,0-.381,1.6,14.484,14.484,0,1,1-6.175,0,.823.823,0,1,0-.38-1.6,16.113,16.113,0,0,0,3.468,31.852Z" fill="#fff"/>
    </g>
  </g>
</svg>
