<svg xmlns="http://www.w3.org/2000/svg" width="49.525" height="55.729" viewBox="0 0 49.525 55.729">
  <g id="branding-and-graphics" transform="translate(-871.647 -244.316)">
    <g id="Group_965" data-name="Group 965">
      <g id="Group_947" data-name="Group 947">
        <g id="Group_945" data-name="Group 945" transform="translate(872.273 244.941)">
          <path id="Path_417" data-name="Path 417" d="M888.585,280.8h8.159c-.38-10.711,9.321-12.167,9.246-22,0-7.656-7.521-13.861-16.794-13.861h-.132c-9.273,0-16.791,6.205-16.791,13.861-.078,9.829,9.623,11.285,9.242,22h7.07Z" transform="translate(-872.273 -244.941)" fill="none" stroke="#fff" stroke-width="0.25"/>
        </g>
        <g id="Group_946" data-name="Group 946" transform="translate(871.772 244.441)">
          <path id="Path_418" data-name="Path 418" d="M896.744,281.3H881.515a.555.555,0,0,1-.358-.125.383.383,0,0,1-.142-.3c.192-5.41-2.262-8.457-4.635-11.4-2.284-2.837-4.646-5.77-4.608-10.687,0-7.906,7.757-14.34,17.292-14.34h.132c9.536,0,17.294,6.434,17.294,14.342.037,4.915-2.325,7.848-4.609,10.685-2.373,2.947-4.828,5.994-4.637,11.4a.38.38,0,0,1-.142.3A.551.551,0,0,1,896.744,281.3Zm-8.159-.829h7.649c-.061-5.407,2.417-8.484,4.816-11.462,2.3-2.859,4.475-5.558,4.44-10.221,0-7.453-7.31-13.515-16.294-13.515h-.132c-8.983,0-16.292,6.062-16.292,13.513-.036,4.666,2.138,7.366,4.44,10.224,2.4,2.979,4.875,6.055,4.813,11.462Z" transform="translate(-871.772 -244.441)" fill="#fff" stroke="#fff" stroke-width="0.25"/>
        </g>
      </g>
      <g id="Group_952" data-name="Group 952">
        <g id="Group_949" data-name="Group 949" transform="translate(881.846 266.777)">
          <g id="Group_948" data-name="Group 948">
            <path id="Path_419" data-name="Path 419" d="M887.021,280.727a.465.465,0,0,1-.5-.333c-.011-.092-1.131-9.27-4.594-13.051a.31.31,0,0,1,.139-.5.622.622,0,0,1,.693.1c3.6,3.937,4.713,13.008,4.758,13.392.024.2-.179.377-.455.394Z" transform="translate(-881.846 -266.777)" fill="#fff" stroke="#fff" stroke-width="0.25"/>
          </g>
        </g>
        <g id="Group_951" data-name="Group 951" transform="translate(890.74 266.777)">
          <g id="Group_950" data-name="Group 950">
            <path id="Path_420" data-name="Path 420" d="M891.241,280.727H891.2c-.275-.017-.478-.193-.455-.394.045-.384,1.153-9.455,4.756-13.392a.624.624,0,0,1,.693-.1.309.309,0,0,1,.139.5c-3.462,3.783-4.581,12.958-4.592,13.051A.464.464,0,0,1,891.241,280.727Z" transform="translate(-890.74 -266.777)" fill="#fff" stroke="#fff" stroke-width="0.25"/>
          </g>
        </g>
      </g>
      <g id="Group_957" data-name="Group 957">
        <g id="Group_954" data-name="Group 954">
          <g id="Group_953" data-name="Group 953">
            <path id="Path_421" data-name="Path 421" d="M884.416,268.879c-1.67,0-3.169-2.116-3.341-2.367a.5.5,0,0,1,.825-.565c.367.533,1.65,2.047,2.614,1.928a1.154,1.154,0,0,0,.761-.48,6.689,6.689,0,0,1-1.231-1.413c-.948-1.456-1.317-3.231-.878-4.221a1.419,1.419,0,0,1,1.989-.646c1.383.592,2.773,2.776,1.536,5.78-.031.076-.063.15-.1.223a4.837,4.837,0,0,0,2.538.686.5.5,0,0,1,0,1,5.8,5.8,0,0,1-3.048-.822,2.125,2.125,0,0,1-1.466.888A1.977,1.977,0,0,1,884.416,268.879Zm0-6.928a.339.339,0,0,0-.336.216,4.242,4.242,0,0,0,.8,3.269,5.68,5.68,0,0,0,.891,1.062c.955-2.34-.038-4.046-1.012-4.463A.911.911,0,0,0,884.416,261.951Z" fill="#fff" stroke="#fff" stroke-width="0.25"/>
          </g>
        </g>
        <g id="Group_956" data-name="Group 956">
          <g id="Group_955" data-name="Group 955">
            <path id="Path_422" data-name="Path 422" d="M893.844,268.879a1.989,1.989,0,0,1-.2-.009,2.122,2.122,0,0,1-1.465-.888,5.8,5.8,0,0,1-3.048.822.5.5,0,0,1,0-1,4.83,4.83,0,0,0,2.537-.686c-.032-.073-.065-.147-.1-.223-1.235-3,.156-5.187,1.538-5.779a1.419,1.419,0,0,1,1.99.644c.439.99.069,2.764-.878,4.219a6.664,6.664,0,0,1-1.234,1.416,1.156,1.156,0,0,0,.761.48c.97.12,2.247-1.395,2.613-1.927a.5.5,0,0,1,.825.564C897.012,266.763,895.514,268.879,893.844,268.879Zm0-6.928a.9.9,0,0,0-.346.084c-.975.417-1.968,2.123-1.015,4.463a5.653,5.653,0,0,0,.895-1.064,4.243,4.243,0,0,0,.8-3.268A.339.339,0,0,0,893.847,261.951Z" fill="#fff" stroke="#fff" stroke-width="0.25"/>
          </g>
        </g>
      </g>
      <g id="Group_960" data-name="Group 960">
        <g id="Group_958" data-name="Group 958">
          <path id="Path_423" data-name="Path 423" d="M880.39,286.224v5.57c0,2.193,1.62,4.115,4.056,5.211v1.237a1.181,1.181,0,0,0,1.18,1.179h7.01a1.181,1.181,0,0,0,1.182-1.179v-1.237c2.436-1.1,4.057-3.018,4.057-5.211v-5.57Z" fill="none" stroke="#fff" stroke-width="0.25"/>
        </g>
        <g id="Group_959" data-name="Group 959">
          <path id="Path_424" data-name="Path 424" d="M892.636,299.92h-7.01a1.681,1.681,0,0,1-1.68-1.678v-.919c-2.547-1.244-4.056-3.292-4.056-5.529v-5.57a.5.5,0,0,1,.5-.5h17.485a.5.5,0,0,1,.5.5v5.57c0,2.237-1.51,4.285-4.057,5.529v.919A1.682,1.682,0,0,1,892.636,299.92Zm-11.747-13.2v5.07c0,1.917,1.407,3.7,3.762,4.755a.5.5,0,0,1,.295.456v1.237a.68.68,0,0,0,.68.678h7.01a.681.681,0,0,0,.682-.678v-1.237a.5.5,0,0,1,.295-.456c2.356-1.06,3.762-2.838,3.762-4.755v-5.07Z" fill="#fff" stroke="#fff" stroke-width="0.25"/>
        </g>
      </g>
    </g>
    <g id="Group_981" data-name="Group 981" transform="translate(0 -4)">
      <g id="Group_978" data-name="Group 978">
        <g id="Group_975" data-name="Group 975">
          <g id="Group_968" data-name="Group 968">
            <g id="Group_966" data-name="Group 966">
              <path id="Path_427" data-name="Path 427" d="M915.959,301.3a.447.447,0,0,0,.758,0c.513-.829,1.053-1.714,1.563-2.567h-3.914C914.886,299.586,915.436,300.472,915.959,301.3Z" fill="none" stroke="#fff" stroke-width="0.25"/>
            </g>
            <g id="Group_967" data-name="Group 967">
              <path id="Path_428" data-name="Path 428" d="M916.334,301.962a.9.9,0,0,1-.757-.419h0c-.524-.833-1.076-1.721-1.6-2.576a.452.452,0,0,1,.386-.686h3.914a.451.451,0,0,1,.387.683c-.511.855-1.052,1.741-1.565,2.572a.922.922,0,0,1-.366.333A.834.834,0,0,1,916.334,301.962Zm-1.163-2.779c.389.631.785,1.268,1.167,1.874.373-.605.762-1.242,1.145-1.874Z" fill="#fff" stroke="#fff" stroke-width="0.25"/>
            </g>
          </g>
          <g id="Group_971" data-name="Group 971">
            <g id="Group_969" data-name="Group 969">
              <path id="Path_429" data-name="Path 429" d="M920.584,252.446a1.461,1.461,0,0,0-1.462-1.463l-5.655,0a1.491,1.491,0,0,0-1.462,1.463l.01,41.893a23.034,23.034,0,0,0,2.351,4.39h3.914a23.278,23.278,0,0,0,2.315-4.393Z" fill="none" stroke="#fff" stroke-width="0.25"/>
            </g>
            <g id="Group_970" data-name="Group 970">
              <path id="Path_430" data-name="Path 430" d="M918.28,299.183h-3.914a.451.451,0,0,1-.385-.216c-2.419-3.975-2.418-4.4-2.417-4.625l-.011-41.893a1.944,1.944,0,0,1,1.913-1.914l5.656,0a1.9,1.9,0,0,1,1.354.562,1.879,1.879,0,0,1,.559,1.354l.012,41.891c0,.225,0,.643-2.379,4.625A.453.453,0,0,1,918.28,299.183Zm-3.66-.9h3.4c1.9-3.2,2.105-3.838,2.121-3.959l-.012-41.876v0a.989.989,0,0,0-.295-.712,1.011,1.011,0,0,0-.717-.3l-5.653,0a1.04,1.04,0,0,0-1.012,1.011l.01,41.893A21.215,21.215,0,0,0,914.62,298.281Z" fill="#fff" stroke="#fff" stroke-width="0.25"/>
            </g>
          </g>
        </g>
        <g id="Group_977" data-name="Group 977">
          <g id="Group_976" data-name="Group 976">
            <path id="Path_433" data-name="Path 433" d="M912.663,294.921a.451.451,0,0,1-.323-.766l1.867-1.916a.452.452,0,0,1,.638-.009l1.516,1.477,1.55-1.592a.451.451,0,0,1,.638-.009l1.84,1.792a.451.451,0,1,1-.629.646l-1.517-1.477-1.551,1.593a.447.447,0,0,1-.317.136h-.006a.452.452,0,0,1-.315-.127l-1.516-1.477-1.552,1.592A.451.451,0,0,1,912.663,294.921Z" fill="#fff" stroke="#fff" stroke-width="0.25"/>
          </g>
        </g>
      </g>
    </g>
  </g>
</svg>
