<svg xmlns="http://www.w3.org/2000/svg" width="142.955" height="125.045" viewBox="0 0 142.955 125.045">
  <g id="business" transform="translate(-1270.28 -4537.123)">
    <g id="Group_301" data-name="Group 301" transform="translate(1213.519 4370.125)">
      <g id="Group_231" data-name="Group 231" transform="translate(62.25 219.629)">
        <g id="Group_230" data-name="Group 230">
          <path id="Path_125" data-name="Path 125" d="M69.42,219.753a.785.785,0,0,1-.653-.351,57.679,57.679,0,0,1-8.487-20.384.783.783,0,0,1,1.534-.315,56.169,56.169,0,0,0,8.258,19.832.783.783,0,0,1-.219,1.086A.774.774,0,0,1,69.42,219.753Z" transform="translate(-60.264 -198.077)" fill="#fff"/>
        </g>
      </g>
      <g id="Group_233" data-name="Group 233" transform="translate(166.249 197.344)">
        <g id="Group_232" data-name="Group 232" transform="translate(0)">
          <path id="Path_126" data-name="Path 126" d="M127.413,228.119a.782.782,0,0,1-.65-1.221,56.393,56.393,0,0,0,9.62-31.6,57.181,57.181,0,0,0-.973-10.515.783.783,0,1,1,1.539-.29,58.694,58.694,0,0,1,1,10.8,57.964,57.964,0,0,1-9.886,32.475A.781.781,0,0,1,127.413,228.119Z" transform="translate(-126.63 -183.855)" fill="#fff"/>
        </g>
      </g>
      <g id="Group_235" data-name="Group 235" transform="translate(158.794 166.997)">
        <g id="Group_234" data-name="Group 234">
          <path id="Path_127" data-name="Path 127" d="M136.553,187.794a.784.784,0,0,1-.738-.52,57.018,57.018,0,0,0-13.707-21.44.783.783,0,1,1,1.1-1.119,58.592,58.592,0,0,1,14.086,22.034.784.784,0,0,1-.475,1A.807.807,0,0,1,136.553,187.794Z" transform="translate(-121.873 -164.489)" fill="#fff"/>
        </g>
      </g>
      <g id="Group_289" data-name="Group 289" transform="translate(56.761 194.106)">
        <g id="Group_260" data-name="Group 260" transform="translate(0 55.337)">
          <g id="Group_247" data-name="Group 247">
            <g id="Group_238" data-name="Group 238" transform="translate(7.501)">
              <g id="Group_237" data-name="Group 237">
                <path id="Path_129" data-name="Path 129" d="M72.215,238.436A10.667,10.667,0,1,1,82.88,227.769,10.679,10.679,0,0,1,72.215,238.436Zm0-19.767a9.1,9.1,0,1,0,9.1,9.1A9.11,9.11,0,0,0,72.215,218.669Z" transform="translate(-61.548 -217.102)" fill="#fff"/>
              </g>
            </g>
            <g id="Group_241" data-name="Group 241" transform="translate(0 22.923)">
              <g id="Group_240" data-name="Group 240">
                <path id="Path_131" data-name="Path 131" d="M92.312,251.406H57.545a.783.783,0,0,1-.784-.784V240.186a8.465,8.465,0,0,1,8.454-8.456H84.64a8.466,8.466,0,0,1,8.456,8.456v10.436A.784.784,0,0,1,92.312,251.406Zm-33.984-1.567h33.2v-9.653A6.9,6.9,0,0,0,84.64,233.3H65.215a6.9,6.9,0,0,0-6.887,6.889Z" transform="translate(-56.761 -231.73)" fill="#fff"/>
              </g>
            </g>
            <g id="Group_246" data-name="Group 246" transform="translate(7.213 34.351)">
              <g id="Group_243" data-name="Group 243" transform="translate(20.342)">
                <g id="Group_242" data-name="Group 242">
                  <path id="Path_132" data-name="Path 132" d="M75.129,247.27a.783.783,0,0,1-.784-.784v-6.68a.784.784,0,1,1,1.567,0v6.68A.784.784,0,0,1,75.129,247.27Z" transform="translate(-74.345 -239.023)" fill="#fff"/>
                </g>
              </g>
              <g id="Group_245" data-name="Group 245">
                <g id="Group_244" data-name="Group 244">
                  <path id="Path_133" data-name="Path 133" d="M62.148,247.27a.783.783,0,0,1-.784-.784v-6.68a.784.784,0,1,1,1.567,0v6.68A.784.784,0,0,1,62.148,247.27Z" transform="translate(-61.364 -239.023)" fill="#fff"/>
                </g>
              </g>
            </g>
          </g>
          <g id="Group_259" data-name="Group 259" transform="translate(87.052)">
            <g id="Group_250" data-name="Group 250" transform="translate(7.501)">
              <g id="Group_249" data-name="Group 249">
                <path id="Path_134" data-name="Path 134" d="M127.765,238.436a10.667,10.667,0,1,1,10.667-10.667A10.678,10.678,0,0,1,127.765,238.436Zm0-19.767a9.1,9.1,0,1,0,9.1,9.1A9.11,9.11,0,0,0,127.765,218.669Z" transform="translate(-117.1 -217.102)" fill="#fff"/>
              </g>
            </g>
            <g id="Group_253" data-name="Group 253" transform="translate(0 22.923)">
              <g id="Group_252" data-name="Group 252">
                <path id="Path_136" data-name="Path 136" d="M147.864,251.406H113.1a.784.784,0,0,1-.784-.784V240.186a8.465,8.465,0,0,1,8.454-8.456h19.427a8.465,8.465,0,0,1,8.454,8.456v10.436A.784.784,0,0,1,147.864,251.406Zm-33.984-1.567h33.2v-9.653a6.9,6.9,0,0,0-6.887-6.889H120.767a6.9,6.9,0,0,0-6.887,6.889Z" transform="translate(-112.313 -231.73)" fill="#fff"/>
              </g>
            </g>
            <g id="Group_258" data-name="Group 258" transform="translate(7.213 34.351)">
              <g id="Group_255" data-name="Group 255" transform="translate(20.342)">
                <g id="Group_254" data-name="Group 254">
                  <path id="Path_137" data-name="Path 137" d="M130.681,247.27a.784.784,0,0,1-.784-.784v-6.68a.784.784,0,1,1,1.567,0v6.68A.784.784,0,0,1,130.681,247.27Z" transform="translate(-129.897 -239.023)" fill="#fff"/>
                </g>
              </g>
              <g id="Group_257" data-name="Group 257">
                <g id="Group_256" data-name="Group 256">
                  <path id="Path_138" data-name="Path 138" d="M117.7,247.27a.784.784,0,0,1-.784-.784v-6.68a.784.784,0,1,1,1.567,0v6.68A.784.784,0,0,1,117.7,247.27Z" transform="translate(-116.916 -239.023)" fill="#fff"/>
                </g>
              </g>
            </g>
          </g>
        </g>
        <g id="Group_263" data-name="Group 263" transform="translate(26.483)">
          <g id="Group_262" data-name="Group 262">
            <path id="Path_140" data-name="Path 140" d="M136.8,228.841a.784.784,0,0,1-.577-.252l-6.047-6.58H112.129l-2.849,6.179a.816.816,0,0,1-1.423,0l-2.849-6.179H86.965l-6.047,6.58a.784.784,0,0,1-1.36-.531v-6.052a6.1,6.1,0,0,1-5.9-6.093v-28.03a6.1,6.1,0,0,1,6.094-6.094h57.626a6.1,6.1,0,0,1,6.094,6.094v28.03a6.1,6.1,0,0,1-5.9,6.093v6.052a.782.782,0,0,1-.784.784Zm-25.167-8.4h18.887a.783.783,0,0,1,.577.252l4.919,5.353v-4.822a.783.783,0,0,1,.784-.784h.586a4.533,4.533,0,0,0,4.527-4.529v-28.03a4.532,4.532,0,0,0-4.527-4.527H79.755a4.532,4.532,0,0,0-4.527,4.527v28.03a4.533,4.533,0,0,0,4.527,4.529h.586a.782.782,0,0,1,.784.784v4.822l4.921-5.353a.78.78,0,0,1,.577-.252h18.886a.786.786,0,0,1,.713.454l2.347,5.091,2.347-5.091A.784.784,0,0,1,111.629,220.442Z" transform="translate(-73.661 -181.789)" fill="#fff"/>
          </g>
        </g>
        <g id="Group_266" data-name="Group 266" transform="translate(39.386 21.1)">
          <g id="Group_265" data-name="Group 265">
            <path id="Path_142" data-name="Path 142" d="M87.239,205.94a5.343,5.343,0,1,1,5.342-5.342A5.35,5.35,0,0,1,87.239,205.94Zm0-9.119a3.776,3.776,0,1,0,3.775,3.777A3.781,3.781,0,0,0,87.239,196.821Z" transform="translate(-81.895 -195.254)" fill="#fff"/>
          </g>
        </g>
        <g id="Group_269" data-name="Group 269" transform="translate(76.086 18.599)">
          <g id="Group_268" data-name="Group 268">
            <path id="Path_144" data-name="Path 144" d="M110.659,204.344A5.343,5.343,0,1,1,116,199,5.35,5.35,0,0,1,110.659,204.344Zm0-9.119A3.776,3.776,0,1,0,114.434,199,3.78,3.78,0,0,0,110.659,195.225Z" transform="translate(-105.315 -193.658)" fill="#fff"/>
          </g>
        </g>
        <g id="Group_272" data-name="Group 272" transform="translate(57.217 6.494)">
          <g id="Group_271" data-name="Group 271">
            <path id="Path_146" data-name="Path 146" d="M98.618,196.617a5.342,5.342,0,1,1,5.342-5.342A5.349,5.349,0,0,1,98.618,196.617Zm0-9.117a3.775,3.775,0,1,0,3.775,3.775A3.779,3.779,0,0,0,98.618,187.5Z" transform="translate(-93.274 -185.933)" fill="#fff"/>
          </g>
        </g>
        <g id="Group_274" data-name="Group 274" transform="translate(46.917 13.735)">
          <g id="Group_273" data-name="Group 273">
            <path id="Path_147" data-name="Path 147" d="M87.486,200.65a.783.783,0,0,1-.476-1.406L98.2,190.715a.783.783,0,0,1,.95,1.246l-11.189,8.529A.777.777,0,0,1,87.486,200.65Z" transform="translate(-86.701 -190.554)" fill="#fff"/>
          </g>
        </g>
        <g id="Group_276" data-name="Group 276" transform="translate(65.684 13.385)">
          <g id="Group_275" data-name="Group 275">
            <path id="Path_148" data-name="Path 148" d="M110.934,198.753a.774.774,0,0,1-.4-.111l-11.475-6.854a.783.783,0,1,1,.8-1.345l11.474,6.854a.783.783,0,0,1-.4,1.456Z" transform="translate(-98.677 -190.33)" fill="#fff"/>
          </g>
        </g>
        <g id="Group_288" data-name="Group 288" transform="translate(43.526 55.337)">
          <g id="Group_279" data-name="Group 279" transform="translate(7.501)">
            <g id="Group_278" data-name="Group 278">
              <path id="Path_150" data-name="Path 150" d="M99.989,238.436a10.667,10.667,0,1,1,10.667-10.667A10.678,10.678,0,0,1,99.989,238.436Zm0-19.767a9.1,9.1,0,1,0,9.1,9.1A9.11,9.11,0,0,0,99.989,218.669Z" transform="translate(-89.324 -217.102)" fill="#fff"/>
            </g>
          </g>
          <g id="Group_282" data-name="Group 282" transform="translate(0 22.923)">
            <g id="Group_281" data-name="Group 281">
              <path id="Path_152" data-name="Path 152" d="M120.088,251.406H85.321a.783.783,0,0,1-.784-.784V240.186a8.465,8.465,0,0,1,8.456-8.456h19.423a8.465,8.465,0,0,1,8.456,8.456v10.436A.783.783,0,0,1,120.088,251.406ZM86.1,249.839h33.2v-9.653a6.9,6.9,0,0,0-6.889-6.889H92.993a6.9,6.9,0,0,0-6.889,6.889Z" transform="translate(-84.537 -231.73)" fill="#fff"/>
            </g>
          </g>
          <g id="Group_287" data-name="Group 287" transform="translate(7.213 34.351)">
            <g id="Group_284" data-name="Group 284" transform="translate(20.342)">
              <g id="Group_283" data-name="Group 283">
                <path id="Path_153" data-name="Path 153" d="M102.9,247.27a.784.784,0,0,1-.784-.784v-6.68a.784.784,0,1,1,1.567,0v6.68A.783.783,0,0,1,102.9,247.27Z" transform="translate(-102.121 -239.023)" fill="#fff"/>
              </g>
            </g>
            <g id="Group_286" data-name="Group 286">
              <g id="Group_285" data-name="Group 285">
                <path id="Path_154" data-name="Path 154" d="M89.924,247.27a.783.783,0,0,1-.784-.784v-6.68a.784.784,0,1,1,1.567,0v6.68A.784.784,0,0,1,89.924,247.27Z" transform="translate(-89.14 -239.023)" fill="#fff"/>
              </g>
            </g>
          </g>
        </g>
      </g>
      <g id="Group_300" data-name="Group 300" transform="translate(98.982 184.594)">
        <g id="Group_291" data-name="Group 291">
          <g id="Group_290" data-name="Group 290">
            <path id="Path_155" data-name="Path 155" d="M103.268,177.286H84.488a.784.784,0,0,1,0-1.567h18.781a.784.784,0,0,1,0,1.567Z" transform="translate(-83.704 -175.719)" fill="#fff"/>
          </g>
        </g>
        <g id="Group_293" data-name="Group 293" transform="translate(23.557)">
          <g id="Group_292" data-name="Group 292">
            <path id="Path_156" data-name="Path 156" d="M102.849,177.286H99.521a.784.784,0,1,1,0-1.567h3.328a.784.784,0,0,1,0,1.567Z" transform="translate(-98.737 -175.719)" fill="#fff"/>
          </g>
        </g>
        <g id="Group_295" data-name="Group 295" transform="translate(32.927)">
          <g id="Group_294" data-name="Group 294">
            <path id="Path_157" data-name="Path 157" d="M107.164,177.286H105.5a.784.784,0,0,1,0-1.567h1.664a.784.784,0,0,1,0,1.567Z" transform="translate(-104.716 -175.719)" fill="#fff"/>
          </g>
        </g>
        <g id="Group_297" data-name="Group 297" transform="translate(39.978)">
          <g id="Group_296" data-name="Group 296">
            <path id="Path_158" data-name="Path 158" d="M111.664,177.286H110a.784.784,0,0,1,0-1.567h1.664a.784.784,0,0,1,0,1.567Z" transform="translate(-109.216 -175.719)" fill="#fff"/>
          </g>
        </g>
        <g id="Group_299" data-name="Group 299" transform="translate(47.03)">
          <g id="Group_298" data-name="Group 298">
            <path id="Path_159" data-name="Path 159" d="M116.164,177.286H114.5a.784.784,0,0,1,0-1.567h1.664a.784.784,0,1,1,0,1.567Z" transform="translate(-113.716 -175.719)" fill="#fff"/>
          </g>
        </g>
      </g>
    </g>
    <g id="Group_314" data-name="Group 314" transform="translate(1284.153 4548.542)">
      <g id="Group_219" data-name="Group 219">
        <path id="Path_121" data-name="Path 121" d="M221.085,177.1a.8.8,0,0,1-.8-.8v-6.968a.8.8,0,0,1,1.6,0v6.968A.8.8,0,0,1,221.085,177.1Z" transform="translate(-220.286 -168.539)" fill="#fff"/>
      </g>
    </g>
    <g id="Group_316" data-name="Group 316" transform="translate(1301.153 4539.542)">
      <g id="Group_219-2" data-name="Group 219">
        <path id="Path_121-2" data-name="Path 121" d="M221.085,177.1a.8.8,0,0,1-.8-.8v-6.968a.8.8,0,0,1,1.6,0v6.968A.8.8,0,0,1,221.085,177.1Z" transform="translate(-220.286 -168.539)" fill="#fff"/>
      </g>
    </g>
    <g id="Group_315" data-name="Group 315" transform="translate(1280.668 4552.026)">
      <g id="Group_221" data-name="Group 221">
        <path id="Path_122" data-name="Path 122" d="M225.872,172.317H218.9a.8.8,0,0,1,0-1.6h6.969a.8.8,0,1,1,0,1.6Z" transform="translate(-218.104 -170.72)" fill="#fff"/>
      </g>
    </g>
    <g id="Group_317" data-name="Group 317" transform="translate(1297.668 4543.026)">
      <g id="Group_221-2" data-name="Group 221">
        <path id="Path_122-2" data-name="Path 122" d="M225.872,172.317H218.9a.8.8,0,0,1,0-1.6h6.969a.8.8,0,1,1,0,1.6Z" transform="translate(-218.104 -170.72)" fill="#fff"/>
      </g>
    </g>
    <g id="Group_320" data-name="Group 320">
      <g id="Group_318" data-name="Group 318" transform="translate(1399.153 4613.542)">
        <g id="Group_219-3" data-name="Group 219">
          <path id="Path_121-3" data-name="Path 121" d="M221.085,177.1a.8.8,0,0,1-.8-.8v-6.968a.8.8,0,0,1,1.6,0v6.968A.8.8,0,0,1,221.085,177.1Z" transform="translate(-220.286 -168.539)" fill="#fff"/>
        </g>
      </g>
      <g id="Group_319" data-name="Group 319" transform="translate(1395.668 4617.026)">
        <g id="Group_221-3" data-name="Group 221">
          <path id="Path_122-3" data-name="Path 122" d="M225.872,172.317H218.9a.8.8,0,0,1,0-1.6h6.969a.8.8,0,1,1,0,1.6Z" transform="translate(-218.104 -170.72)" fill="#fff"/>
        </g>
      </g>
    </g>
    <g id="Group_321" data-name="Group 321" transform="translate(9 16)">
      <g id="Group_318-2" data-name="Group 318" transform="translate(1399.153 4613.542)">
        <g id="Group_219-4" data-name="Group 219">
          <path id="Path_121-4" data-name="Path 121" d="M221.085,177.1a.8.8,0,0,1-.8-.8v-6.968a.8.8,0,0,1,1.6,0v6.968A.8.8,0,0,1,221.085,177.1Z" transform="translate(-220.286 -168.539)" fill="#fff"/>
        </g>
      </g>
      <g id="Group_319-2" data-name="Group 319" transform="translate(1395.668 4617.026)">
        <g id="Group_221-4" data-name="Group 221">
          <path id="Path_122-4" data-name="Path 122" d="M225.872,172.317H218.9a.8.8,0,0,1,0-1.6h6.969a.8.8,0,1,1,0,1.6Z" transform="translate(-218.104 -170.72)" fill="#fff"/>
        </g>
      </g>
    </g>
  </g>
</svg>
