<svg xmlns="http://www.w3.org/2000/svg" width="52.25" height="46.776" viewBox="0 0 52.25 46.776">
  <g id="digital-marketing" transform="translate(-57.283 -346.967)">
    <g id="Group_921" data-name="Group 921" transform="translate(57.454 347.092)">
      <g id="Group_900" data-name="Group 900" transform="translate(33.558)">
        <g id="Group_897" data-name="Group 897">
          <g id="Group_896" data-name="Group 896">
            <path id="Path_399" data-name="Path 399" d="M114.314,372.868a.409.409,0,0,1-.114-.016.424.424,0,0,1-.294-.522,18.548,18.548,0,0,0-.31-10.815c-2.439-7.416-9.077-12.51-16.129-12.326a.4.4,0,0,1-.433-.415.424.424,0,0,1,.414-.433c7.429-.171,14.4,5.141,16.955,12.91a19.4,19.4,0,0,1,.321,11.307A.425.425,0,0,1,114.314,372.868Z" transform="translate(-97.033 -348.336)" fill="#fff" stroke="#fff" stroke-width="0.25"/>
          </g>
        </g>
        <g id="Group_899" data-name="Group 899" transform="translate(10.719 27.209)">
          <g id="Group_898" data-name="Group 898">
            <path id="Path_400" data-name="Path 400" d="M110.1,386.661a.424.424,0,0,1-.244-.771,14.6,14.6,0,0,0,1.889-1.588.424.424,0,1,1,.6.6,15.326,15.326,0,0,1-2,1.683A.425.425,0,0,1,110.1,386.661Zm3.076-2.9a.423.423,0,0,1-.33-.689,15.839,15.839,0,0,0,1.6-2.427.424.424,0,1,1,.747.4,16.773,16.773,0,0,1-1.69,2.557A.423.423,0,0,1,113.176,383.766Z" transform="translate(-109.675 -380.427)" fill="#fff" stroke="#fff" stroke-width="0.25"/>
          </g>
        </g>
      </g>
      <g id="Group_905" data-name="Group 905" transform="translate(31.943 5.492)">
        <g id="Group_902" data-name="Group 902">
          <g id="Group_901" data-name="Group 901">
            <path id="Path_401" data-name="Path 401" d="M97.62,355.784a.37.37,0,0,1-.061,0,11.272,11.272,0,0,0-1.992-.111.416.416,0,0,1-.438-.409.424.424,0,0,1,.41-.438,11.874,11.874,0,0,1,2.143.119.424.424,0,0,1-.061.844Z" transform="translate(-95.129 -354.814)" fill="#fff" stroke="#fff" stroke-width="0.25"/>
          </g>
        </g>
        <g id="Group_904" data-name="Group 904" transform="translate(5.263 1.055)">
          <g id="Group_903" data-name="Group 903">
            <path id="Path_402" data-name="Path 402" d="M104.27,379.489a.423.423,0,0,1-.24-.773,12.4,12.4,0,0,0,4.419-14.119,12.813,12.813,0,0,0-6.862-7.728.424.424,0,1,1,.347-.774,13.665,13.665,0,0,1,7.321,8.238,13.249,13.249,0,0,1-4.746,15.082A.415.415,0,0,1,104.27,379.489Z" transform="translate(-101.336 -356.058)" fill="#fff" stroke="#fff" stroke-width="0.25"/>
          </g>
        </g>
      </g>
      <g id="Group_909" data-name="Group 909" transform="translate(31.666 11.978)">
        <g id="Group_908" data-name="Group 908">
          <g id="Group_906" data-name="Group 906" transform="translate(0.424 0.424)">
            <path id="Path_403" data-name="Path 403" d="M99.282,375.066a6.834,6.834,0,0,0-3.98-12.1Z" transform="translate(-95.302 -362.964)" fill="none" stroke="#fff" stroke-width="0.25"/>
          </g>
          <g id="Group_907" data-name="Group 907">
            <path id="Path_404" data-name="Path 404" d="M99.206,375.413a.455.455,0,0,1-.134-.021.427.427,0,0,1-.27-.27l-3.979-12.1a.425.425,0,0,1,.393-.557,7.257,7.257,0,0,1,4.233,12.872A.431.431,0,0,1,99.206,375.413Zm-3.387-12.08,3.6,10.946a6.484,6.484,0,0,0-3.6-10.946Z" transform="translate(-94.802 -362.463)" fill="#fff" stroke="#fff" stroke-width="0.25"/>
          </g>
        </g>
      </g>
      <g id="Group_912" data-name="Group 912" transform="translate(13.812 2.461)">
        <g id="Group_910" data-name="Group 910" transform="translate(0.425 0.425)">
          <path id="Path_405" data-name="Path 405" d="M88.968,351.74,74.246,366.957l4.082,12.411,20.881,3.508Z" transform="translate(-74.246 -351.74)" fill="none" stroke="#fff" stroke-width="0.25"/>
        </g>
        <g id="Group_911" data-name="Group 911">
          <path id="Path_406" data-name="Path 406" d="M99.133,383.224a.388.388,0,0,1-.07-.006l-20.881-3.508a.423.423,0,0,1-.332-.286l-4.083-12.411a.424.424,0,0,1,.1-.427l14.722-15.218a.423.423,0,0,1,.707.163l10.241,31.137a.424.424,0,0,1-.4.556Zm-20.558-4.307,19.936,3.349-9.8-29.8L74.652,366.992Z" transform="translate(-73.745 -351.239)" fill="#fff" stroke="#fff" stroke-width="0.25"/>
        </g>
      </g>
      <g id="Group_917" data-name="Group 917" transform="translate(6.814 30.27)">
        <g id="Group_915" data-name="Group 915" transform="translate(0.424 0.424)">
          <path id="Path_408" data-name="Path 408" d="M65.991,387.363l3.914,11.9a1.05,1.05,0,0,0,1.347.624l4.519-1.543a1.128,1.128,0,0,0,.715-1.3l-1.8-12.505Z" transform="translate(-65.991 -384.537)" fill="none" stroke="#fff" stroke-width="0.25"/>
        </g>
        <g id="Group_916" data-name="Group 916">
          <path id="Path_409" data-name="Path 409" d="M70.812,400.293a1.514,1.514,0,0,1-.636-.14,1.391,1.391,0,0,1-.75-.834l-3.914-11.9a.426.426,0,0,1,.025-.324.418.418,0,0,1,.248-.211l8.7-2.827a.424.424,0,0,1,.551.343l1.8,12.505a1.547,1.547,0,0,1-1,1.764l-4.515,1.541A1.6,1.6,0,0,1,70.812,400.293Zm-4.361-12.735,3.781,11.5a.554.554,0,0,0,.3.33.692.692,0,0,0,.51.024l4.515-1.541c.124-.041.486-.16.43-.867l-1.722-11.98Z" transform="translate(-65.491 -384.037)" fill="#fff" stroke="#fff" stroke-width="0.25"/>
        </g>
      </g>
      <g id="Group_920" data-name="Group 920" transform="translate(0 17.889)">
        <g id="Group_918" data-name="Group 918" transform="translate(0.424 0.424)">
          <path id="Path_410" data-name="Path 410" d="M71.795,369.935l-13.054,4.294a1.141,1.141,0,0,0-.728,1.443l3.251,9.886a1.142,1.142,0,0,0,1.443.729L75.8,381.981Z" transform="translate(-57.954 -369.935)" fill="none" stroke="#fff" stroke-width="0.25"/>
        </g>
        <g id="Group_919" data-name="Group 919">
          <path id="Path_411" data-name="Path 411" d="M62.276,386.693a1.571,1.571,0,0,1-1.491-1.078l-3.252-9.887a1.569,1.569,0,0,1,1-1.978l13.053-4.294a.424.424,0,0,1,.535.269l4,12.046a.424.424,0,0,1-.27.536l-13.092,4.307A1.547,1.547,0,0,1,62.276,386.693Zm9.173-16.3L58.8,374.555a.72.72,0,0,0-.458.908l3.252,9.886a.722.722,0,0,0,.907.46l12.688-4.175Z" transform="translate(-57.454 -369.435)" fill="#fff" stroke="#fff" stroke-width="0.25"/>
        </g>
      </g>
    </g>
  </g>
</svg>
