<svg xmlns="http://www.w3.org/2000/svg" width="246.078" height="172.063" viewBox="0 0 246.078 172.063">
  <g id="left-quote" transform="translate(0 -77)" opacity="0.16">
    <g id="Group_883" data-name="Group 883" transform="translate(130.729 77)">
      <g id="Group_882" data-name="Group 882">
        <path id="Path_389" data-name="Path 389" d="M370.828,150.983a57.323,57.323,0,0,0-38.63-17.212c-.069-.915-.121-2.176-.121-3.9,0-7.071,5.377-28.676,8.767-40.634L344.313,77H302.219l-2.82,4.543c-1.118,1.8-27.4,44.89-27.4,109.845a57.675,57.675,0,1,0,98.828-40.405Zm-41.154,78.855a38.493,38.493,0,0,1-38.45-38.45c0-47.735,15.782-83.068,22.018-95.163h5.829c-2.762,10.854-6.22,25.973-6.22,33.643,0,6.087.452,10.976,2.658,15.058,1.965,3.635,6.076,7.965,14.507,8.011l.42.011a38.448,38.448,0,0,1-.763,76.889Z" transform="translate(-272 -77)" fill="#705ca4"/>
      </g>
    </g>
    <g id="Group_885" data-name="Group 885" transform="translate(0 77)">
      <g id="Group_884" data-name="Group 884">
        <path id="Path_390" data-name="Path 390" d="M98.828,150.983A57.323,57.323,0,0,0,60.2,133.771c-.069-.915-.121-2.176-.121-3.9,0-7.071,5.377-28.676,8.767-40.634L72.313,77H30.219L27.4,81.543C26.28,83.346,0,126.433,0,191.388a57.675,57.675,0,1,0,98.828-40.405ZM57.675,229.838a38.493,38.493,0,0,1-38.45-38.45c0-47.735,15.782-83.068,22.018-95.163h5.829c-2.762,10.854-6.22,25.973-6.22,33.643,0,6.087.452,10.976,2.658,15.058,1.965,3.635,6.076,7.965,14.507,8.011l.42.011a38.448,38.448,0,0,1-.763,76.889Z" transform="translate(0 -77)" fill="#705ca4"/>
      </g>
    </g>
  </g>
</svg>
