<svg xmlns="http://www.w3.org/2000/svg" width="86.484" height="87.425" viewBox="0 0 86.484 87.425">
  <g id="passion" transform="translate(-1279.517 -2945.059)">
    <g id="Group_834" data-name="Group 834" transform="translate(879.517 485)">
      <g id="Group_537" data-name="Group 537" transform="translate(-47.144 2313.17)">
        <g id="Group_485" data-name="Group 485">
          <g id="Group_484" data-name="Group 484">
            <circle id="Ellipse_63" data-name="Ellipse 63" cx="30.577" cy="30.577" r="30.577" transform="translate(447.144 191.072) rotate(-45)" fill="#ffa44a"/>
          </g>
        </g>
        <g id="Group_487" data-name="Group 487" transform="translate(466.459 153.228)">
          <g id="Group_486" data-name="Group 486" transform="translate(0 0)">
            <path id="Path_222" data-name="Path 222" d="M514.1,218.982a.5.5,0,1,1,0,1,35.9,35.9,0,0,0-23.391,8.663.5.5,0,0,1-.653-.759A36.917,36.917,0,0,1,514.1,218.982Z" transform="translate(-489.886 -218.982)" fill="#37474f"/>
          </g>
        </g>
        <g id="Group_489" data-name="Group 489" transform="translate(468.681 146.889)">
          <g id="Group_488" data-name="Group 488" transform="translate(0 0)">
            <path id="Path_223" data-name="Path 223" d="M511.882,228.315a.5.5,0,0,1,0,1,42.225,42.225,0,0,0-21.244,5.721.5.5,0,0,1-.5-.864A43.227,43.227,0,0,1,511.882,228.315Z" transform="translate(-489.886 -228.315)" fill="#37474f"/>
          </g>
        </g>
        <g id="Group_491" data-name="Group 491" transform="translate(455.886 157.201)">
          <g id="Group_490" data-name="Group 490" transform="translate(0 0)">
            <path id="Path_224" data-name="Path 224" d="M524.677,216.889a.5.5,0,0,1,.326.879,42.525,42.525,0,0,0-6.37,6.823.5.5,0,1,1-.8-.6,43.594,43.594,0,0,1,6.518-6.984A.5.5,0,0,1,524.677,216.889Z" transform="translate(-517.732 -216.889)" fill="#37474f"/>
          </g>
        </g>
        <g id="Group_517" data-name="Group 517" transform="translate(-38 -16)">
          <g id="Group_514" data-name="Group 514" transform="translate(7 68)">
            <g id="Group_513" data-name="Group 513">
              <path id="Path_235" data-name="Path 235" d="M493.394,176.083a.5.5,0,0,1-.5-.5V171.22a.5.5,0,0,1,1,0v4.363A.5.5,0,0,1,493.394,176.083Z" fill="#37474f"/>
            </g>
          </g>
          <g id="Group_516" data-name="Group 516" transform="translate(7 68)">
            <g id="Group_515" data-name="Group 515">
              <path id="Path_236" data-name="Path 236" d="M495.575,173.9h-4.362a.5.5,0,0,1,0-1h4.362a.5.5,0,0,1,0,1Z" fill="#37474f"/>
            </g>
          </g>
        </g>
        <g id="Group_522" data-name="Group 522">
          <g id="Group_519" data-name="Group 519" transform="translate(-4 -23)">
            <g id="Group_518" data-name="Group 518">
              <path id="Path_237" data-name="Path 237" d="M530.627,196.885a.5.5,0,0,1-.5-.5v-4.363a.5.5,0,0,1,1,0v4.363A.5.5,0,0,1,530.627,196.885Z" fill="#37474f"/>
            </g>
          </g>
          <g id="Group_521" data-name="Group 521" transform="translate(-4 -23)">
            <g id="Group_520" data-name="Group 520">
              <path id="Path_238" data-name="Path 238" d="M532.808,194.7h-4.363a.5.5,0,0,1,0-1h4.363a.5.5,0,0,1,0,1Z" fill="#37474f"/>
            </g>
          </g>
        </g>
      </g>
    </g>
    <g id="Group_835" data-name="Group 835" transform="translate(-745.82 1806.208)">
      <path id="Path_360" data-name="Path 360" d="M2183.646,1189.747l2.914-2.91c5.023-5.015,2.54-11.792-1.507-16.142a18.631,18.631,0,0,0-4.435-3.561c-2.055-1.153-8.5-2.839-12.712,1.262l-8.746,8.7c-2.36,2.35,3.6,4.622,6.612,1.651l2.2-2.171c3.255-2.951,7.344,2.963,12.442-1.059" transform="translate(-96.995)" fill="none" stroke="#fff" stroke-linecap="round" stroke-linejoin="round" stroke-width="1.5"/>
      <path id="Path_361" data-name="Path 361" d="M2052.609,1188.842l-2.91-2.905c-9.7-9.682,7.1-26.306,16.939-16.726l1.961,1.951" transform="translate(0 -0.471)" fill="none" stroke="#fff" stroke-linecap="round" stroke-linejoin="round" stroke-width="1.5"/>
      <path id="Path_362" data-name="Path 362" d="M2264.2,1262.971l11.261,11.8c2.3,2.41-1.115,7-4.064,3.956l-5.279-5.443" transform="translate(-188.567 -84.285)" fill="none" stroke="#fff" stroke-linecap="round" stroke-linejoin="round" stroke-width="1.5"/>
      <path id="Path_363" data-name="Path 363" d="M2243.989,1341.726l5.8,5.961c2.323,2.386,7.026-1.142,4.077-4.186l-5.671-5.852" transform="translate(-171.037 -149.054)" fill="none" stroke="#fff" stroke-linecap="round" stroke-linejoin="round" stroke-width="1.5"/>
      <path id="Path_364" data-name="Path 364" d="M2230.7,1410.433l2.9,2.922c2.346,2.364,6.9-1.01,3.974-4.083" transform="translate(-159.514 -211.174)" fill="none" stroke="#fff" stroke-linecap="round" stroke-linejoin="round" stroke-width="1.5"/>
      <path id="Path_365" data-name="Path 365" d="M2086.487,1312.771l.31.309a2.707,2.707,0,0,1,0,3.81l-4.01,4.012a2.708,2.708,0,0,1-3.81,0l-.31-.309a2.7,2.7,0,0,1,0-3.81l4.011-4.012a2.7,2.7,0,0,1,3.81,0Z" transform="translate(-26.971 -126.796)" fill="none" stroke="#fff" stroke-linecap="round" stroke-linejoin="round" stroke-width="1.5"/>
      <path id="Path_366" data-name="Path 366" d="M2121.791,1326.6l.309.31a2.7,2.7,0,0,1,0,3.81l-6.388,6.388a2.708,2.708,0,0,1-3.81,0l-.31-.309a2.7,2.7,0,0,1,0-3.81l6.388-6.388a2.7,2.7,0,0,1,3.81,0Z" transform="translate(-55.528 -138.792)" fill="none" stroke="#fff" stroke-linecap="round" stroke-linejoin="round" stroke-width="1.5"/>
      <path id="Path_367" data-name="Path 367" d="M2154.593,1371.591l.31.31a2.7,2.7,0,0,1,0,3.81l-4.38,4.38a2.705,2.705,0,0,1-3.81,0l-.309-.31a2.7,2.7,0,0,1,0-3.81l4.38-4.38a2.7,2.7,0,0,1,3.809,0Z" transform="translate(-85.719 -177.811)" fill="none" stroke="#fff" stroke-linecap="round" stroke-linejoin="round" stroke-width="1.5"/>
      <path id="Path_368" data-name="Path 368" d="M2186.868,1414.516l.31.31a2.706,2.706,0,0,1,0,3.81l-2.689,2.689a2.708,2.708,0,0,1-3.81,0l-.309-.309a2.7,2.7,0,0,1,0-3.81l2.689-2.689a2.7,2.7,0,0,1,3.81,0Z" transform="translate(-115.179 -215.04)" fill="none" stroke="#fff" stroke-linecap="round" stroke-linejoin="round" stroke-width="1.5"/>
    </g>
  </g>
</svg>
