<svg xmlns="http://www.w3.org/2000/svg" width="86.484" height="87.424" viewBox="0 0 86.484 87.424">
  <g id="Results" transform="translate(-1279.517 -2945.059)">
    <g id="Group_834" data-name="Group 834" transform="translate(879.517 485)">
      <g id="Group_537" data-name="Group 537" transform="translate(-47.144 2313.17)">
        <g id="Group_485" data-name="Group 485">
          <g id="Group_484" data-name="Group 484">
            <circle id="Ellipse_63" data-name="Ellipse 63" cx="30.577" cy="30.577" r="30.577" transform="translate(447.144 191.072) rotate(-45)" fill="#ffa44a"/>
          </g>
        </g>
        <g id="Group_487" data-name="Group 487" transform="translate(466.459 153.228)">
          <g id="Group_486" data-name="Group 486" transform="translate(0 0)">
            <path id="Path_222" data-name="Path 222" d="M514.1,218.982a.5.5,0,1,1,0,1,35.9,35.9,0,0,0-23.391,8.663.5.5,0,0,1-.653-.759A36.917,36.917,0,0,1,514.1,218.982Z" transform="translate(-489.886 -218.982)" fill="#37474f"/>
          </g>
        </g>
        <g id="Group_489" data-name="Group 489" transform="translate(468.681 146.889)">
          <g id="Group_488" data-name="Group 488" transform="translate(0 0)">
            <path id="Path_223" data-name="Path 223" d="M511.882,228.315a.5.5,0,0,1,0,1,42.225,42.225,0,0,0-21.244,5.721.5.5,0,0,1-.5-.864A43.227,43.227,0,0,1,511.882,228.315Z" transform="translate(-489.886 -228.315)" fill="#37474f"/>
          </g>
        </g>
        <g id="Group_491" data-name="Group 491" transform="translate(455.886 157.201)">
          <g id="Group_490" data-name="Group 490" transform="translate(0 0)">
            <path id="Path_224" data-name="Path 224" d="M524.677,216.889a.5.5,0,0,1,.326.879,42.525,42.525,0,0,0-6.37,6.823.5.5,0,1,1-.8-.6,43.594,43.594,0,0,1,6.518-6.984A.5.5,0,0,1,524.677,216.889Z" transform="translate(-517.732 -216.889)" fill="#37474f"/>
          </g>
        </g>
        <g id="Group_517" data-name="Group 517" transform="translate(-38 -16)">
          <g id="Group_514" data-name="Group 514" transform="translate(7 68)">
            <g id="Group_513" data-name="Group 513">
              <path id="Path_235" data-name="Path 235" d="M493.394,176.083a.5.5,0,0,1-.5-.5V171.22a.5.5,0,0,1,1,0v4.363A.5.5,0,0,1,493.394,176.083Z" fill="#37474f"/>
            </g>
          </g>
          <g id="Group_516" data-name="Group 516" transform="translate(7 68)">
            <g id="Group_515" data-name="Group 515">
              <path id="Path_236" data-name="Path 236" d="M495.575,173.9h-4.362a.5.5,0,0,1,0-1h4.362a.5.5,0,0,1,0,1Z" fill="#37474f"/>
            </g>
          </g>
        </g>
        <g id="Group_522" data-name="Group 522">
          <g id="Group_519" data-name="Group 519" transform="translate(-4 -23)">
            <g id="Group_518" data-name="Group 518">
              <path id="Path_237" data-name="Path 237" d="M530.627,196.885a.5.5,0,0,1-.5-.5v-4.363a.5.5,0,0,1,1,0v4.363A.5.5,0,0,1,530.627,196.885Z" fill="#37474f"/>
            </g>
          </g>
          <g id="Group_521" data-name="Group 521" transform="translate(-4 -23)">
            <g id="Group_520" data-name="Group 520">
              <path id="Path_238" data-name="Path 238" d="M532.808,194.7h-4.363a.5.5,0,0,1,0-1h4.363a.5.5,0,0,1,0,1Z" fill="#37474f"/>
            </g>
          </g>
        </g>
      </g>
    </g>
    <g id="Group_862" data-name="Group 862" transform="translate(776.856 3713.832)">
      <path id="Path_380" data-name="Path 380" d="M595.863-742.082h23.086v17.8c0,5.628-5.2,10.244-11.542,10.244h0c-6.342,0-11.543-4.61-11.543-10.244v-17.8Z" transform="translate(-61.332 0)" fill="none" stroke="#fff" stroke-linecap="round" stroke-linejoin="round" stroke-width="1.5"/>
      <line id="Line_5" data-name="Line 5" y2="8.042" transform="translate(546.074 -714.019)" fill="none" stroke="#fff" stroke-linecap="round" stroke-linejoin="round" stroke-width="1.5"/>
      <line id="Line_6" data-name="Line 6" x2="21.076" transform="translate(535.536 -705.436)" fill="none" stroke="#fff" stroke-linecap="round" stroke-linejoin="round" stroke-width="1.5"/>
      <path id="Path_381" data-name="Path 381" d="M534.262-715.8H527a14.974,14.974,0,0,0,7.258,8.6" transform="translate(0 -23.412)" fill="none" stroke="#fff" stroke-linecap="round" stroke-linejoin="round" stroke-width="1.5"/>
      <path id="Path_382" data-name="Path 382" d="M809.511-715.8h7.258a14.974,14.974,0,0,1-7.258,8.6" transform="translate(-251.625 -23.412)" fill="none" stroke="#fff" stroke-linecap="round" stroke-linejoin="round" stroke-width="1.5"/>
      <path id="Path_383" data-name="Path 383" d="M640.409-700.063l2.152,5.1,5.34.344L643.717-691l1.322,5.185-4.738-2.86-4.523,2.86,1.256-5.39-4.117-3.418,5.514-.471,1.978-4.972Z" transform="translate(-94.335 -37.426)" fill="none" stroke="#fff" stroke-linecap="round" stroke-linejoin="round" stroke-width="1.5"/>
    </g>
  </g>
</svg>
