<svg xmlns="http://www.w3.org/2000/svg" width="43.961" height="43.961" viewBox="0 0 43.961 43.961">
  <g id="social-media-managment" transform="translate(-1169.838 -631.394)">
    <path id="Path_435" data-name="Path 435" d="M1184.773,673.615l-5.9-3.159,2.637-6.224a14.894,14.894,0,0,1-2.366-2.889l-6.62,1.362-1.937-6.4,6.266-2.536a14.846,14.846,0,0,1,.369-3.716l-5.645-3.719,3.159-5.9,6.224,2.637a14.877,14.877,0,0,1,2.889-2.367l-1.362-6.62,6.4-1.937,2.536,6.265a14.891,14.891,0,0,1,3.718.369l3.718-5.643,5.9,3.159-2.636,6.222a14.884,14.884,0,0,1,2.368,2.89l6.618-1.361,1.937,6.4-6.263,2.535a14.853,14.853,0,0,1-.37,3.719l5.642,3.717-3.159,5.9-6.222-2.636a14.873,14.873,0,0,1-2.89,2.368l1.361,6.618-6.405,1.937-2.535-6.264a14.89,14.89,0,0,1-3.717-.371l-3.718,5.644Z" transform="translate(0)" fill="none" stroke="#fff" stroke-linecap="round" stroke-linejoin="round" stroke-width="1.5"/>
    <path id="Path_436" data-name="Path 436" d="M1246.649,702.941a7.888,7.888,0,1,1-5.266,9.834,7.888,7.888,0,0,1,5.266-9.834Z" transform="translate(-57.115 -57.117)" fill="none" stroke="#fff" stroke-linecap="round" stroke-linejoin="round" stroke-width="1.5"/>
  </g>
</svg>
