<svg xmlns="http://www.w3.org/2000/svg" width="144.567" height="112.167" viewBox="0 0 144.567 112.167">
  <g id="standard" transform="translate(-519.668 -4541.542)">
    <g id="Group_157" data-name="Group 157" transform="translate(337.301 4189.892)">
      <g id="Group_147" data-name="Group 147" transform="translate(189.242 372.797)">
        <g id="Group_122" data-name="Group 122" transform="translate(0 31.256)">
          <g id="Group_114" data-name="Group 114" transform="translate(14.119)">
            <g id="Group_113" data-name="Group 113">
              <path id="Path_72" data-name="Path 72" d="M274.882,440.97a.8.8,0,0,1-.8-.8V389.183a.871.871,0,0,0-.87-.87H200.577a.871.871,0,0,0-.87.87v50.991a.8.8,0,1,1-1.591,0V389.183a2.464,2.464,0,0,1,2.461-2.461h72.639a2.464,2.464,0,0,1,2.461,2.461v50.991A.794.794,0,0,1,274.882,440.97Z" transform="translate(-198.116 -386.722)" fill="#fff"/>
            </g>
          </g>
          <g id="Group_117" data-name="Group 117" transform="translate(18.365 4.353)">
            <g id="Group_116" data-name="Group 116">
              <path id="Path_73" data-name="Path 73" d="M267.58,434.989H203.059a2.276,2.276,0,0,1-2.274-2.275V391.735a2.278,2.278,0,0,1,2.274-2.277H267.58a2.278,2.278,0,0,1,2.274,2.277v40.979A2.276,2.276,0,0,1,267.58,434.989Zm-64.521-43.939a.684.684,0,0,0-.683.686v40.979a.684.684,0,0,0,.683.684H267.58a.685.685,0,0,0,.683-.684V391.735a.685.685,0,0,0-.683-.686Z" transform="translate(-200.785 -389.458)" fill="#fff"/>
            </g>
          </g>
          <g id="Group_121" data-name="Group 121" transform="translate(0 52.657)">
            <g id="Group_120" data-name="Group 120">
              <g id="Group_119" data-name="Group 119">
                <path id="Path_75" data-name="Path 75" d="M288.837,426.925h-93.39a4.588,4.588,0,0,1-3.906-2.159l-2.191-3.752a.8.8,0,0,1,.687-1.2H294.247a.8.8,0,0,1,.686,1.2l-2.178,3.729A4.6,4.6,0,0,1,288.837,426.925Zm-97.414-5.516,1.478,2.533a2.993,2.993,0,0,0,2.546,1.392h93.39a3,3,0,0,0,2.555-1.413l1.469-2.512C255.335,422.528,228.948,422.528,191.423,421.409Z" transform="translate(-189.242 -419.818)" fill="#fff"/>
              </g>
            </g>
          </g>
        </g>
        <g id="Group_129" data-name="Group 129" transform="translate(34.958 45.118)">
          <g id="Group_125" data-name="Group 125" transform="translate(7.316)">
            <g id="Group_123" data-name="Group 123" transform="translate(0.796 8.897)">
              <path id="Path_90" data-name="Path 90" d="M0,6.629Z" transform="translate(0 -5.092)" fill="#fff"/>
            </g>
            <g id="Group_124" data-name="Group 124">
              <path id="Path_76" data-name="Path 76" d="M226.246,416.3a10.434,10.434,0,1,1,10.434-10.434A10.446,10.446,0,0,1,226.246,416.3Zm0-19.277a8.843,8.843,0,1,0,8.843,8.843A8.852,8.852,0,0,0,226.246,397.026Z" transform="translate(-215.812 -395.435)" fill="#fff"/>
            </g>
          </g>
          <g id="Group_128" data-name="Group 128" transform="translate(0 22.356)">
            <g id="Group_127" data-name="Group 127">
              <path id="Path_78" data-name="Path 78" d="M245.919,423.037H212.01a.8.8,0,0,1-.8-.8v-4.476a8.288,8.288,0,0,1,8.278-8.28h18.944a8.288,8.288,0,0,1,8.278,8.28v4.476A.8.8,0,0,1,245.919,423.037Zm-33.114-1.591h32.319v-3.68a6.7,6.7,0,0,0-6.687-6.689H219.492a6.7,6.7,0,0,0-6.687,6.689Z" transform="translate(-211.214 -409.486)" fill="#fff"/>
            </g>
          </g>
        </g>
        <g id="Group_134" data-name="Group 134" transform="translate(79.442 20.835)">
          <g id="Group_133" data-name="Group 133">
            <path id="Path_79" data-name="Path 79" d="M256.14,403.987a.8.8,0,0,1-.414-1.475,11.19,11.19,0,1,0-15.1-15.815.8.8,0,0,1-1.319-.891,12.781,12.781,0,1,1,17.244,18.063A.786.786,0,0,1,256.14,403.987Z" transform="translate(-239.173 -380.172)" fill="#fff"/>
          </g>
        </g>
        <g id="Group_136" data-name="Group 136" transform="translate(95.293 11.708)">
          <g id="Group_135" data-name="Group 135">
            <path id="Path_80" data-name="Path 80" d="M258.985,413.152a.8.8,0,0,1-.544-1.378A21.126,21.126,0,0,0,249.715,376a.8.8,0,0,1,.43-1.532,22.718,22.718,0,0,1,9.382,38.473A.793.793,0,0,1,258.985,413.152Z" transform="translate(-249.136 -374.436)" fill="#fff"/>
          </g>
        </g>
        <g id="Group_138" data-name="Group 138" transform="translate(78.28 10.902)">
          <g id="Group_137" data-name="Group 137">
            <path id="Path_81" data-name="Path 81" d="M239.239,378.533a.795.795,0,0,1-.4-1.48,22.682,22.682,0,0,1,11.5-3.125.8.8,0,0,1,0,1.591,21.112,21.112,0,0,0-10.7,2.9A.787.787,0,0,1,239.239,378.533Z" transform="translate(-238.443 -373.929)" fill="#fff"/>
          </g>
        </g>
        <g id="Group_140" data-name="Group 140" transform="translate(69.342 17.921)">
          <g id="Group_139" data-name="Group 139">
            <path id="Path_82" data-name="Path 82" d="M233.621,385.935a.776.776,0,0,1-.323-.068.8.8,0,0,1-.4-1.05A22.674,22.674,0,0,1,237,378.6a.8.8,0,0,1,1.168,1.082,21.06,21.06,0,0,0-3.817,5.783A.793.793,0,0,1,233.621,385.935Z" transform="translate(-232.825 -378.341)" fill="#fff"/>
          </g>
        </g>
        <g id="Group_142" data-name="Group 142" transform="translate(95.293 63.636)">
          <g id="Group_141" data-name="Group 141">
            <path id="Path_83" data-name="Path 83" d="M249.93,410.137a.8.8,0,0,1-.142-1.578,31.654,31.654,0,0,0,5.271-1.438.8.8,0,0,1,.549,1.5,33.582,33.582,0,0,1-5.535,1.508A.889.889,0,0,1,249.93,410.137Z" transform="translate(-249.136 -407.074)" fill="#fff"/>
          </g>
        </g>
        <g id="Group_144" data-name="Group 144" transform="translate(82.29)">
          <g id="Group_143" data-name="Group 143">
            <path id="Path_84" data-name="Path 84" d="M265.7,429.659a.8.8,0,0,1-.409-1.478,32.037,32.037,0,0,0-23.356-58.765.8.8,0,1,1-.342-1.553A33.622,33.622,0,0,1,266.1,429.546.779.779,0,0,1,265.7,429.659Z" transform="translate(-240.963 -367.077)" fill="#fff"/>
          </g>
        </g>
      </g>
      <g id="Group_156" data-name="Group 156" transform="translate(214.041 357.399)">
        <g id="Group_151" data-name="Group 151">
          <g id="Group_150" data-name="Group 150">
            <g id="Group_149" data-name="Group 149">
              <path id="Path_87" data-name="Path 87" d="M215.575,397.288a.793.793,0,0,1-.679-.383l-4.8-7.9h-2.815a2.458,2.458,0,0,1-2.455-2.455v-26.7a2.457,2.457,0,0,1,2.455-2.453H249.3a2.457,2.457,0,0,1,2.455,2.453v26.7a2.458,2.458,0,0,1-2.455,2.455H220.87l-4.608,7.887a.8.8,0,0,1-.681.395Zm-8.291-38.3a.864.864,0,0,0-.864.862v26.7a.865.865,0,0,0,.864.864h3.262a.789.789,0,0,1,.679.382l4.337,7.141,4.164-7.128a.8.8,0,0,1,.687-.395H249.3a.864.864,0,0,0,.864-.864v-26.7a.863.863,0,0,0-.864-.862Z" transform="translate(-204.829 -357.399)" fill="#fff"/>
            </g>
          </g>
        </g>
        <g id="Group_153" data-name="Group 153" transform="translate(11.541 10.884)">
          <g id="Group_152" data-name="Group 152">
            <path id="Path_88" data-name="Path 88" d="M235.785,365.831H212.878a.8.8,0,0,1,0-1.591h22.906a.8.8,0,1,1,0,1.591Z" transform="translate(-212.083 -364.24)" fill="#fff"/>
          </g>
        </g>
        <g id="Group_155" data-name="Group 155" transform="translate(11.541 19.627)">
          <g id="Group_154" data-name="Group 154">
            <path id="Path_89" data-name="Path 89" d="M235.785,371.326H212.878a.8.8,0,0,1,0-1.591h22.906a.8.8,0,1,1,0,1.591Z" transform="translate(-212.083 -369.735)" fill="#fff"/>
          </g>
        </g>
      </g>
    </g>
    <g id="Group_302" data-name="Group 302" transform="translate(659.153 4559.542)">
      <g id="Group_219" data-name="Group 219">
        <path id="Path_121" data-name="Path 121" d="M221.085,177.1a.8.8,0,0,1-.8-.8v-6.968a.8.8,0,0,1,1.6,0v6.968A.8.8,0,0,1,221.085,177.1Z" transform="translate(-220.286 -168.539)" fill="#fff"/>
      </g>
    </g>
    <g id="Group_304" data-name="Group 304" transform="translate(649.153 4629.542)">
      <g id="Group_219-2" data-name="Group 219">
        <path id="Path_121-2" data-name="Path 121" d="M221.085,177.1a.8.8,0,0,1-.8-.8v-6.968a.8.8,0,0,1,1.6,0v6.968A.8.8,0,0,1,221.085,177.1Z" transform="translate(-220.286 -168.539)" fill="#fff"/>
      </g>
    </g>
    <g id="Group_306" data-name="Group 306" transform="translate(615.153 4541.542)">
      <g id="Group_219-3" data-name="Group 219">
        <path id="Path_121-3" data-name="Path 121" d="M221.085,177.1a.8.8,0,0,1-.8-.8v-6.968a.8.8,0,0,1,1.6,0v6.968A.8.8,0,0,1,221.085,177.1Z" transform="translate(-220.286 -168.539)" fill="#fff"/>
      </g>
    </g>
    <g id="Group_308" data-name="Group 308" transform="translate(523.153 4560.542)">
      <g id="Group_219-4" data-name="Group 219">
        <path id="Path_121-4" data-name="Path 121" d="M221.085,177.1a.8.8,0,0,1-.8-.8v-6.968a.8.8,0,0,1,1.6,0v6.968A.8.8,0,0,1,221.085,177.1Z" transform="translate(-220.286 -168.539)" fill="#fff"/>
      </g>
    </g>
    <g id="Group_310" data-name="Group 310" transform="translate(523.153 4607.542)">
      <g id="Group_219-5" data-name="Group 219">
        <path id="Path_121-5" data-name="Path 121" d="M221.085,177.1a.8.8,0,0,1-.8-.8v-6.968a.8.8,0,0,1,1.6,0v6.968A.8.8,0,0,1,221.085,177.1Z" transform="translate(-220.286 -168.539)" fill="#fff"/>
      </g>
    </g>
    <g id="Group_303" data-name="Group 303" transform="translate(655.668 4563.026)">
      <g id="Group_221" data-name="Group 221">
        <path id="Path_122" data-name="Path 122" d="M225.872,172.317H218.9a.8.8,0,0,1,0-1.6h6.969a.8.8,0,1,1,0,1.6Z" transform="translate(-218.104 -170.72)" fill="#fff"/>
      </g>
    </g>
    <g id="Group_305" data-name="Group 305" transform="translate(645.668 4633.026)">
      <g id="Group_221-2" data-name="Group 221">
        <path id="Path_122-2" data-name="Path 122" d="M225.872,172.317H218.9a.8.8,0,0,1,0-1.6h6.969a.8.8,0,1,1,0,1.6Z" transform="translate(-218.104 -170.72)" fill="#fff"/>
      </g>
    </g>
    <g id="Group_307" data-name="Group 307" transform="translate(611.668 4545.026)">
      <g id="Group_221-3" data-name="Group 221">
        <path id="Path_122-3" data-name="Path 122" d="M225.872,172.317H218.9a.8.8,0,0,1,0-1.6h6.969a.8.8,0,1,1,0,1.6Z" transform="translate(-218.104 -170.72)" fill="#fff"/>
      </g>
    </g>
    <g id="Group_309" data-name="Group 309" transform="translate(519.668 4564.026)">
      <g id="Group_221-4" data-name="Group 221">
        <path id="Path_122-4" data-name="Path 122" d="M225.872,172.317H218.9a.8.8,0,0,1,0-1.6h6.969a.8.8,0,1,1,0,1.6Z" transform="translate(-218.104 -170.72)" fill="#fff"/>
      </g>
    </g>
    <g id="Group_311" data-name="Group 311" transform="translate(519.668 4611.026)">
      <g id="Group_221-5" data-name="Group 221">
        <path id="Path_122-5" data-name="Path 122" d="M225.872,172.317H218.9a.8.8,0,0,1,0-1.6h6.969a.8.8,0,1,1,0,1.6Z" transform="translate(-218.104 -170.72)" fill="#fff"/>
      </g>
    </g>
  </g>
</svg>
