<svg xmlns="http://www.w3.org/2000/svg" width="86.484" height="87.274" viewBox="0 0 86.484 87.274">
  <g id="tech" transform="translate(-400 -2461)">
    <g id="Group_537" data-name="Group 537" transform="translate(-47.144 2313.17)">
      <g id="Group_485" data-name="Group 485">
        <g id="Group_484" data-name="Group 484">
          <circle id="Ellipse_63" data-name="Ellipse 63" cx="30.577" cy="30.577" r="30.577" transform="translate(447.144 191.072) rotate(-45)" fill="#ffa44a"/>
        </g>
      </g>
      <g id="Group_487" data-name="Group 487">
        <g id="Group_486" data-name="Group 486">
          <path id="Path_222" data-name="Path 222" d="M490.386,228.765a.5.5,0,0,1,0-1,35.9,35.9,0,0,0,23.391-8.663.5.5,0,0,1,.653.759A36.916,36.916,0,0,1,490.386,228.765Z" fill="#37474f"/>
        </g>
      </g>
      <g id="Group_489" data-name="Group 489">
        <g id="Group_488" data-name="Group 488">
          <path id="Path_223" data-name="Path 223" d="M490.386,235.1a.5.5,0,0,1,0-1,42.224,42.224,0,0,0,21.244-5.721.5.5,0,0,1,.5.864A43.227,43.227,0,0,1,490.386,235.1Z" fill="#37474f"/>
        </g>
      </g>
      <g id="Group_491" data-name="Group 491">
        <g id="Group_490" data-name="Group 490">
          <path id="Path_224" data-name="Path 224" d="M518.232,224.792a.5.5,0,0,1-.326-.879,42.524,42.524,0,0,0,6.37-6.823.5.5,0,1,1,.8.6,43.594,43.594,0,0,1-6.518,6.984A.5.5,0,0,1,518.232,224.792Z" fill="#37474f"/>
        </g>
      </g>
      <g id="Group_517" data-name="Group 517" transform="translate(-38 -13)">
        <g id="Group_514" data-name="Group 514">
          <g id="Group_513" data-name="Group 513">
            <path id="Path_235" data-name="Path 235" d="M493.394,176.083a.5.5,0,0,1-.5-.5V171.22a.5.5,0,0,1,1,0v4.363A.5.5,0,0,1,493.394,176.083Z" fill="#37474f"/>
          </g>
        </g>
        <g id="Group_516" data-name="Group 516">
          <g id="Group_515" data-name="Group 515">
            <path id="Path_236" data-name="Path 236" d="M495.575,173.9h-4.362a.5.5,0,0,1,0-1h4.362a.5.5,0,0,1,0,1Z" fill="#37474f"/>
          </g>
        </g>
      </g>
      <g id="Group_522" data-name="Group 522">
        <g id="Group_519" data-name="Group 519">
          <g id="Group_518" data-name="Group 518">
            <path id="Path_237" data-name="Path 237" d="M530.627,196.885a.5.5,0,0,1-.5-.5v-4.363a.5.5,0,0,1,1,0v4.363A.5.5,0,0,1,530.627,196.885Z" fill="#37474f"/>
          </g>
        </g>
        <g id="Group_521" data-name="Group 521">
          <g id="Group_520" data-name="Group 520">
            <path id="Path_238" data-name="Path 238" d="M532.808,194.7h-4.363a.5.5,0,0,1,0-1h4.363a.5.5,0,0,1,0,1Z" fill="#37474f"/>
          </g>
        </g>
      </g>
    </g>
    <g id="Group_832" data-name="Group 832" transform="translate(291.777 1994.7)">
      <path id="Path_353" data-name="Path 353" d="M228.135,490.684c1.247-2.18,2.722-3.441,4.3-3.441,4.493,0,8.135,10.2,8.135,22.778s-3.642,22.778-8.135,22.778-8.135-10.2-8.135-22.778a51.477,51.477,0,0,1,2.071-15.182" transform="translate(-81.765 0)" fill="none" stroke="#fff" stroke-linecap="round" stroke-linejoin="round" stroke-width="1.5"/>
      <path id="Path_354" data-name="Path 354" d="M136.51,587.3c-2.735.088-4.73-.552-5.564-2-2.246-3.891,4.764-12.144,15.659-18.434s21.548-8.235,23.794-4.344-4.764,12.144-15.659,18.434a52.584,52.584,0,0,1-13.511,5.644" transform="translate(0 -63.889)" fill="none" stroke="#fff" stroke-linecap="round" stroke-linejoin="round" stroke-width="1.5"/>
      <path id="Path_355" data-name="Path 355" d="M169.857,585.983c-3.087,2.937-13.065.855-23.253-5.028-10.894-6.29-17.905-14.543-15.659-18.434s12.9-1.946,23.794,4.344c8.306,4.795,14.355,10.732,15.764,15.006" transform="translate(0 -63.889)" fill="none" stroke="#fff" stroke-linecap="round" stroke-linejoin="round" stroke-width="1.5"/>
      <path id="Path_356" data-name="Path 356" d="M230.777,513.1a2.183,2.183,0,1,1-2.183,2.183,2.183,2.183,0,0,1,2.183-2.183Z" transform="translate(-85.508 -22.544)" fill="none" stroke="#fff" stroke-linecap="round" stroke-linejoin="round" stroke-width="1.5"/>
      <path id="Path_357" data-name="Path 357" d="M181.1,751.814A2.183,2.183,0,1,1,178.912,754a2.183,2.183,0,0,1,2.183-2.183Z" transform="translate(-42.189 -230.686)" fill="none" stroke="#fff" stroke-linecap="round" stroke-linejoin="round" stroke-width="1.5"/>
      <path id="Path_358" data-name="Path 358" d="M431.567,726.641a2.183,2.183,0,1,1-2.183,2.183,2.183,2.183,0,0,1,2.183-2.183Z" transform="translate(-260.582 -208.737)" fill="none" stroke="#fff" stroke-linecap="round" stroke-linejoin="round" stroke-width="1.5"/>
      <path id="Path_359" data-name="Path 359" d="M262.232,635.748a3.758,3.758,0,1,1-3.758,3.758,3.758,3.758,0,0,1,3.758-3.758Z" transform="translate(-111.561 -129.485)" fill="none" stroke="#fff" stroke-linecap="round" stroke-linejoin="round" stroke-width="1.5"/>
    </g>
  </g>
</svg>
