<svg xmlns="http://www.w3.org/2000/svg" width="124.083" height="120.996" viewBox="0 0 124.083 120.996">
  <g id="unlimited" transform="translate(-188.419 -168.539)">
    <g id="Group_163" data-name="Group 163" transform="translate(201.053 270.839)">
      <g id="Group_159" data-name="Group 159" transform="translate(38.04 7.597)">
        <g id="Group_158" data-name="Group 158">
          <path id="Path_91" data-name="Path 91" d="M242.079,248.436a.8.8,0,0,1-.8-.8c0-4.8-4.383-8.7-9.769-8.7s-9.771,3.9-9.771,8.7a.8.8,0,1,1-1.6,0c0-5.68,5.1-10.3,11.368-10.3s11.367,4.62,11.367,10.3A.8.8,0,0,1,242.079,248.436Z" transform="translate(-220.142 -237.338)" fill="#fff"/>
        </g>
      </g>
      <g id="Group_162" data-name="Group 162">
        <g id="Group_161" data-name="Group 161">
          <path id="Path_93" data-name="Path 93" d="M294.345,251.278H197.127a.8.8,0,0,1-.8-.8c0-9.868,8.891-17.9,19.818-17.9,10.632,0,19.334,7.6,19.8,17.1h19.58c.463-9.5,9.167-17.1,19.8-17.1,10.928,0,19.818,8.028,19.818,17.9A.8.8,0,0,1,294.345,251.278Zm-37.22-1.6h36.4c-.466-8.618-8.452-15.5-18.2-15.5S257.592,241.062,257.125,249.68Zm-59.177,0h36.4c-.466-8.618-8.45-15.5-18.2-15.5S198.414,241.062,197.948,249.68Z" transform="translate(-196.328 -232.582)" fill="#fff"/>
        </g>
      </g>
    </g>
    <g id="Group_180" data-name="Group 180" transform="translate(188.419 263.994)">
      <g id="Group_165" data-name="Group 165" transform="translate(40.764 3.641)">
        <g id="Group_164" data-name="Group 164">
          <path id="Path_94" data-name="Path 94" d="M218.188,234.489a.792.792,0,0,1-.5-.172,25.984,25.984,0,0,0-3.348-2.244.8.8,0,0,1,.784-1.391,27.864,27.864,0,0,1,3.554,2.382.8.8,0,0,1-.5,1.426Z" transform="translate(-213.938 -230.576)" fill="#fff"/>
        </g>
      </g>
      <g id="Group_167" data-name="Group 167" transform="translate(30.662 0.273)">
        <g id="Group_166" data-name="Group 166">
          <path id="Path_95" data-name="Path 95" d="M215.385,231.923a.805.805,0,0,1-.3-.059,27.515,27.515,0,0,0-3.867-1.254,28.173,28.173,0,0,0-2.91-.553.8.8,0,1,1,.216-1.583,29.948,29.948,0,0,1,3.073.583,29.541,29.541,0,0,1,4.092,1.327.8.8,0,0,1-.3,1.538Z" transform="translate(-207.614 -228.468)" fill="#fff"/>
        </g>
      </g>
      <g id="Group_169" data-name="Group 169" transform="translate(12.504)">
        <g id="Group_168" data-name="Group 168">
          <path id="Path_96" data-name="Path 96" d="M197.047,233.538a.8.8,0,0,1-.393-1.494,29.589,29.589,0,0,1,14.522-3.747.8.8,0,0,1,0,1.6,28,28,0,0,0-13.737,3.541A.792.792,0,0,1,197.047,233.538Z" transform="translate(-196.247 -228.297)" fill="#fff"/>
        </g>
      </g>
      <g id="Group_171" data-name="Group 171" transform="translate(0 8.338)">
        <g id="Group_170" data-name="Group 170">
          <path id="Path_97" data-name="Path 97" d="M189.218,250.719a.8.8,0,0,1-.8-.8,23.36,23.36,0,0,1,6.655-16.157.8.8,0,0,1,1.155,1.105,21.767,21.767,0,0,0-6.212,15.052A.8.8,0,0,1,189.218,250.719Z" transform="translate(-188.419 -233.517)" fill="#fff"/>
        </g>
      </g>
      <g id="Group_173" data-name="Group 173" transform="translate(78.27 3.642)">
        <g id="Group_172" data-name="Group 172">
          <path id="Path_98" data-name="Path 98" d="M238.218,234.489a.8.8,0,0,1-.5-1.426,27.86,27.86,0,0,1,3.554-2.382.8.8,0,0,1,.784,1.391,25.983,25.983,0,0,0-3.348,2.244A.792.792,0,0,1,238.218,234.489Z" transform="translate(-237.419 -230.577)" fill="#fff"/>
        </g>
      </g>
      <g id="Group_175" data-name="Group 175" transform="translate(84.852 0.273)">
        <g id="Group_174" data-name="Group 174">
          <path id="Path_99" data-name="Path 99" d="M242.338,231.923a.8.8,0,0,1-.3-1.538,29.542,29.542,0,0,1,4.092-1.327,29.948,29.948,0,0,1,3.073-.583.8.8,0,1,1,.216,1.583,28.141,28.141,0,0,0-2.909.553,27.47,27.47,0,0,0-3.869,1.254A.805.805,0,0,1,242.338,231.923Z" transform="translate(-241.539 -228.468)" fill="#fff"/>
        </g>
      </g>
      <g id="Group_177" data-name="Group 177" transform="translate(95.851)">
        <g id="Group_176" data-name="Group 176">
          <path id="Path_100" data-name="Path 100" d="M263.352,233.538a.792.792,0,0,1-.391-.1,28,28,0,0,0-13.737-3.541.8.8,0,1,1,0-1.6,29.6,29.6,0,0,1,14.523,3.747.8.8,0,0,1-.395,1.494Z" transform="translate(-248.425 -228.297)" fill="#fff"/>
        </g>
      </g>
      <g id="Group_179" data-name="Group 179" transform="translate(116.052 8.34)">
        <g id="Group_178" data-name="Group 178">
          <path id="Path_101" data-name="Path 101" d="M268.3,250.718a.8.8,0,0,1-.8-.8,21.767,21.767,0,0,0-6.212-15.052.8.8,0,0,1,1.155-1.105A23.36,23.36,0,0,1,269.1,249.92.8.8,0,0,1,268.3,250.718Z" transform="translate(-261.071 -233.518)" fill="#fff"/>
        </g>
      </g>
    </g>
    <g id="Group_190" data-name="Group 190" transform="translate(223.574 180.364)">
      <g id="Group_183" data-name="Group 183" transform="translate(12.392)">
        <g id="Group_182" data-name="Group 182">
          <path id="Path_103" data-name="Path 103" d="M246.361,241.824H218.984a.8.8,0,0,1-.8-.8V196.192c0-7.833,13.392-19.56,13.963-20.055a.8.8,0,0,1,1.048,0c.57.5,13.964,12.221,13.964,20.055v44.833A.8.8,0,0,1,246.361,241.824Zm-26.578-1.6h25.78V196.192c0-6.3-10.412-16.13-12.891-18.381-2.477,2.252-12.889,12.086-12.889,18.381Z" transform="translate(-218.185 -175.942)" fill="#fff"/>
        </g>
      </g>
      <g id="Group_186" data-name="Group 186" transform="translate(0 46.539)">
        <g id="Group_185" data-name="Group 185">
          <path id="Path_105" data-name="Path 105" d="M211.226,233.153a.8.8,0,0,1-.8-.8V214.888a.8.8,0,0,1,.329-.645l12.392-9.014a.8.8,0,0,1,1.268.647V223.34a.8.8,0,0,1-.329.647L211.7,233A.794.794,0,0,1,211.226,233.153Zm.8-17.859v15.491l10.795-7.851v-15.49Z" transform="translate(-210.427 -205.077)" fill="#fff"/>
        </g>
      </g>
      <g id="Group_189" data-name="Group 189" transform="translate(39.784 46.538)">
        <g id="Group_188" data-name="Group 188">
          <path id="Path_107" data-name="Path 107" d="M248.524,233.153a.79.79,0,0,1-.47-.153l-12.391-9.012a.8.8,0,0,1-.331-.647V205.876a.8.8,0,0,1,1.268-.647l12.392,9.014a.8.8,0,0,1,.329.645v17.466a.8.8,0,0,1-.8.8ZM236.93,222.934l10.795,7.851V215.294l-10.795-7.849Z" transform="translate(-235.333 -205.076)" fill="#fff"/>
        </g>
      </g>
    </g>
    <g id="Group_203" data-name="Group 203" transform="translate(241.296 249.562)">
      <g id="Group_192" data-name="Group 192">
        <g id="Group_191" data-name="Group 191">
          <path id="Path_108" data-name="Path 108" d="M222.321,231.391a.8.8,0,0,1-.8-.8V220.061a.8.8,0,0,1,1.6,0v10.531A.8.8,0,0,1,222.321,231.391Z" transform="translate(-221.522 -219.262)" fill="#fff"/>
        </g>
      </g>
      <g id="Group_194" data-name="Group 194" transform="translate(8.365)">
        <g id="Group_193" data-name="Group 193">
          <path id="Path_109" data-name="Path 109" d="M227.558,231.391a.8.8,0,0,1-.8-.8V220.061a.8.8,0,1,1,1.6,0v10.531A.8.8,0,0,1,227.558,231.391Z" transform="translate(-226.759 -219.262)" fill="#fff"/>
        </g>
      </g>
      <g id="Group_196" data-name="Group 196" transform="translate(16.731)">
        <g id="Group_195" data-name="Group 195">
          <path id="Path_110" data-name="Path 110" d="M232.795,231.391a.8.8,0,0,1-.8-.8V220.061a.8.8,0,1,1,1.6,0v10.531A.8.8,0,0,1,232.795,231.391Z" transform="translate(-231.996 -219.262)" fill="#fff"/>
        </g>
      </g>
      <g id="Group_198" data-name="Group 198" transform="translate(0 15.4)">
        <g id="Group_197" data-name="Group 197">
          <path id="Path_111" data-name="Path 111" d="M222.321,233.893a.8.8,0,0,1-.8-.8V229.7a.8.8,0,0,1,1.6,0v3.393A.8.8,0,0,1,222.321,233.893Z" transform="translate(-221.522 -228.903)" fill="#fff"/>
        </g>
      </g>
      <g id="Group_200" data-name="Group 200" transform="translate(8.365 15.4)">
        <g id="Group_199" data-name="Group 199">
          <path id="Path_112" data-name="Path 112" d="M227.558,233.893a.8.8,0,0,1-.8-.8V229.7a.8.8,0,0,1,1.6,0v3.393A.8.8,0,0,1,227.558,233.893Z" transform="translate(-226.759 -228.903)" fill="#fff"/>
        </g>
      </g>
      <g id="Group_202" data-name="Group 202" transform="translate(16.731 15.4)">
        <g id="Group_201" data-name="Group 201">
          <path id="Path_113" data-name="Path 113" d="M232.795,233.893a.8.8,0,0,1-.8-.8V229.7a.8.8,0,0,1,1.6,0v3.393A.8.8,0,0,1,232.795,233.893Z" transform="translate(-231.996 -228.903)" fill="#fff"/>
        </g>
      </g>
    </g>
    <g id="Group_206" data-name="Group 206" transform="translate(242.665 198.552)">
      <g id="Group_205" data-name="Group 205">
        <path id="Path_114" data-name="Path 114" d="M230.174,202.917a7.794,7.794,0,1,1,7.8-7.794A7.8,7.8,0,0,1,230.174,202.917Zm0-13.991a6.2,6.2,0,1,0,6.2,6.2A6.2,6.2,0,0,0,230.174,188.925Z" transform="translate(-222.379 -187.328)" fill="#fff"/>
      </g>
    </g>
    <g id="Group_208" data-name="Group 208" transform="translate(292.425 243.992)">
      <g id="Group_207" data-name="Group 207">
        <path id="Path_115" data-name="Path 115" d="M254.329,224.342a.8.8,0,0,1-.8-.8v-6.969a.8.8,0,0,1,1.6,0v6.969A.8.8,0,0,1,254.329,224.342Z" transform="translate(-253.53 -215.775)" fill="#fff"/>
      </g>
    </g>
    <g id="Group_210" data-name="Group 210" transform="translate(288.941 247.476)">
      <g id="Group_209" data-name="Group 209">
        <path id="Path_116" data-name="Path 116" d="M259.115,219.553h-6.968a.8.8,0,1,1,0-1.6h6.968a.8.8,0,0,1,0,1.6Z" transform="translate(-251.349 -217.956)" fill="#fff"/>
      </g>
    </g>
    <g id="Group_212" data-name="Group 212" transform="translate(279.039 187.995)">
      <g id="Group_211" data-name="Group 211">
        <path id="Path_117" data-name="Path 117" d="M245.949,189.287a.8.8,0,0,1-.8-.8v-6.971a.8.8,0,1,1,1.6,0v6.971A.8.8,0,0,1,245.949,189.287Z" transform="translate(-245.15 -180.719)" fill="#fff"/>
      </g>
    </g>
    <g id="Group_214" data-name="Group 214" transform="translate(275.555 191.48)">
      <g id="Group_213" data-name="Group 213">
        <path id="Path_118" data-name="Path 118" d="M250.735,184.5h-6.968a.8.8,0,1,1,0-1.6h6.968a.8.8,0,1,1,0,1.6Z" transform="translate(-242.969 -182.901)" fill="#fff"/>
      </g>
    </g>
    <g id="Group_216" data-name="Group 216" transform="translate(223.348 211.668)">
      <g id="Group_215" data-name="Group 215">
        <path id="Path_119" data-name="Path 119" d="M211.085,204.1a.8.8,0,0,1-.8-.8v-6.968a.8.8,0,1,1,1.6,0v6.968A.8.8,0,0,1,211.085,204.1Z" transform="translate(-210.286 -195.539)" fill="#fff"/>
      </g>
    </g>
    <g id="Group_218" data-name="Group 218" transform="translate(219.863 215.152)">
      <g id="Group_217" data-name="Group 217">
        <path id="Path_120" data-name="Path 120" d="M215.872,199.317H208.9a.8.8,0,0,1,0-1.6h6.969a.8.8,0,1,1,0,1.6Z" transform="translate(-208.104 -197.72)" fill="#fff"/>
      </g>
    </g>
    <g id="Group_220" data-name="Group 220" transform="translate(239.322 168.539)">
      <g id="Group_219" data-name="Group 219">
        <path id="Path_121" data-name="Path 121" d="M221.085,177.1a.8.8,0,0,1-.8-.8v-6.968a.8.8,0,0,1,1.6,0v6.968A.8.8,0,0,1,221.085,177.1Z" transform="translate(-220.286 -168.539)" fill="#fff"/>
      </g>
    </g>
    <g id="Group_222" data-name="Group 222" transform="translate(235.837 172.023)">
      <g id="Group_221" data-name="Group 221">
        <path id="Path_122" data-name="Path 122" d="M225.872,172.317H218.9a.8.8,0,0,1,0-1.6h6.969a.8.8,0,1,1,0,1.6Z" transform="translate(-218.104 -170.72)" fill="#fff"/>
      </g>
    </g>
    <g id="Group_224" data-name="Group 224" transform="translate(201.707 249.795)">
      <g id="Group_223" data-name="Group 223">
        <path id="Path_123" data-name="Path 123" d="M197.537,227.973a.8.8,0,0,1-.8-.8v-6.968a.8.8,0,0,1,1.6,0v6.968A.8.8,0,0,1,197.537,227.973Z" transform="translate(-196.738 -219.408)" fill="#fff"/>
      </g>
    </g>
    <g id="Group_226" data-name="Group 226" transform="translate(198.224 253.279)">
      <g id="Group_225" data-name="Group 225">
        <path id="Path_124" data-name="Path 124" d="M202.325,223.186h-6.969a.8.8,0,0,1,0-1.6h6.969a.8.8,0,0,1,0,1.6Z" transform="translate(-194.557 -221.589)" fill="#fff"/>
      </g>
    </g>
  </g>
</svg>
