<svg xmlns="http://www.w3.org/2000/svg" width="41.41" height="41.411" viewBox="0 0 41.41 41.411">
  <path id="info-icon" d="M20.7,0A20.706,20.706,0,1,0,41.411,20.7,20.706,20.706,0,0,0,20.7,0Zm4.31,32.09q-1.6.631-2.55.961a6.728,6.728,0,0,1-2.212.331,4.409,4.409,0,0,1-3.01-.945,3.049,3.049,0,0,1-1.071-2.4,8.7,8.7,0,0,1,.079-1.155c.054-.393.14-.834.258-1.33l1.334-4.712c.117-.452.219-.882.3-1.281a5.681,5.681,0,0,0,.119-1.11,1.709,1.709,0,0,0-.372-1.257,2.111,2.111,0,0,0-1.425-.352A3.74,3.74,0,0,0,15.4,19c-.359.11-.671.21-.927.309l.352-1.451q1.309-.534,2.507-.913a7.405,7.405,0,0,1,2.261-.382,4.326,4.326,0,0,1,2.966.929A3.087,3.087,0,0,1,23.6,19.9q0,.308-.072,1.082a7.237,7.237,0,0,1-.266,1.422l-1.327,4.7c-.109.377-.205.808-.293,1.29a6.822,6.822,0,0,0-.128,1.1,1.576,1.576,0,0,0,.419,1.276,2.345,2.345,0,0,0,1.45.34,4.2,4.2,0,0,0,1.1-.17,6.239,6.239,0,0,0,.887-.3ZM24.78,13.022a3.167,3.167,0,0,1-2.235.862,3.2,3.2,0,0,1-2.244-.862,2.753,2.753,0,0,1-.934-2.091,2.781,2.781,0,0,1,.934-2.1,3.177,3.177,0,0,1,2.244-.871,3.141,3.141,0,0,1,2.235.871,2.824,2.824,0,0,1,0,4.188Z" fill="#fff"/>
</svg>
