<svg id="instagram-logo" xmlns="http://www.w3.org/2000/svg" width="19.73" height="19.73" viewBox="0 0 19.73 19.73">
  <path id="Path_6" data-name="Path 6" d="M14.285,0H5.445A5.451,5.451,0,0,0,0,5.445v8.84A5.451,5.451,0,0,0,5.445,19.73h8.84a5.451,5.451,0,0,0,5.445-5.445V5.445A5.451,5.451,0,0,0,14.285,0Zm3.694,14.285a3.7,3.7,0,0,1-3.694,3.694H5.445a3.7,3.7,0,0,1-3.694-3.694V5.445A3.7,3.7,0,0,1,5.445,1.751h8.84a3.7,3.7,0,0,1,3.694,3.694v8.84Z" fill="#fff"/>
  <path id="Path_7" data-name="Path 7" d="M46.052,40.97a5.084,5.084,0,1,0,5.084,5.084A5.09,5.09,0,0,0,46.052,40.97Zm0,8.417a3.333,3.333,0,1,1,3.333-3.333A3.337,3.337,0,0,1,46.052,49.387Z" transform="translate(-36.187 -36.189)" fill="#fff"/>
  <path id="Path_8" data-name="Path 8" d="M120.2,28.251a1.283,1.283,0,1,0,.908.376A1.289,1.289,0,0,0,120.2,28.251Z" transform="translate(-105.043 -24.954)" fill="#fff"/>
</svg>
