<svg xmlns="http://www.w3.org/2000/svg" width="22.456" height="18.652" viewBox="0 0 22.456 18.652">
  <g id="left-arrow" transform="translate(0)">
    <g id="Group_64" data-name="Group 64" transform="translate(0 0)">
      <path id="Path_65" data-name="Path 65" d="M1.262,49.239l-.035.008H16.254L11.53,44.512a1.241,1.241,0,0,1,0-1.744l.735-.735a1.23,1.23,0,0,1,1.736,0l8.1,8.1a1.238,1.238,0,0,1,0,1.742l-8.1,8.1a1.231,1.231,0,0,1-1.736,0l-.735-.735a1.216,1.216,0,0,1-.358-.868,1.18,1.18,0,0,1,.358-.851l4.777-4.761H1.245A1.273,1.273,0,0,1,0,51.493v-1.04A1.248,1.248,0,0,1,1.262,49.239Z" transform="translate(0 -41.674)" fill="#fff"/>
    </g>
  </g>
</svg>
