<svg id="newspaper-icon" xmlns="http://www.w3.org/2000/svg" width="40.615" height="37.879" viewBox="0 0 40.615 37.879">
  <g id="Group_23" data-name="Group 23" transform="translate(16.149 10.087)">
    <g id="Group_22" data-name="Group 22">
      <path id="Path_30" data-name="Path 30" d="M215.278,144.4H205.192a1.61,1.61,0,0,0,0,3.219h10.087a1.61,1.61,0,1,0,0-3.219Z" transform="translate(-203.582 -144.402)" fill="#fff"/>
    </g>
  </g>
  <g id="Group_25" data-name="Group 25" transform="translate(16.149 17.867)">
    <g id="Group_24" data-name="Group 24">
      <path id="Path_31" data-name="Path 31" d="M219.141,242.473h-13.95a1.61,1.61,0,0,0,0,3.219h13.95a1.61,1.61,0,0,0,0-3.219Z" transform="translate(-203.582 -242.473)" fill="#fff"/>
    </g>
  </g>
  <g id="Group_27" data-name="Group 27" transform="translate(0 0)">
    <g id="Group_26" data-name="Group 26">
      <path id="Path_32" data-name="Path 32" d="M39.005,17.247H10.516a1.61,1.61,0,0,0-1.61,1.61V34.041H6.063A6.07,6.07,0,0,0,0,40.1v8.96a6.064,6.064,0,0,0,6.869,6.009H33.426a7.2,7.2,0,0,0,7.189-7.19V18.857A1.609,1.609,0,0,0,39.005,17.247ZM8.906,49.064a2.848,2.848,0,0,1-2.293,2.79h-.55v.054a2.847,2.847,0,0,1-2.844-2.844V40.1A2.847,2.847,0,0,1,6.063,37.26H8.906v11.8Zm28.49-1.18a4.023,4.023,0,0,1-3.97,3.97H11.445a6.023,6.023,0,0,0,.681-2.79v-28.6H37.4V47.883Z" transform="translate(0 -17.247)" fill="#fff"/>
    </g>
  </g>
  <g id="Group_29" data-name="Group 29" transform="translate(16.149 25.164)">
    <g id="Group_28" data-name="Group 28">
      <path id="Path_33" data-name="Path 33" d="M215.278,334.464H205.192a1.61,1.61,0,0,0,0,3.219h10.087a1.61,1.61,0,1,0,0-3.219Z" transform="translate(-203.582 -334.464)" fill="#fff"/>
    </g>
  </g>
</svg>
