<svg xmlns="http://www.w3.org/2000/svg" width="20.561" height="20.605" viewBox="0 0 20.561 20.605">
  <g id="phone-white" transform="translate(-0.539)">
    <g id="Group_159" data-name="Group 159" transform="translate(0.539 0)">
      <path id="Path_31" data-name="Path 31" d="M20.561,15.122l-2.875-2.875a1.913,1.913,0,0,0-3.184.719A1.957,1.957,0,0,1,12.243,14.2,8.867,8.867,0,0,1,6.9,8.857,1.861,1.861,0,0,1,8.135,6.6a1.913,1.913,0,0,0,.719-3.184L5.979.539a2.051,2.051,0,0,0-2.773,0L1.255,2.49C-.7,4.544,1.46,9.987,6.287,14.814S16.556,21.9,18.61,19.846l1.951-1.951A2.051,2.051,0,0,0,20.561,15.122Z" transform="translate(-0.539 0)" fill="#fff"/>
    </g>
  </g>
</svg>
