<svg xmlns="http://www.w3.org/2000/svg" width="31" height="27.866" viewBox="0 0 31 27.866">
  <path id="shopping-cart" d="M14.974,133.382a2.575,2.575,0,1,1-2.575-2.574A2.574,2.574,0,0,1,14.974,133.382Zm7.85-2.574a2.574,2.574,0,1,0,2.574,2.574A2.574,2.574,0,0,0,22.824,130.807Zm7.991-12.086-3.168,9.415a1.7,1.7,0,0,1-1.6,1.4h-16c-1.594,0-1.661-1.751-1.661-1.751s-1.7-12.61-1.784-13.372-1.058-1.326-1.058-1.326l-4.192-1.958c-2.3-1.2-1.252-3.484,0-2.959,5.315,2.507,7.785,3.742,7.944,4.73s.44,3.373.44,3.373v.015l.056-.015H29.39C31.755,116.27,30.816,118.725,30.816,118.721Zm-4.582,5.243-.033,0H10.692l.32,2.534H25.479Zm1.51-5.111H10.051l.341,2.708H26.943Z" transform="translate(0 -108.09)" fill="#fff"/>
</svg>
