<svg xmlns="http://www.w3.org/2000/svg" width="140" height="21.967" viewBox="0 0 140 21.967">
  <g id="Group_9" data-name="Group 9" transform="translate(-440 -926)">
    <path id="star_4_" data-name="star (4)" d="M21.416,7.87,14.653,6.837,11.621.38a.716.716,0,0,0-1.244,0L7.347,6.837.584,7.87A.687.687,0,0,0,.2,9.03l4.913,5.036-1.161,7.12a.688.688,0,0,0,1.011.712L11,18.559,17.041,21.9a.688.688,0,0,0,1.011-.712l-1.161-7.12L21.8,9.031a.688.688,0,0,0-.388-1.16Z" transform="translate(440 925.982)" fill="#fff"/>
    <path id="star_4_2" data-name="star (4)" d="M21.416,7.87,14.653,6.837,11.621.38a.716.716,0,0,0-1.244,0L7.347,6.837.584,7.87A.687.687,0,0,0,.2,9.03l4.913,5.036-1.161,7.12a.688.688,0,0,0,1.011.712L11,18.559,17.041,21.9a.688.688,0,0,0,1.011-.712l-1.161-7.12L21.8,9.031a.688.688,0,0,0-.388-1.16Z" transform="translate(470 925.982)" fill="#fff"/>
    <path id="star_4_3" data-name="star (4)" d="M21.416,7.87,14.653,6.837,11.621.38a.716.716,0,0,0-1.244,0L7.347,6.837.584,7.87A.687.687,0,0,0,.2,9.03l4.913,5.036-1.161,7.12a.688.688,0,0,0,1.011.712L11,18.559,17.041,21.9a.688.688,0,0,0,1.011-.712l-1.161-7.12L21.8,9.031a.688.688,0,0,0-.388-1.16Z" transform="translate(499 925.982)" fill="#fff"/>
    <path id="star_4_4" data-name="star (4)" d="M21.416,7.87,14.653,6.837,11.621.38a.716.716,0,0,0-1.244,0L7.347,6.837.584,7.87A.687.687,0,0,0,.2,9.03l4.913,5.036-1.161,7.12a.688.688,0,0,0,1.011.712L11,18.559,17.041,21.9a.688.688,0,0,0,1.011-.712l-1.161-7.12L21.8,9.031a.688.688,0,0,0-.388-1.16Z" transform="translate(529 925.982)" fill="#fff"/>
    <path id="star_4_5" data-name="star (4)" d="M21.416,7.87,14.653,6.837,11.621.38a.716.716,0,0,0-1.244,0L7.347,6.837.584,7.87A.687.687,0,0,0,.2,9.03l4.913,5.036-1.161,7.12a.688.688,0,0,0,1.011.712L11,18.559,17.041,21.9a.688.688,0,0,0,1.011-.712l-1.161-7.12L21.8,9.031a.688.688,0,0,0-.388-1.16Z" transform="translate(558 925.982)" fill="#fff"/>
  </g>
</svg>
