<svg id="video-camera-icon" xmlns="http://www.w3.org/2000/svg" width="40.813" height="23.98" viewBox="0 0 40.813 23.98">
  <g id="Group_31" data-name="Group 31" transform="translate(0 0)">
    <g id="Group_30" data-name="Group 30" transform="translate(0 0)">
      <path id="Path_34" data-name="Path 34" d="M23.086,96.512H4.465A4.479,4.479,0,0,0,0,100.977v15.049a4.479,4.479,0,0,0,4.465,4.465H23.086a4.479,4.479,0,0,0,4.465-4.465V100.977A4.45,4.45,0,0,0,23.086,96.512Z" transform="translate(0 -96.512)" fill="#fff"/>
    </g>
  </g>
  <g id="Group_33" data-name="Group 33" transform="translate(29.784 2.384)">
    <g id="Group_32" data-name="Group 32" transform="translate(0 0)">
      <path id="Path_35" data-name="Path 35" d="M349.229,123.919a2.275,2.275,0,0,0-.759.313l-6.966,4.019v10.36l7.011,4.019a2.655,2.655,0,0,0,3.662-.982,2.728,2.728,0,0,0,.357-1.34v-13.8A2.688,2.688,0,0,0,349.229,123.919Z" transform="translate(-341.504 -123.847)" fill="#fff"/>
    </g>
  </g>
</svg>
