<svg xmlns="http://www.w3.org/2000/svg" width="30.004" height="21.007" viewBox="0 0 30.004 21.007">
  <path id="youtube" d="M29.386-2.795A3.759,3.759,0,0,0,26.742-5.44C24.394-6.082,15-6.082,15-6.082s-9.391,0-11.739.618A3.835,3.835,0,0,0,.619-2.795,39.607,39.607,0,0,0,0,4.422a39.462,39.462,0,0,0,.618,7.217,3.759,3.759,0,0,0,2.645,2.645c2.372.643,11.739.643,11.739.643s9.391,0,11.739-.618a3.759,3.759,0,0,0,2.645-2.644A39.62,39.62,0,0,0,30,4.446a37.6,37.6,0,0,0-.618-7.241ZM12.012,8.92v-9l7.81,4.5Zm0,0" transform="translate(-0.001 6.082)" fill="#fff"/>
</svg>
